{
.appVersion = "1192";
copyright = "Copyright 2011 The Londrina Shadow Authors (https://github.com/marcelommp/Londrina-Typeface), with Reserved Font Name \"Londrina Shadow\"";
customParameters = (
{
name = description;
value = "";
},
{
name = licenseURL;
value = "http://scripts.sil.org/OFL";
},
{
name = license;
value = "This Font Software is licensed under the SIL Open Font License, Version 1.1. This license is available with a FAQ at: http://scripts.sil.org/OFL";
},
{
name = vendorID;
value = PYRS;
},
{
name = panose;
value = (
0,
0,
5,
0,
0,
0,
0,
0,
0,
0
);
},
{
name = unicodeRanges;
value = (
0,
1
);
},
{
name = codePageRanges;
value = (
1252
);
},
{
name = blueScale;
value = 0.037;
},
{
name = glyphOrder;
value = (
.notdef,
A,
Aacute,
Acircumflex,
Adieresis,
Agrave,
Aring,
Atilde,
AE,
B,
C,
Ccedilla,
D,
Eth,
E,
Eacute,
Ecircumflex,
Edieresis,
Egrave,
F,
G,
H,
I,
Iacute,
Icircumflex,
Idieresis,
Igrave,
J,
K,
L,
M,
N,
Ntilde,
O,
Oacute,
Ocircumflex,
Odieresis,
Ograve,
Oslash,
Otilde,
OE,
P,
Thorn,
Q,
R,
S,
Scaron,
T,
U,
Uacute,
Ucircumflex,
Udieresis,
Ugrave,
V,
W,
X,
Y,
Yacute,
Ydieresis,
Z,
Zcaron,
a,
aacute,
acircumflex,
adieresis,
agrave,
aring,
atilde,
ae,
b,
c,
ccedilla,
d,
eth,
e,
eacute,
ecircumflex,
edieresis,
egrave,
f,
g,
h,
i,
iacute,
icircumflex,
idieresis,
igrave,
ij,
j,
k,
l,
m,
n,
ntilde,
o,
oacute,
ocircumflex,
odieresis,
ograve,
oslash,
otilde,
oe,
p,
thorn,
q,
r,
s,
scaron,
germandbls,
t,
u,
uacute,
ucircumflex,
udieresis,
ugrave,
v,
w,
x,
y,
yacute,
ydieresis,
z,
zcaron,
f_f,
f_f_i,
f_f_l,
fi,
fl,
ordfeminine,
ordmasculine,
zero,
one,
two,
three,
four,
five,
six,
seven,
eight,
nine,
uni00B9,
uni00B2,
uni00B3,
onehalf,
onequarter,
threequarters,
oneeighth,
threeeighths,
fiveeighths,
seveneighths,
asterisk,
backslash,
periodcentered,
bullet,
colon,
comma,
ellipsis,
exclam,
exclamdown,
numbersign,
period,
question,
questiondown,
quotedbl,
quotesingle,
semicolon,
slash,
underscore,
braceleft,
braceright,
bracketleft,
bracketright,
parenleft,

glyphs = (
{
glyphname = A;
layers = (
{
hints = (
{
horizontal = 1;
place = "{-35, 30}";
type = Stem;
},
{
horizontal = 1;
place = "{139, 30}";
type = Stem;
},
{
horizontal = 1;
place = "{285, 11}";
type = Stem;
},
{
horizontal = 1;
place = "{701, 15}";
type = Stem;
},
{
place = "{273.88, 10.96}";
type = Stem;
},
{
horizontal = 1;
place = "{-31, 32}";
type = Stem;
},
{
place = "{248, 12}";
type = Stem;
}
);
layerId = "D68BD575-7350-49C7-85EB-1FC0FDA2B601";
paths = (
{
closed = 1;
nodes = (
"392 333 LINE SMOOTH",
"376 402 OFFCURVE",
"316 649 OFFCURVE",
"308 696 CURVE",
"303 695 OFFCURVE",
"298 695 OFFCURVE",
"293 694 CURVE",
"290 703 OFFCURVE",
"289 711 OFFCURVE",
"288 716 CURVE",
"172 705 OFFCURVE",
"184 714 OFFCURVE",
"149 709 CURVE",
"72 453 OFFCURVE",
"26 186 OFFCURVE",
"5 66 CURVE SMOOTH",
"-9 -8 LINE",
"14 -8 LINE",
"11 -28 LINE",
"64 -29 LINE SMOOTH",
"111 -30 OFFCURVE",
"136 -30 OFFCURVE",
"153 -31 CURVE",
"166 -31 OFFCURVE",
"170 -29 OFFCURVE",
"175 -29 CURVE",
"204 24 OFFCURVE",
"204 96 OFFCURVE",
"220 138 CURVE",
"235 138 OFFCURVE",
"235 139 OFFCURVE",
"248 139 CURVE SMOOTH",
"263 139 OFFCURVE",
"271 67 OFFCURVE",
"295 -5 CURVE",
"306 -8 OFFCURVE",
"308 -6 OFFCURVE",
"315 -25 CURVE",
"346 -32 OFFCURVE",
"376 -35 OFFCURVE",
"405 -35 CURVE SMOOTH",
"424 -35 OFFCURVE",
"446 -32 OFFCURVE",
"469 -28 CURVE"
);
},
{
closed = 1;
nodes = (
"437 1 LINE",
"437 0 LINE",
"421 -3 OFFCURVE",
"404 -5 OFFCURVE",
"385 -5 CURVE SMOOTH",
"356 -5 OFFCURVE",
"329 -2 OFFCURVE",
"303 4 CURVE",
"302 4 LINE",
"286 47 OFFCURVE",
"273 128 OFFCURVE",
"255 167 CURVE",
"246 168 OFFCURVE",
"240 169 OFFCURVE",
"235 169 CURVE SMOOTH",
"222 169 LINE SMOOTH",
"215 169 OFFCURVE",
"208 168 OFFCURVE",
"193 168 CURVE",
"174 126 OFFCURVE",
"173 44 OFFCURVE",
"149 1 CURVE",
"146 0 LINE",
"144 -1 OFFCURVE",
"140 -1 OFFCURVE",
"133 -1 CURVE SMOOTH",
"116 -1 OFFCURVE",
"86 1 OFFCURVE",
"30 1 CURVE SMOOTH",
"6 1 LINE SMOOTH",
"5 1 OFFCURVE",
"5 1 OFFCURVE",
"4 2 CURVE",
"12 30 OFFCURVE",
"61 380 OFFCURVE",
"157 700 CURVE",
"160 701 OFFCURVE",
"165 701 OFFCURVE",
"172 701 CURVE SMOOTH",
"193 701 LINE SMOOTH",
"210 701 OFFCURVE",
"236 701 OFFCURVE",
"280 705 CURVE",
"292 653 OFFCURVE",
"346 418 OFFCURVE",
"362 351 CURVE SMOOTH"
);
},
{
closed = 1;
nodes = (
"226 285 OFFCURVE",
"243 286 OFFCURVE",
"260 286 CURVE",
"241 437 OFFCURVE",
"231 495 OFFCURVE",
"222 495 CURVE SMOOTH",
"210 495 OFFCURVE",
"202 401 OFFCURVE",
"186 286 CURVE",
"194 286 OFFCURVE",
"201 285 OFFCURVE",
"210 285 CURVE SMOOTH"
);
},
{
closed = 1;
nodes = (
"219 296 LINE",
"235 410 LINE",
"238 382 OFFCURVE",
"243 344 OFFCURVE",
"248 296 CURVE"
);
}
);
width = 434;
}
);
leftKerningGroup = A;
note = A;
rightKerningGroup = A;
unicode = 0041;
},
{
glyphname = Aacute;
layers = (
{
hints = (
{
horizontal = 1;
place = "{-31, 32}";
type = Stem;
},
{
horizontal = 1;
place = "{139, 30}";
type = Stem;
},
{
horizontal = 1;
place = "{285, 11}";
type = Stem;
},
{
horizontal = 1;
place = "{701, 15}";
type = Stem;
},
{
place = "{273.88, 10.96}";
type = Stem;
},
{
horizontal = 1;
place = "{718, 30}";
type = Stem;
},
{
horizontal = 1;
place = "{-35, 30}";
type = Stem;
},
{
place = "{-8, 12}";
type = Stem;
},
{
place = "{248, 12}";
type = Stem;
}
);
layerId = "D68BD575-7350-49C7-85EB-1FC0FDA2B601";
paths = (
{
closed = 1;
nodes = (
"320 910 LINE",
"319 909 LINE",
"300 930 LINE",
"233 877 OFFCURVE",
"191 821 OFFCURVE",
"111 749 CURVE",
"119 746 OFFCURVE",
"131 745 OFFCURVE",
"146 742 CURVE",
"131 729 LINE",
"154 722 OFFCURVE",
"201 718 OFFCURVE",
"238 718 CURVE SMOOTH",
"254 718 OFFCURVE",
"271 718 OFFCURVE",
"292 721 CURVE",
"300 735 OFFCURVE",
"335 767 OFFCURVE",
"364 791 CURVE",
"363 791 LINE",
"375 802 OFFCURVE",
"390 815 OFFCURVE",
"401 826 CURVE"
);
},
{
closed = 1;
nodes = (
"368 847 LINE",
"367 846 LINE SMOOTH",
"349 828 OFFCURVE",
"277 769 OFFCURVE",
"266 750 CURVE",
"251 747 OFFCURVE",
"236 748 OFFCURVE",
"217 748 CURVE SMOOTH",
"181 748 OFFCURVE",
"144 750 OFFCURVE",
"132 754 CURVE",
"178 798 OFFCURVE",
"252 880 OFFCURVE",
"299 917 CURVE"
);
},
{
closed = 1;
nodes = (
"392 333 LINE SMOOTH",
"376 401 OFFCURVE",
"324 643 OFFCURVE",
"308 696 CURVE",
"303 695 OFFCURVE",
"298 695 OFFCURVE",
"294 694 CURVE",
"291 703 OFFCURVE",
"289 711 OFFCURVE",
"288 716 CURVE",
"172 705 OFFCURVE",
"184 714 OFFCURVE",
"149 709 CURVE",
"49 385 OFFCURVE",
"-4 18 OFFCURVE",
"-8 -8 CURVE",
"14 -8 LINE",
"12 -28 LINE",
"64 -29 LINE SMOOTH",
"111 -30 OFFCURVE",
"136 -30 OFFCURVE",
"153 -31 CURVE",
"166 -31 OFFCURVE",
"170 -29 OFFCURVE",
"175 -29 CURVE",
"204 24 OFFCURVE",
"204 96 OFFCURVE",
"220 138 CURVE",
"235 138 OFFCURVE",
"235 139 OFFCURVE",
"248 139 CURVE SMOOTH",
"263 139 OFFCURVE",
"271 67 OFFCURVE",
"295 -5 CURVE",
"306 -8 OFFCURVE",
"308 -6 OFFCURVE",
"315 -25 CURVE",
"346 -32 OFFCURVE",
"376 -35 OFFCURVE",
"405 -35 CURVE SMOOTH",
"424 -35 OFFCURVE",
"446 -32 OFFCURVE",
"469 -28 CURVE"
);
},
{
closed = 1;
nodes = (
"437 1 LINE",
"437 0 LINE",
"421 -3 OFFCURVE",
"404 -5 OFFCURVE",
"385 -5 CURVE SMOOTH",
"356 -5 OFFCURVE",
"329 -2 OFFCURVE",
"303 4 CURVE",
"302 4 LINE",
"286 47 OFFCURVE",
"273 128 OFFCURVE",
"255 167 CURVE",
"246 168 OFFCURVE",
"240 169 OFFCURVE",
"235 169 CURVE SMOOTH",
"222 169 LINE SMOOTH",
"215 169 OFFCURVE",
"208 168 OFFCURVE",
"193 168 CURVE",
"174 126 OFFCURVE",
"173 44 OFFCURVE",
"149 1 CURVE",
"146 0 LINE",
"144 -1 OFFCURVE",
"140 -1 OFFCURVE",
"133 -1 CURVE SMOOTH",
"116 -1 OFFCURVE",
"86 1 OFFCURVE",
"30 1 CURVE SMOOTH",
"6 1 LINE SMOOTH",
"5 1 OFFCURVE",
"5 1 OFFCURVE",
"4 2 CURVE",
"8 29 OFFCURVE",
"61 381 OFFCURVE",
"157 700 CURVE",
"160 701 OFFCURVE",
"165 701 OFFCURVE",
"172 701 CURVE SMOOTH",
"193 701 LINE SMOOTH",
"210 701 OFFCURVE",
"236 701 OFFCURVE",
"280 705 CURVE",
"296 656 OFFCURVE",
"346 418 OFFCURVE",
"362 351 CURVE SMOOTH"
);
},
{
closed = 1;
nodes = (
"226 285 OFFCURVE",
"243 286 OFFCURVE",
"260 286 CURVE",
"241 437 OFFCURVE",
"231 495 OFFCURVE",
"222 495 CURVE SMOOTH",
"210 495 OFFCURVE",
"202 401 OFFCURVE",
"186 286 CURVE",
"194 286 OFFCURVE",
"201 285 OFFCURVE",
"210 285 CURVE SMOOTH"
);
},
{
closed = 1;
nodes = (
"219 296 LINE",
"235 410 LINE",
"238 382 OFFCURVE",
"243 344 OFFCURVE",
"248 296 CURVE"
);
}
);
width = 434;
}
);
leftKerningGroup = A;
note = Aacute;
rightKerningGroup = A;
unicode = 00C1;
},
{
glyphname = Acircumflex;
layers = (
{
hints = (
{
horizontal = 1;
place = "{-31, 32}";
type = Stem;
},
{
horizontal = 1;
place = "{139, 30}";
type = Stem;
},
{
horizontal = 1;
place = "{285, 11}";
type = Stem;
},
{
horizontal = 1;
place = "{701, 15}";
type = Stem;
},
{
place = "{273.88, 10.96}";
type = Stem;
},
{
horizontal = 1;
place = "{-35, 30}";
type = Stem;
},
{
horizontal = 1;
place = "{719, 30}";
type = Stem;
},
{
place = "{248, 12}";
type = Stem;
}
);
layerId = "D68BD575-7350-49C7-85EB-1FC0FDA2B601";
paths = (
{
closed = 1;
nodes = (
"241 912 LINE",
"221 932 LINE",
"157 874 OFFCURVE",
"102 829 OFFCURVE",
"40 746 CURVE",
"73 743 LINE",
"69 738 OFFCURVE",
"64 733 OFFCURVE",
"60 726 CURVE",
"124 722 OFFCURVE",
"157 719 OFFCURVE",
"168 719 CURVE SMOOTH",
"201 719 OFFCURVE",
"216 754 OFFCURVE",
"235 768 CURVE",
"278 712 OFFCURVE",
"299 719 OFFCURVE",
"325 719 CURVE SMOOTH",
"362 719 OFFCURVE",
"398 726 OFFCURVE",
"398 727 CURVE SMOOTH",
"398 728 OFFCURVE",
"398 728 OFFCURVE",
"397 729 CURVE",
"419 749 LINE"
);
},
{
closed = 1;
nodes = (
"384 756 LINE",
"382 756 LINE SMOOTH",
"375 756 OFFCURVE",
"346 749 OFFCURVE",
"306 749 CURVE SMOOTH",
"294 749 OFFCURVE",
"282 748 OFFCURVE",
"269 751 CURVE",
"259 751 OFFCURVE",
"231 792 OFFCURVE",
"218 800 CURVE",
"208 795 OFFCURVE",
"176 754 OFFCURVE",
"166 751 CURVE",
"158 750 OFFCURVE",
"153 749 OFFCURVE",
"148 749 CURVE SMOOTH",
"135 749 OFFCURVE",
"118 750 OFFCURVE",
"59 755 CURVE",
"104 816 OFFCURVE",
"161 862 OFFCURVE",
"221 918 CURVE"
);
},
{
closed = 1;
nodes = (
"392 333 LINE SMOOTH",
"376 402 OFFCURVE",
"316 649 OFFCURVE",
"308 696 CURVE",
"303 695 OFFCURVE",
"298 695 OFFCURVE",
"293 694 CURVE",
"290 703 OFFCURVE",
"289 711 OFFCURVE",
"288 716 CURVE",
"172 705 OFFCURVE",
"184 714 OFFCURVE",
"149 709 CURVE",
"72 453 OFFCURVE",
"26 186 OFFCURVE",
"5 66 CURVE SMOOTH",
"-9 -8 LINE",
"14 -8 LINE",
"11 -28 LINE",
"64 -29 LINE SMOOTH",
"111 -30 OFFCURVE",
"136 -30 OFFCURVE",
"153 -31 CURVE",
"166 -31 OFFCURVE",
"170 -29 OFFCURVE",
"175 -29 CURVE",
"204 24 OFFCURVE",
"204 96 OFFCURVE",
"220 138 CURVE",
"235 138 OFFCURVE",
"235 139 OFFCURVE",
"248 139 CURVE SMOOTH",
"263 139 OFFCURVE",
"271 67 OFFCURVE",
"295 -5 CURVE",
"306 -8 OFFCURVE",
"308 -6 OFFCURVE",
"315 -25 CURVE",
"346 -32 OFFCURVE",
"376 -35 OFFCURVE",
"405 -35 CURVE SMOOTH",
"424 -35 OFFCURVE",
"446 -32 OFFCURVE",
"469 -28 CURVE"
);
},
{
closed = 1;
nodes = (
"437 1 LINE",
"437 0 LINE",
"421 -3 OFFCURVE",
"404 -5 OFFCURVE",
"385 -5 CURVE SMOOTH",
"356 -5 OFFCURVE",
"329 -2 OFFCURVE",
"303 4 CURVE",
"302 4 LINE",
"286 47 OFFCURVE",
"273 128 OFFCURVE",
"255 167 CURVE",
"246 168 OFFCURVE",
"240 169 OFFCURVE",
"235 169 CURVE SMOOTH",
"222 169 LINE SMOOTH",
"215 169 OFFCURVE",
"208 168 OFFCURVE",
"193 168 CURVE",
"174 126 OFFCURVE",
"173 44 OFFCURVE",
"149 1 CURVE",
"146 0 LINE",
"144 -1 OFFCURVE",
"140 -1 OFFCURVE",
"133 -1 CURVE SMOOTH",
"116 -1 OFFCURVE",
"86 1 OFFCURVE",
"30 1 CURVE SMOOTH",
"6 1 LINE SMOOTH",
"5 1 OFFCURVE",
"5 1 OFFCURVE",
"4 2 CURVE",
"12 30 OFFCURVE",
"61 380 OFFCURVE",
"157 700 CURVE",
"160 701 OFFCURVE",
"165 701 OFFCURVE",
"172 701 CURVE SMOOTH",
"193 701 LINE SMOOTH",
"210 701 OFFCURVE",
"236 701 OFFCURVE",
"280 705 CURVE",
"292 653 OFFCURVE",
"346 418 OFFCURVE",
"362 351 CURVE SMOOTH"
);
},
{
closed = 1;
nodes = (
"226 285 OFFCURVE",
"243 286 OFFCURVE",
"260 286 CURVE",
"241 437 OFFCURVE",
"231 495 OFFCURVE",
"222 495 CURVE SMOOTH",
"210 495 OFFCURVE",
"202 401 OFFCURVE",
"186 286 CURVE",
"194 286 OFFCURVE",
"201 285 OFFCURVE",
"210 285 CURVE SMOOTH"
);
},
{
closed = 1;
nodes = (
"219 296 LINE",
"235 410 LINE",
"238 382 OFFCURVE",
"243 344 OFFCURVE",
"248 296 CURVE"
);
}
);
width = 434;
}
);
leftKerningGroup = A;
note = Acircumflex;
rightKerningGroup = A;
unicode = 00C2;
},
{
glyphname = Adieresis;
layers = (
{
hints = (
{
horizontal = 1;
place = "{-31, 32}";
type = Stem;
},
{
horizontal = 1;
place = "{139, 30}";
type = Stem;
},
{
horizontal = 1;
place = "{285, 11}";
type = Stem;
},
{
horizontal = 1;
place = "{728.5, 30.5}";
type = Stem;
},
{
horizontal = 1;
place = "{866, 11}";
type = Stem;
},
{
place = "{56, 10}";
type = Stem;
},
{
place = "{177, 10}";
type = Stem;
},
{
place = "{230, 10}";
type = Stem;
},
{
place = "{273.88, 10.96}";
type = Stem;
},
{
place = "{351, 10}";
type = Stem;
},
{
place = "{171, 36}";
type = Stem;
},
{
place = "{345, 36}";
type = Stem;
},
{
horizontal = 1;
place = "{-35, 30}";
type = Stem;
},
{
horizontal = 1;
place = "{701, 15}";
type = Stem;
},
{
place = "{248, 12}";
type = Stem;
}
);
layerId = "D68BD575-7350-49C7-85EB-1FC0FDA2B601";
paths = (
{
closed = 1;
nodes = (
"198 728 LINE",
"201 752 OFFCURVE",
"207 842 OFFCURVE",
"207 847 CURVE",
"200 850 OFFCURVE",
"194 850 OFFCURVE",
"187 853 CURVE",
"187 867 LINE",
"172 874 OFFCURVE",
"150 877 OFFCURVE",
"129 877 CURVE SMOOTH",
"104 877 OFFCURVE",
"74 873 OFFCURVE",
"58 868 CURVE",
"58 852 OFFCURVE",
"56 828 OFFCURVE",
"56 803 CURVE SMOOTH",
"56 784 OFFCURVE",
"57 764 OFFCURVE",
"60 749 CURVE",
"77 749 LINE",
"77 742 OFFCURVE",
"79 736 OFFCURVE",
"80 729 CURVE"
);
},
{
closed = 1;
nodes = (
"372 728 LINE",
"375 752 OFFCURVE",
"381 842 OFFCURVE",
"381 847 CURVE",
"374 850 OFFCURVE",
"368 850 OFFCURVE",
"361 853 CURVE",
"361 867 LINE",
"346 874 OFFCURVE",
"324 877 OFFCURVE",
"303 877 CURVE SMOOTH",
"278 877 OFFCURVE",
"248 873 OFFCURVE",
"232 868 CURVE",
"232 852 OFFCURVE",
"230 828 OFFCURVE",
"230 803 CURVE SMOOTH",
"230 784 OFFCURVE",
"231 764 OFFCURVE",
"234 749 CURVE",
"251 749 LINE",
"251 742 OFFCURVE",
"253 736 OFFCURVE",
"254 729 CURVE"
);
},
{
closed = 1;
nodes = (
"169 758 LINE",
"72 759 LINE",
"69 759 LINE",
"67 769 OFFCURVE",
"66 782 OFFCURVE",
"66 799 CURVE SMOOTH",
"66 823 OFFCURVE",
"68 849 OFFCURVE",
"68 860 CURVE",
"81 864 OFFCURVE",
"106 866 OFFCURVE",
"129 866 CURVE SMOOTH",
"149 866 OFFCURVE",
"168 865 OFFCURVE",
"177 861 CURVE",
"177 859 OFFCURVE",
"171 778 OFFCURVE",
"171 760 CURVE SMOOTH",
"171 759 LINE"
);
},
{
closed = 1;
nodes = (
"343 758 LINE",
"246 759 LINE",
"243 759 LINE",
"241 769 OFFCURVE",
"240 782 OFFCURVE",
"240 799 CURVE SMOOTH",
"240 823 OFFCURVE",
"242 849 OFFCURVE",
"242 860 CURVE",
"255 864 OFFCURVE",
"280 866 OFFCURVE",
"303 866 CURVE SMOOTH",
"323 866 OFFCURVE",
"342 865 OFFCURVE",
"351 861 CURVE",
"351 859 OFFCURVE",
"345 778 OFFCURVE",
"345 760 CURVE SMOOTH",
"345 758 LINE"
);
},
{
closed = 1;
nodes = (
"392 333 LINE SMOOTH",
"376 402 OFFCURVE",
"316 649 OFFCURVE",
"308 696 CURVE",
"303 695 OFFCURVE",
"298 695 OFFCURVE",
"293 694 CURVE",
"290 703 OFFCURVE",
"289 711 OFFCURVE",
"288 716 CURVE",
"172 705 OFFCURVE",
"184 714 OFFCURVE",
"149 709 CURVE",
"72 453 OFFCURVE",
"26 186 OFFCURVE",
"5 66 CURVE SMOOTH",
"-9 -8 LINE",
"14 -8 LINE",
"11 -28 LINE",
"64 -29 LINE SMOOTH",
"111 -30 OFFCURVE",
"136 -30 OFFCURVE",
"153 -31 CURVE",
"166 -31 OFFCURVE",
"170 -29 OFFCURVE",
"175 -29 CURVE",
"204 24 OFFCURVE",
"204 96 OFFCURVE",
"220 138 CURVE",
"235 138 OFFCURVE",
"235 139 OFFCURVE",
"248 139 CURVE SMOOTH",
"263 139 OFFCURVE",
"271 67 OFFCURVE",
"295 -5 CURVE",
"306 -8 OFFCURVE",
"308 -6 OFFCURVE",
"315 -25 CURVE",
"346 -32 OFFCURVE",
"376 -35 OFFCURVE",
"405 -35 CURVE SMOOTH",
"424 -35 OFFCURVE",
"446 -32 OFFCURVE",
"469 -28 CURVE"
);
},
{
closed = 1;
nodes = (
"437 1 LINE",
"437 0 LINE",
"421 -3 OFFCURVE",
"404 -5 OFFCURVE",
"385 -5 CURVE SMOOTH",
"356 -5 OFFCURVE",
"329 -2 OFFCURVE",
"303 4 CURVE",
"302 4 LINE",
"286 47 OFFCURVE",
"273 128 OFFCURVE",
"255 167 CURVE",
"246 168 OFFCURVE",
"240 169 OFFCURVE",
"235 169 CURVE SMOOTH",
"222 169 LINE SMOOTH",
"215 169 OFFCURVE",
"208 168 OFFCURVE",
"193 168 CURVE",
"174 126 OFFCURVE",
"173 44 OFFCURVE",
"149 1 CURVE",
"146 0 LINE",
"144 -1 OFFCURVE",
"140 -1 OFFCURVE",
"133 -1 CURVE SMOOTH",
"116 -1 OFFCURVE",
"86 1 OFFCURVE",
"30 1 CURVE SMOOTH",
"6 1 LINE SMOOTH",
"5 1 OFFCURVE",
"5 1 OFFCURVE",
"4 2 CURVE",
"12 30 OFFCURVE",
"61 380 OFFCURVE",
"157 700 CURVE",
"160 701 OFFCURVE",
"165 701 OFFCURVE",
"172 701 CURVE SMOOTH",
"193 701 LINE SMOOTH",
"210 701 OFFCURVE",
"236 701 OFFCURVE",
"280 705 CURVE",
"292 653 OFFCURVE",
"346 418 OFFCURVE",
"362 351 CURVE SMOOTH"
);
},
{
closed = 1;
nodes = (
"226 285 OFFCURVE",
"243 286 OFFCURVE",
"260 286 CURVE",
"241 437 OFFCURVE",
"231 495 OFFCURVE",
"222 495 CURVE SMOOTH",
"210 495 OFFCURVE",
"202 401 OFFCURVE",
"186 286 CURVE",
"194 286 OFFCURVE",
"201 285 OFFCURVE",
"210 285 CURVE SMOOTH"
);
},
{
closed = 1;
nodes = (
"219 296 LINE",
"235 410 LINE",
"238 382 OFFCURVE",
"243 344 OFFCURVE",
"248 296 CURVE"
);
}
);
width = 434;
}
);
leftKerningGroup = A;
note = Adieresis;
rightKerningGroup = A;
unicode = 00C4;
},
{
glyphname = Agrave;
layers = (
{
hints = (
{
horizontal = 1;
place = "{-31, 32}";
type = Stem;
},
{
horizontal = 1;
place = "{139, 30}";
type = Stem;
},
{
horizontal = 1;
place = "{285, 11}";
type = Stem;
},
{
horizontal = 1;
place = "{701, 15}";
type = Stem;
},
{
place = "{273.88, 10.96}";
type = Stem;
},
{
horizontal = 1;
place = "{718, 30}";
type = Stem;
},
{
horizontal = 1;
place = "{-35, 30}";
type = Stem;
},
{
place = "{-8, 12}";
type = Stem;
},
{
place = "{248, 12}";
type = Stem;
}
);
layerId = "D68BD575-7350-49C7-85EB-1FC0FDA2B601";
paths = (
{
closed = 1;
nodes = (
"40 847 LINE",
"49 838 OFFCURVE",
"65 818 OFFCURVE",
"100 789 CURVE",
"100 790 LINE",
"125 769 OFFCURVE",
"151 744 OFFCURVE",
"170 721 CURVE",
"191 718 OFFCURVE",
"207 718 OFFCURVE",
"224 718 CURVE SMOOTH",
"263 718 OFFCURVE",
"308 723 OFFCURVE",
"331 728 CURVE",
"324 733 OFFCURVE",
"318 739 OFFCURVE",
"310 747 CURVE",
"311 748 LINE",
"250 796 OFFCURVE",
"189 876 OFFCURVE",
"122 930 CURVE"
);
},
{
closed = 1;
nodes = (
"54 847 LINE",
"123 917 LINE",
"170 880 OFFCURVE",
"244 798 OFFCURVE",
"290 754 CURVE",
"277 750 OFFCURVE",
"240 748 OFFCURVE",
"204 748 CURVE SMOOTH",
"185 748 OFFCURVE",
"171 747 OFFCURVE",
"156 750 CURVE",
"142 769 OFFCURVE",
"74 827 OFFCURVE",
"55 846 CURVE SMOOTH"
);
},
{
closed = 1;
nodes = (
"392 333 LINE SMOOTH",
"376 401 OFFCURVE",
"324 643 OFFCURVE",
"308 696 CURVE",
"303 695 OFFCURVE",
"298 695 OFFCURVE",
"294 694 CURVE",
"291 703 OFFCURVE",
"289 711 OFFCURVE",
"288 716 CURVE",
"172 705 OFFCURVE",
"184 714 OFFCURVE",
"149 709 CURVE",
"53 384 OFFCURVE",
"-4 19 OFFCURVE",
"-8 -8 CURVE",
"14 -8 LINE",
"12 -28 LINE",
"64 -29 LINE SMOOTH",
"111 -30 OFFCURVE",
"136 -30 OFFCURVE",
"153 -31 CURVE",
"166 -31 OFFCURVE",
"170 -29 OFFCURVE",
"175 -29 CURVE",
"204 24 OFFCURVE",
"204 96 OFFCURVE",
"220 138 CURVE",
"235 138 OFFCURVE",
"235 139 OFFCURVE",
"248 139 CURVE SMOOTH",
"263 139 OFFCURVE",
"271 67 OFFCURVE",
"295 -5 CURVE",
"306 -8 OFFCURVE",
"308 -6 OFFCURVE",
"315 -25 CURVE",
"346 -32 OFFCURVE",
"376 -35 OFFCURVE",
"405 -35 CURVE SMOOTH",
"424 -35 OFFCURVE",
"446 -32 OFFCURVE",
"469 -28 CURVE"
);
},
{
closed = 1;
nodes = (
"437 1 LINE",
"437 0 LINE",
"421 -3 OFFCURVE",
"404 -5 OFFCURVE",
"385 -5 CURVE SMOOTH",
"356 -5 OFFCURVE",
"329 -2 OFFCURVE",
"303 4 CURVE",
"302 4 LINE",
"286 47 OFFCURVE",
"273 128 OFFCURVE",
"255 167 CURVE",
"246 168 OFFCURVE",
"240 169 OFFCURVE",
"235 169 CURVE SMOOTH",
"222 169 LINE SMOOTH",
"215 169 OFFCURVE",
"208 168 OFFCURVE",
"193 168 CURVE",
"174 126 OFFCURVE",
"173 44 OFFCURVE",
"149 1 CURVE",
"146 0 LINE",
"144 -1 OFFCURVE",
"140 -1 OFFCURVE",
"133 -1 CURVE SMOOTH",
"116 -1 OFFCURVE",
"86 1 OFFCURVE",
"30 1 CURVE SMOOTH",
"6 1 LINE SMOOTH",
"5 1 OFFCURVE",
"5 1 OFFCURVE",
"4 2 CURVE",
"8 29 OFFCURVE",
"61 381 OFFCURVE",
"157 700 CURVE",
"160 701 OFFCURVE",
"165 701 OFFCURVE",
"172 701 CURVE SMOOTH",
"193 701 LINE SMOOTH",
"210 701 OFFCURVE",
"236 701 OFFCURVE",
"280 705 CURVE",
"296 656 OFFCURVE",
"346 418 OFFCURVE",
"362 351 CURVE SMOOTH"
);
},
{
closed = 1;
nodes = (
"226 285 OFFCURVE",
"243 286 OFFCURVE",
"260 286 CURVE",
"241 437 OFFCURVE",
"231 495 OFFCURVE",
"222 495 CURVE SMOOTH",
"210 495 OFFCURVE",
"202 401 OFFCURVE",
"186 286 CURVE",
"194 286 OFFCURVE",
"201 285 OFFCURVE",
"210 285 CURVE SMOOTH"
);
},
{
closed = 1;
nodes = (
"219 296 LINE",
"235 410 LINE",
"238 382 OFFCURVE",
"243 344 OFFCURVE",
"248 296 CURVE"
);
}
);
width = 434;
}
);
leftKerningGroup = A;
note = Agrave;
rightKerningGroup = A;
unicode = 00C0;
},
{
glyphname = Aring;
layers = (
{
hints = (
{
horizontal = 1;
place = "{-35, 30}";
type = Stem;
},
{
horizontal = 1;
place = "{721, 30}";
type = Stem;
},
{
horizontal = 1;
place = "{795, 10}";
type = Stem;
},
{
horizontal = 1;
place = "{861, 30}";
type = Stem;
},
{
horizontal = 1;
place = "{936, 9}";
type = Stem;
},
{
place = "{114, 10}";
type = Stem;
},
{
place = "{169, 30}";
type = Stem;
},
{
place = "{252, 10}";
type = Stem;
},
{
place = "{306, 30}";
type = Stem;
},
{
horizontal = 1;
place = "{-31, 32}";
type = Stem;
},
{
horizontal = 1;
place = "{139, 30}";
type = Stem;
},
{
horizontal = 1;
place = "{701, 15}";
type = Stem;
},
{
place = "{273.88, 10.96}";
type = Stem;
},
{
horizontal = 1;
place = "{285, 11}";
type = Stem;
},
{
place = "{248, 12}";
type = Stem;
}
);
layerId = "D68BD575-7350-49C7-85EB-1FC0FDA2B601";
paths = (
{
closed = 1;
nodes = (
"321 753 LINE",
"332 777 OFFCURVE",
"336 804 OFFCURVE",
"336 831 CURVE SMOOTH",
"336 862 OFFCURVE",
"335 890 OFFCURVE",
"308 907 CURVE",
"308 909 LINE",
"287 938 OFFCURVE",
"243 945 OFFCURVE",
"210 945 CURVE SMOOTH",
"182 945 OFFCURVE",
"153 937 OFFCURVE",
"133 921 CURVE",
"117 898 OFFCURVE",
"114 873 OFFCURVE",
"114 845 CURVE SMOOTH",
"114 809 OFFCURVE",
"117 768 OFFCURVE",
"145 751 CURVE",
"164 720 OFFCURVE",
"194 721 OFFCURVE",
"225 721 CURVE SMOOTH",
"255 721 OFFCURVE",
"299 721 OFFCURVE",
"320 752 CURVE"
);
},
{
closed = 1;
nodes = (
"306 825 OFFCURVE",
"301 801 OFFCURVE",
"292 777 CURVE",
"277 751 OFFCURVE",
"229 751 OFFCURVE",
"204 751 CURVE SMOOTH",
"126 751 OFFCURVE",
"124 790 OFFCURVE",
"124 845 CURVE SMOOTH",
"124 910 OFFCURVE",
"147 936 OFFCURVE",
"204 936 CURVE SMOOTH",
"234 936 OFFCURVE",
"279 931 OFFCURVE",
"298 906 CURVE",
"303 887 OFFCURVE",
"306 868 OFFCURVE",
"306 850 CURVE SMOOTH"
);
},
{
closed = 1;
nodes = (
"205 891 OFFCURVE",
"195 889 OFFCURVE",
"186 885 CURVE",
"171 876 OFFCURVE",
"169 861 OFFCURVE",
"169 848 CURVE SMOOTH",
"169 824 OFFCURVE",
"172 795 OFFCURVE",
"204 795 CURVE SMOOTH",
"214 795 LINE",
"243 798 OFFCURVE",
"262 796 OFFCURVE",
"262 849 CURVE SMOOTH",
"262 885 OFFCURVE",
"236 891 OFFCURVE",
"216 891 CURVE SMOOTH"
);
},
{
closed = 1;
nodes = (
"210 856 LINE",
"219 859 OFFCURVE",
"227 861 OFFCURVE",
"236 861 CURVE SMOOTH",
"249 861 OFFCURVE",
"252 860 OFFCURVE",
"252 849 CURVE SMOOTH",
"252 828 OFFCURVE",
"253 808 OFFCURVE",
"220 805 CURVE",
"200 805 LINE",
"199 812 OFFCURVE",
"199 818 OFFCURVE",
"199 825 CURVE SMOOTH",
"199 836 OFFCURVE",
"200 848 OFFCURVE",
"211 857 CURVE"
);
},
{
closed = 1;
nodes = (
"392 333 LINE SMOOTH",
"376 402 OFFCURVE",
"316 649 OFFCURVE",
"308 696 CURVE",
"303 695 OFFCURVE",
"298 695 OFFCURVE",
"293 694 CURVE",
"290 703 OFFCURVE",
"289 711 OFFCURVE",
"288 716 CURVE",
"172 705 OFFCURVE",
"184 714 OFFCURVE",
"149 709 CURVE",
"72 453 OFFCURVE",
"26 186 OFFCURVE",
"5 66 CURVE SMOOTH",
"-9 -8 LINE",
"14 -8 LINE",
"11 -28 LINE",
"64 -29 LINE SMOOTH",
"111 -30 OFFCURVE",
"136 -30 OFFCURVE",
"153 -31 CURVE",
"166 -31 OFFCURVE",
"170 -29 OFFCURVE",
"175 -29 CURVE",
"204 24 OFFCURVE",
"204 96 OFFCURVE",
"220 138 CURVE",
"235 138 OFFCURVE",
"235 139 OFFCURVE",
"248 139 CURVE SMOOTH",
"263 139 OFFCURVE",
"271 67 OFFCURVE",
"295 -5 CURVE",
"306 -8 OFFCURVE",
"308 -6 OFFCURVE",
"315 -25 CURVE",
"346 -32 OFFCURVE",
"376 -35 OFFCURVE",
"405 -35 CURVE SMOOTH",
"424 -35 OFFCURVE",
"446 -32 OFFCURVE",
"469 -28 CURVE"
);
},
{
closed = 1;
nodes = (
"437 1 LINE",
"437 0 LINE",
"421 -3 OFFCURVE",
"404 -5 OFFCURVE",
"385 -5 CURVE SMOOTH",
"356 -5 OFFCURVE",
"329 -2 OFFCURVE",
"303 4 CURVE",
"302 4 LINE",
"286 47 OFFCURVE",
"273 128 OFFCURVE",
"255 167 CURVE",
"246 168 OFFCURVE",
"240 169 OFFCURVE",
"235 169 CURVE SMOOTH",
"222 169 LINE SMOOTH",
"215 169 OFFCURVE",
"208 168 OFFCURVE",
"193 168 CURVE",
"174 126 OFFCURVE",
"173 44 OFFCURVE",
"149 1 CURVE",
"146 0 LINE",
"144 -1 OFFCURVE",
"140 -1 OFFCURVE",
"133 -1 CURVE SMOOTH",
"116 -1 OFFCURVE",
"86 1 OFFCURVE",
"30 1 CURVE SMOOTH",
"6 1 LINE SMOOTH",
"5 1 OFFCURVE",
"5 1 OFFCURVE",
"4 2 CURVE",
"12 30 OFFCURVE",
"61 380 OFFCURVE",
"157 700 CURVE",
"160 701 OFFCURVE",
"165 701 OFFCURVE",
"172 701 CURVE SMOOTH",
"193 701 LINE SMOOTH",
"210 701 OFFCURVE",
"236 701 OFFCURVE",
"280 705 CURVE",
"292 653 OFFCURVE",
"346 418 OFFCURVE",
"362 351 CURVE SMOOTH"
);
},
{
closed = 1;
nodes = (
"226 285 OFFCURVE",
"243 286 OFFCURVE",
"260 286 CURVE",
"241 437 OFFCURVE",
"231 495 OFFCURVE",
"222 495 CURVE SMOOTH",
"210 495 OFFCURVE",
"202 401 OFFCURVE",
"186 286 CURVE",
"194 286 OFFCURVE",
"201 285 OFFCURVE",
"210 285 CURVE SMOOTH"
);
},
{
closed = 1;
nodes = (
"219 296 LINE",
"235 410 LINE",
"238 382 OFFCURVE",
"243 344 OFFCURVE",
"248 296 CURVE"
);
}
);
width = 434;
}
);
leftKerningGroup = A;
note = Aring;
rightKerningGroup = A;
unicode = 00C5;
},
{
glyphname = Atilde;
layers = (
{
hints = (
{
horizontal = 1;
place = "{728, 30}";
type = Stem;
},
{
horizontal = 1;
place = "{793, 30}";
type = Stem;
},
{
place = "{134, 26}";
type = Stem;
},
{
horizontal = 1;
place = "{719, 30}";
type = Stem;
},
{
horizontal = 1;
place = "{847, 10}";
type = Stem;
},
{
horizontal = 1;
place = "{913, 10}";
type = Stem;
},
{
place = "{329, 7}";
type = Stem;
},
{
place = "{421, 9.5}";
type = Stem;
},
{
horizontal = 1;
place = "{921, 10}";
type = Stem;
},
{
place = "{273.88, 10.96}";
type = Stem;
},
{
horizontal = 1;
place = "{-35, 30}";
type = Stem;
},
{
horizontal = 1;
place = "{701, 15}";
type = Stem;
},
{
horizontal = 1;
place = "{-31, 32}";
type = Stem;
},
{
horizontal = 1;
place = "{139, 30}";
type = Stem;
},
{
horizontal = 1;
place = "{285, 11}";
type = Stem;
},
{
place = "{248, 12}";
type = Stem;
}
);
layerId = "D68BD575-7350-49C7-85EB-1FC0FDA2B601";
paths = (
{
closed = 1;
nodes = (
"164 738 LINE",
"161 745 OFFCURVE",
"160 752 OFFCURVE",
"160 757 CURVE SMOOTH",
"160 761 OFFCURVE",
"161 766 OFFCURVE",
"163 772 CURVE",
"163 771 LINE",
"166 777 LINE",
"165 776 LINE",
"174 788 OFFCURVE",
"194 793 OFFCURVE",
"207 793 CURVE",
"210 792 OFFCURVE",
"213 792 OFFCURVE",
"216 791 CURVE",
"232 752 OFFCURVE",
"280 719 OFFCURVE",
"327 719 CURVE SMOOTH",
"407 719 OFFCURVE",
"451 805 OFFCURVE",
"451 873 CURVE SMOOTH",
"451 880 OFFCURVE",
"451 884 OFFCURVE",
"450 891 CURVE",
"450 890 LINE",
"448 903 LINE",
"444 903 OFFCURVE",
"438 902 OFFCURVE",
"431 902 CURVE",
"431 905 OFFCURVE",
"430 907 OFFCURVE",
"430 910 CURVE",
"428 923 LINE",
"395 923 OFFCURVE",
"374 924 OFFCURVE",
"329 919 CURVE",
"324 900 OFFCURVE",
"303 857 OFFCURVE",
"282 857 CURVE SMOOTH",
"275 857 OFFCURVE",
"269 859 OFFCURVE",
"266 866 CURVE",
"266 865 LINE",
"242 897 OFFCURVE",
"202 931 OFFCURVE",
"159 931 CURVE SMOOTH",
"67 931 OFFCURVE",
"24 828 OFFCURVE",
"3 746 CURVE",
"10 746 OFFCURVE",
"18 747 OFFCURVE",
"29 747 CURVE",
"26 739 OFFCURVE",
"24 733 OFFCURVE",
"23 726 CURVE",
"40 727 OFFCURVE",
"71 728 OFFCURVE",
"86 728 CURVE SMOOTH",
"113 728 OFFCURVE",
"139 727 OFFCURVE",
"152 724 CURVE"
);
},
{
closed = 1;
nodes = (
"134 754 LINE",
"121 757 OFFCURVE",
"93 758 OFFCURVE",
"66 758 CURVE SMOOTH",
"51 758 OFFCURVE",
"34 758 OFFCURVE",
"17 757 CURVE",
"36 826 OFFCURVE",
"74 921 OFFCURVE",
"158 921 CURVE SMOOTH",
"230 921 OFFCURVE",
"241 847 OFFCURVE",
"282 847 CURVE SMOOTH",
"309 847 OFFCURVE",
"330 890 OFFCURVE",
"336 910 CURVE",
"363 913 OFFCURVE",
"390 912 OFFCURVE",
"418 913 CURVE",
"420 910 LINE",
"421 903 OFFCURVE",
"421 898 OFFCURVE",
"421 891 CURVE SMOOTH",
"421 824 OFFCURVE",
"381 749 OFFCURVE",
"305 749 CURVE SMOOTH",
"270 749 OFFCURVE",
"238 765 OFFCURVE",
"223 800 CURVE",
"215 812 OFFCURVE",
"205 823 OFFCURVE",
"188 823 CURVE SMOOTH",
"173 823 OFFCURVE",
"148 818 OFFCURVE",
"137 801 CURVE",
"134 795 LINE",
"131 788 OFFCURVE",
"130 781 OFFCURVE",
"130 775 CURVE SMOOTH",
"130 769 OFFCURVE",
"131 762 OFFCURVE",
"134 755 CURVE"
);
},
{
closed = 1;
nodes = (
"392 333 LINE SMOOTH",
"376 401 OFFCURVE",
"324 643 OFFCURVE",
"308 696 CURVE",
"303 695 OFFCURVE",
"298 695 OFFCURVE",
"294 694 CURVE",
"291 703 OFFCURVE",
"289 711 OFFCURVE",
"288 716 CURVE",
"172 705 OFFCURVE",
"184 714 OFFCURVE",
"149 709 CURVE",
"72 453 OFFCURVE",
"26 186 OFFCURVE",
"5 66 CURVE SMOOTH",
"-9 -8 LINE",
"14 -8 LINE",
"11 -28 LINE",
"64 -29 LINE SMOOTH",
"111 -30 OFFCURVE",
"136 -30 OFFCURVE",
"153 -31 CURVE",
"166 -31 OFFCURVE",
"170 -29 OFFCURVE",
"175 -29 CURVE",
"204 24 OFFCURVE",
"204 96 OFFCURVE",
"220 138 CURVE",
"235 138 OFFCURVE",
"235 139 OFFCURVE",
"248 139 CURVE SMOOTH",
"263 139 OFFCURVE",
"271 67 OFFCURVE",
"295 -5 CURVE",
"306 -8 OFFCURVE",
"308 -6 OFFCURVE",
"315 -25 CURVE",
"346 -32 OFFCURVE",
"376 -35 OFFCURVE",
"405 -35 CURVE SMOOTH",
"424 -35 OFFCURVE",
"446 -32 OFFCURVE",
"469 -28 CURVE"
);
},
{
closed = 1;
nodes = (
"437 1 LINE",
"437 0 LINE",
"421 -3 OFFCURVE",
"404 -5 OFFCURVE",
"385 -5 CURVE SMOOTH",
"356 -5 OFFCURVE",
"329 -2 OFFCURVE",
"303 4 CURVE",
"302 4 LINE",
"286 47 OFFCURVE",
"273 128 OFFCURVE",
"255 167 CURVE",
"246 168 OFFCURVE",
"240 169 OFFCURVE",
"235 169 CURVE SMOOTH",
"222 169 LINE SMOOTH",
"215 169 OFFCURVE",
"208 168 OFFCURVE",
"193 168 CURVE",
"174 126 OFFCURVE",
"173 44 OFFCURVE",
"149 1 CURVE",
"146 0 LINE",
"144 -1 OFFCURVE",
"140 -1 OFFCURVE",
"133 -1 CURVE SMOOTH",
"116 -1 OFFCURVE",
"86 1 OFFCURVE",
"30 1 CURVE SMOOTH",
"6 1 LINE SMOOTH",
"5 1 OFFCURVE",
"5 1 OFFCURVE",
"4 2 CURVE",
"12 30 OFFCURVE",
"61 380 OFFCURVE",
"157 700 CURVE",
"160 701 OFFCURVE",
"165 701 OFFCURVE",
"172 701 CURVE SMOOTH",
"193 701 LINE SMOOTH",
"210 701 OFFCURVE",
"236 701 OFFCURVE",
"280 705 CURVE",
"296 656 OFFCURVE",
"346 418 OFFCURVE",
"362 351 CURVE SMOOTH"
);
},
{
closed = 1;
nodes = (
"226 285 OFFCURVE",
"243 286 OFFCURVE",
"260 286 CURVE",
"241 437 OFFCURVE",
"231 495 OFFCURVE",
"222 495 CURVE SMOOTH",
"210 495 OFFCURVE",
"202 401 OFFCURVE",
"186 286 CURVE",
"194 286 OFFCURVE",
"201 285 OFFCURVE",
"210 285 CURVE SMOOTH"
);
},
{
closed = 1;
nodes = (
"219 296 LINE",
"235 410 LINE",
"238 382 OFFCURVE",
"243 344 OFFCURVE",
"248 296 CURVE"
);
}
);
width = 434;
}
);
leftKerningGroup = A;
note = Atilde;
rightKerningGroup = A;
unicode = 00C3;
},
{
glyphname = AE;
layers = (
{
hints = (
{
horizontal = 1;
place = "{-29, 30}";
type = Stem;
},
{
horizontal = 1;
place = "{143, 8}";
type = Stem;
},
{
horizontal = 1;
place = "{283, 8}";
type = Stem;
},
{
horizontal = 1;
place = "{422, 10}";
type = Stem;
},
{
horizontal = 1;
place = "{517, 29}";
type = Stem;
},
{
horizontal = 1;
place = "{701, 8}";
type = Stem;
},
{
place = "{243, 11}";
type = Stem;
},
{
place = "{430, 30}";
type = Stem;
},
{
place = "{556, 30}";
type = Stem;
},
{
place = "{699, 9}";
type = Stem;
},
{
horizontal = 1;
place = "{-10, 12}";
type = Stem;
},
{
place = "{425, 30}";
type = Stem;
},
{
place = "{695, 32}";
type = Stem;
},
{
horizontal = 1;
place = "{88, 30}";
type = Stem;
},
{
place = "{186, 33}";
type = Stem;
}
);
layerId = "D68BD575-7350-49C7-85EB-1FC0FDA2B601";
paths = (
{
closed = 1;
nodes = (
"728 126 LINE",
"721 126 OFFCURVE",
"715 127 OFFCURVE",
"708 127 CURVE",
"708 146 LINE",
"649 151 OFFCURVE",
"602 151 OFFCURVE",
"553 151 CURVE SMOOTH",
"507 151 LINE SMOOTH",
"492 151 OFFCURVE",
"476 151 OFFCURVE",
"461 152 CURVE",
"460 163 OFFCURVE",
"460 173 OFFCURVE",
"460 185 CURVE SMOOTH",
"460 205 OFFCURVE",
"462 225 OFFCURVE",
"463 244 CURVE",
"476 249 OFFCURVE",
"531 239 OFFCURVE",
"584 252 CURVE",
"584 285 OFFCURVE",
"586 316 OFFCURVE",
"586 348 CURVE SMOOTH",
"586 367 OFFCURVE",
"585 387 OFFCURVE",
"581 408 CURVE",
"574 409 OFFCURVE",
"569 410 OFFCURVE",
"564 410 CURVE",
"561 428 LINE",
"534 433 OFFCURVE",
"514 432 OFFCURVE",
"491 432 CURVE SMOOTH",
"455 432 LINE",
"455 444 LINE SMOOTH",
"455 464 OFFCURVE",
"458 486 OFFCURVE",
"458 513 CURVE",
"481 516 OFFCURVE",
"501 517 OFFCURVE",
"524 517 CURVE SMOOTH",
"540 517 OFFCURVE",
"556 516 OFFCURVE",
"571 516 CURVE SMOOTH",
"606 516 LINE SMOOTH",
"645 516 OFFCURVE",
"682 516 OFFCURVE",
"725 527 CURVE",
"725 566 OFFCURVE",
"727 597 OFFCURVE",
"727 632 CURVE SMOOTH",
"727 648 OFFCURVE",
"725 672 OFFCURVE",
"724 688 CURVE",
"717 688 OFFCURVE",
"704 683 OFFCURVE",
"704 708 CURVE",
"696 709 OFFCURVE",
"637 709 OFFCURVE",
"557 709 CURVE SMOOTH",
"433 709 OFFCURVE",
"257 708 OFFCURVE",
"145 703 CURVE",
"-15 37 OFFCURVE",
"44 295 OFFCURVE",
"-10 -11 CURVE",
"-5 -11 OFFCURVE",
"2 -11 OFFCURVE",
"6 -10 CURVE",
"9 -10 OFFCURVE",
"11 -10 OFFCURVE",
"13 -9 CURVE",
"10 -31 LINE",
"38 -31 OFFCURVE",
"63 -27 OFFCURVE",
"90 -27 CURVE SMOOTH",
"117 -27 OFFCURVE",
"142 -29 OFFCURVE",
"169 -29 CURVE",
"182 -16 OFFCURVE",
"191 29 OFFCURVE",
"202 68 CURVE",
"201 67 LINE",
"204 74 OFFCURVE",
"206 81 OFFCURVE",
"209 88 CURVE",
"233 88 OFFCURVE",
"240 88 OFFCURVE",
"247 87 CURVE",
"250 74 OFFCURVE",
"253 61 OFFCURVE",
"257 50 CURVE",
"257 51 LINE",
"261 35 OFFCURVE",
"268 12 OFFCURVE",
"272 -5 CURVE",
"292 -5 OFFCURVE",
"288 -13 OFFCURVE",
"292 -25 CURVE",
"339 -28 OFFCURVE",
"396 -29 OFFCURVE",
"447 -29 CURVE SMOOTH",
"535 -29 OFFCURVE",
"626 -26 OFFCURVE",
"718 -26 CURVE",
"727 13 OFFCURVE",
"729 43 OFFCURVE",
"729 74 CURVE SMOOTH",
"729 87 OFFCURVE",
"729 100 OFFCURVE",
"728 115 CURVE"
);
},
{
closed = 1;
nodes = (
"698 134 LINE",
"699 119 OFFCURVE",
"699 107 OFFCURVE",
"699 94 CURVE SMOOTH",
"699 63 OFFCURVE",
"697 33 OFFCURVE",
"692 6 CURVE",
"690 4 LINE",
"602 4 OFFCURVE",
"513 1 OFFCURVE",
"425 1 CURVE SMOOTH",
"376 1 OFFCURVE",
"327 2 OFFCURVE",
"280 5 CURVE",
"271 44 OFFCURVE",
"259 78 OFFCURVE",
"252 115 CURVE",
"252 116 LINE",
"218 116 OFFCURVE",
"243 118 OFFCURVE",
"183 118 CURVE",
"180 116 LINE",
"169 79 OFFCURVE",
"156 39 OFFCURVE",
"148 3 CURVE",
"145 1 LINE",
"118 1 OFFCURVE",
"90 2 OFFCURVE",
"62 2 CURVE SMOOTH",
"42 2 OFFCURVE",
"22 -1 OFFCURVE",
"2 -1 CURVE",
"15 75 OFFCURVE",
"20 113 OFFCURVE",
"25 141 CURVE SMOOTH",
"31 177 LINE SMOOTH",
"39 230 OFFCURVE",
"58 283 OFFCURVE",
"153 693 CURVE",
"334 701 OFFCURVE",
"677 701 OFFCURVE",
"695 701 CURVE",
"695 699 LINE",
"698 683 OFFCURVE",
"697 667 OFFCURVE",
"697 652 CURVE SMOOTH",
"697 620 OFFCURVE",
"695 588 OFFCURVE",
"695 557 CURVE SMOOTH",
"695 555 LINE",
"662 547 OFFCURVE",
"627 546 OFFCURVE",
"592 546 CURVE SMOOTH",
"564 546 OFFCURVE",
"537 547 OFFCURVE",
"509 547 CURVE SMOOTH",
"482 547 OFFCURVE",
"455 546 OFFCURVE",
"428 542 CURVE",
"428 529 LINE SMOOTH",
"428 508 OFFCURVE",
"425 487 OFFCURVE",
"425 464 CURVE SMOOTH",
"425 449 OFFCURVE",
"426 437 OFFCURVE",
"431 425 CURVE",
"446 422 OFFCURVE",
"459 422 OFFCURVE",
"475 422 CURVE SMOOTH",
"507 422 LINE SMOOTH",
"522 422 OFFCURVE",
"537 421 OFFCURVE",
"552 419 CURVE",
"555 402 OFFCURVE",
"556 385 OFFCURVE",
"556 366 CURVE SMOOTH",
"556 338 OFFCURVE",
"554 308 OFFCURVE",
"554 280 CURVE",
"515 272 OFFCURVE",
"444 281 OFFCURVE",
"433 270 CURVE",
"430 251 OFFCURVE",
"430 228 OFFCURVE",
"430 205 CURVE SMOOTH",
"430 180 OFFCURVE",
"432 158 OFFCURVE",
"439 143 CURVE",
"440 143 LINE",
"528 139 OFFCURVE",
"618 144 OFFCURVE",
"698 137 CURVE"
);
},
{
closed = 1;
nodes = (
"245 283 OFFCURVE",
"251 284 OFFCURVE",
"254 287 CURVE",
"247 330 OFFCURVE",
"230 375 OFFCURVE",
"219 418 CURVE",
"218 421 LINE",
"194 355 OFFCURVE",
"191 343 OFFCURVE",
"186 284 CURVE",
"188 284 LINE",
"191 285 OFFCURVE",
"195 285 OFFCURVE",
"200 285 CURVE SMOOTH",
"212 285 OFFCURVE",
"225 283 OFFCURVE",
"237 283 CURVE SMOOTH"
);
},
{
closed = 1;
nodes = (
"219 294 LINE",
"222 314 OFFCURVE",
"222 328 OFFCURVE",
"229 347 CURVE",
"234 327 OFFCURVE",
"240 308 OFFCURVE",
"243 292 CURVE",
"240 292 OFFCURVE",
"241 291 OFFCURVE",
"238 291 CURVE SMOOTH",
"232 291 OFFCURVE",
"226 292 OFFCURVE",
"220 294 CURVE"
);
}
);
width = 716;
}
);
leftKerningGroup = AE;
note = AE;
rightKerningGroup = AE;
unicode = 00C6;
},
{
glyphname = B;
layers = (
{
hints = (
{
horizontal = 1;
place = "{-35, 30}";
type = Stem;
},
{
horizontal = 1;
place = "{139, 10}";
type = Stem;
},
{
horizontal = 1;
place = "{250, 31}";
type = Stem;
},
{
horizontal = 1;
place = "{417, 10}";
type = Stem;
},
{
horizontal = 1;
place = "{521, 30}";
type = Stem;
},
{
horizontal = 1;
place = "{715, 10}";
type = Stem;
},
{
place = "{30, 10}";
type = Stem;
},
{
place = "{178, 30}";
type = Stem;
},
{
place = "{301, 10}";
type = Stem;
},
{
place = "{466, 30}";
type = Stem;
},
{
horizontal = 1;
place = "{-8, 10}";
type = Stem;
},
{
place = "{439, 30}";
type = Stem;
},
{
place = "{172, 30}";
type = Stem;
}
);
layerId = "D68BD575-7350-49C7-85EB-1FC0FDA2B601";
paths = (
{
closed = 1;
nodes = (
"423 318 LINE",
"420 321 OFFCURVE",
"419 323 OFFCURVE",
"419 325 CURVE SMOOTH",
"419 327 LINE",
"446 374 OFFCURVE",
"469 429 OFFCURVE",
"469 488 CURVE SMOOTH",
"469 655 OFFCURVE",
"335 725 OFFCURVE",
"196 725 CURVE SMOOTH",
"140 725 OFFCURVE",
"83 716 OFFCURVE",
"32 701 CURVE",
"32 565 LINE SMOOTH",
"32 453 OFFCURVE",
"30 346 OFFCURVE",
"30 235 CURVE SMOOTH",
"30 158 OFFCURVE",
"31 76 OFFCURVE",
"34 -3 CURVE",
"43 -6 OFFCURVE",
"49 -7 OFFCURVE",
"53 -8 CURVE",
"53 -33 OFFCURVE",
"77 -28 OFFCURVE",
"81 -28 CURVE SMOOTH",
"85 -28 LINE",
"147 -31 LINE",
"146 -31 LINE",
"177 -34 OFFCURVE",
"211 -35 OFFCURVE",
"243 -35 CURVE SMOOTH",
"364 -35 OFFCURVE",
"496 -7 OFFCURVE",
"496 161 CURVE SMOOTH",
"496 229 OFFCURVE",
"460 272 OFFCURVE",
"423 317 CURVE"
);
},
{
closed = 1;
nodes = (
"387 341 OFFCURVE",
"390 336 OFFCURVE",
"395 331 CURVE",
"431 287 OFFCURVE",
"466 245 OFFCURVE",
"466 181 CURVE SMOOTH",
"466 21 OFFCURVE",
"340 -5 OFFCURVE",
"223 -5 CURVE SMOOTH",
"168 -5 OFFCURVE",
"113 1 OFFCURVE",
"66 2 CURVE SMOOTH",
"54 2 LINE SMOOTH",
"51 2 OFFCURVE",
"48 3 OFFCURVE",
"44 4 CURVE",
"41 81 OFFCURVE",
"40 157 OFFCURVE",
"40 233 CURVE SMOOTH",
"40 341 OFFCURVE",
"42 445 OFFCURVE",
"42 553 CURVE SMOOTH",
"42 600 OFFCURVE",
"42 645 OFFCURVE",
"41 692 CURVE",
"42 693 LINE",
"89 706 OFFCURVE",
"144 715 OFFCURVE",
"196 715 CURVE SMOOTH",
"321 715 OFFCURVE",
"439 664 OFFCURVE",
"439 508 CURVE SMOOTH",
"439 452 OFFCURVE",
"417 397 OFFCURVE",
"390 352 CURVE",
"388 349 OFFCURVE",
"387 346 OFFCURVE",
"387 344 CURVE SMOOTH"
);
},
{
closed = 1;
nodes = (
"258 417 OFFCURVE",
"285 423 OFFCURVE",
"300 450 CURVE",
"307 461 OFFCURVE",
"313 476 OFFCURVE",
"313 491 CURVE SMOOTH",
"313 541 OFFCURVE",
"253 551 OFFCURVE",
"217 551 CURVE SMOOTH",
"202 551 OFFCURVE",
"189 549 OFFCURVE",
"180 544 CURVE",
"180 531 LINE SMOOTH",
"180 514 OFFCURVE",
"178 494 OFFCURVE",
"178 471 CURVE SMOOTH",
"178 455 OFFCURVE",
"179 437 OFFCURVE",
"184 420 CURVE",
"197 418 OFFCURVE",
"211 417 OFFCURVE",
"227 417 CURVE SMOOTH"
);
},
{
closed = 1;
nodes = (
"303 478 OFFCURVE",
"298 466 OFFCURVE",
"291 455 CURVE",
"279 432 OFFCURVE",
"254 427 OFFCURVE",
"227 427 CURVE SMOOTH",
"209 427 LINE",
"209 430 OFFCURVE",
"208 430 OFFCURVE",
"208 433 CURVE SMOOTH",
"208 457 OFFCURVE",
"211 488 OFFCURVE",
"211 508 CURVE SMOOTH",
"211 518 LINE",
"219 521 OFFCURVE",
"226 521 OFFCURVE",
"237 521 CURVE SMOOTH",
"250 521 OFFCURVE",
"264 520 OFFCURVE",
"279 517 CURVE",
"278 517 LINE",
"293 513 OFFCURVE",
"303 508 OFFCURVE",
"303 491 CURVE SMOOTH"
);
},
{
closed = 1;
nodes = (
"253 139 OFFCURVE",
"282 142 OFFCURVE",
"301 165 CURVE SMOOTH",
"308 174 OFFCURVE",
"311 186 OFFCURVE",
"311 201 CURVE SMOOTH",
"311 288 OFFCURVE",
"230 276 OFFCURVE",
"183 281 CURVE",
"176 260 OFFCURVE",
"172 229 OFFCURVE",
"172 201 CURVE SMOOTH",
"172 178 OFFCURVE",
"175 156 OFFCURVE",
"186 141 CURVE",
"188 140 LINE",
"199 140 OFFCURVE",
"212 139 OFFCURVE",
"224 139 CURVE SMOOTH"
);
},
{
closed = 1;
nodes = (
"301 188 OFFCURVE",
"298 178 OFFCURVE",
"293 171 CURVE",
"277 152 OFFCURVE",
"252 149 OFFCURVE",
"225 149 CURVE SMOOTH",
"198 149 OFFCURVE",
"202 160 OFFCURVE",
"202 181 CURVE SMOOTH",
"202 204 OFFCURVE",
"207 230 OFFCURVE",
"211 250 CURVE",
"236 246 OFFCURVE",
"267 252 OFFCURVE",
"294 236 CURVE",
"295 235 LINE",
"295 236 LINE",
"298 225 OFFCURVE",
"301 214 OFFCURVE",
"301 201 CURVE SMOOTH"
);
}
);
width = 477;
}
);
note = B;
rightKerningGroup = B;
unicode = 0042;
},
{
glyphname = C;
layers = (
{
hints = (
{
horizontal = 1;
place = "{-44, 30}";
type = Stem;
},
{
horizontal = 1;
place = "{151, 10}";
type = Stem;
},
{
horizontal = 1;
place = "{285, 10}";
type = Stem;
},
{
horizontal = 1;
place = "{385, 30}";
type = Stem;
},
{
horizontal = 1;
place = "{528, 30}";
type = Stem;
},
{
horizontal = 1;
place = "{726, 10}";
type = Stem;
},
{
place = "{21, 10}";
type = Stem;
},
{
place = "{179, 31}";
type = Stem;
},
{
place = "{469, 30}";
type = Stem;
},
{
place = "{472, 30}";
type = Stem;
},
{
place = "{458, 12}";
type = Stem;
}
);
layerId = "D68BD575-7350-49C7-85EB-1FC0FDA2B601";
paths = (
{
closed = 1;
nodes = (
"210 466 OFFCURVE",
"219 514 OFFCURVE",
"220 515 CURVE SMOOTH",
"227 522 OFFCURVE",
"248 528 OFFCURVE",
"263 528 CURVE SMOOTH",
"304 528 OFFCURVE",
"297 491 OFFCURVE",
"300 460 CURVE SMOOTH",
"303 420 OFFCURVE",
"300 415 OFFCURVE",
"322 412 CURVE",
"324 396 LINE",
"359 389 OFFCURVE",
"392 385 OFFCURVE",
"423 385 CURVE SMOOTH",
"444 385 OFFCURVE",
"465 387 OFFCURVE",
"486 392 CURVE",
"497 422 OFFCURVE",
"502 450 OFFCURVE",
"502 475 CURVE SMOOTH",
"502 610 OFFCURVE",
"368 736 OFFCURVE",
"227 736 CURVE SMOOTH",
"119 736 OFFCURVE",
"64 688 OFFCURVE",
"35 607 CURVE",
"35 608 LINE",
"26 589 OFFCURVE",
"22 568 OFFCURVE",
"22 547 CURVE SMOOTH",
"22 543 OFFCURVE",
"23 539 OFFCURVE",
"23 536 CURVE SMOOTH",
"22 455 OFFCURVE",
"21 392 OFFCURVE",
"21 336 CURVE SMOOTH",
"21 244 OFFCURVE",
"23 181 OFFCURVE",
"26 121 CURVE",
"37 17 OFFCURVE",
"142 -44 OFFCURVE",
"244 -44 CURVE SMOOTH",
"392 -44 OFFCURVE",
"499 46 OFFCURVE",
"499 189 CURVE SMOOTH",
"499 213 OFFCURVE",
"496 238 OFFCURVE",
"485 269 CURVE",
"470 272 LINE",
"467 279 OFFCURVE",
"468 282 OFFCURVE",
"465 289 CURVE",
"446 294 OFFCURVE",
"425 295 OFFCURVE",
"404 295 CURVE SMOOTH",
"388 295 OFFCURVE",
"373 294 OFFCURVE",
"357 294 CURVE SMOOTH",
"344 294 OFFCURVE",
"330 295 OFFCURVE",
"316 297 CURVE",
"300 228 OFFCURVE",
"322 161 OFFCURVE",
"250 161 CURVE SMOOTH",
"247 161 OFFCURVE",
"244 162 OFFCURVE",
"241 162 CURVE",
"242 162 LINE",
"204 170 OFFCURVE",
"210 261 OFFCURVE",
"210 328 CURVE SMOOTH"
);
},
{
closed = 1;
nodes = (
"231 558 OFFCURVE",
"204 553 OFFCURVE",
"193 542 CURVE SMOOTH",
"190 539 OFFCURVE",
"179 494 OFFCURVE",
"179 348 CURVE SMOOTH",
"179 276 OFFCURVE",
"172 151 OFFCURVE",
"249 151 CURVE SMOOTH",
"333 151 OFFCURVE",
"310 232 OFFCURVE",
"324 286 CURVE",
"333 285 OFFCURVE",
"342 284 OFFCURVE",
"353 284 CURVE SMOOTH",
"370 284 OFFCURVE",
"387 285 OFFCURVE",
"406 285 CURVE SMOOTH",
"425 285 OFFCURVE",
"443 284 OFFCURVE",
"458 280 CURVE",
"466 256 OFFCURVE",
"469 232 OFFCURVE",
"469 209 CURVE SMOOTH",
"469 72 OFFCURVE",
"365 -14 OFFCURVE",
"224 -14 CURVE SMOOTH",
"138 -14 OFFCURVE",
"44 25 OFFCURVE",
"36 122 CURVE SMOOTH",
"33 182 OFFCURVE",
"31 244 OFFCURVE",
"31 336 CURVE SMOOTH",
"31 392 OFFCURVE",
"32 456 OFFCURVE",
"33 537 CURVE",
"32 540 OFFCURVE",
"32 544 OFFCURVE",
"32 549 CURVE SMOOTH",
"32 569 OFFCURVE",
"37 587 OFFCURVE",
"44 604 CURVE",
"76 695 OFFCURVE",
"142 726 OFFCURVE",
"227 726 CURVE SMOOTH",
"357 726 OFFCURVE",
"472 623 OFFCURVE",
"472 495 CURVE SMOOTH",
"472 470 OFFCURVE",
"468 445 OFFCURVE",
"459 421 CURVE",
"440 417 OFFCURVE",
"421 415 OFFCURVE",
"403 415 CURVE SMOOTH",
"374 415 OFFCURVE",
"344 418 OFFCURVE",
"313 425 CURVE",
"305 477 OFFCURVE",
"320 558 OFFCURVE",
"247 558 CURVE SMOOTH"
);
}
);
width = 488;
}
);
leftKerningGroup = C;
note = C;
rightKerningGroup = C;
unicode = 0043;
},
{
glyphname = Ccedilla;
layers = (
{
hints = (
{
horizontal = 1;
place = "{-157, 31}";
type = Stem;
},
{
horizontal = 1;
place = "{-37, 29}";
type = Stem;
},
{
horizontal = 1;
place = "{145, 10}";
type = Stem;
},
{
horizontal = 1;
place = "{276, 10}";
type = Stem;
},
{
horizontal = 1;
place = "{371, 30}";
type = Stem;
},
{
horizontal = 1;
place = "{510, 30}";
type = Stem;
},
{
horizontal = 1;
place = "{693, 10}";
type = Stem;
},
{
place = "{23, 10}";
type = Stem;
},
{
place = "{176, 30}";
type = Stem;
},
{
place = "{307, 9}";
type = Stem;
},
{
place = "{457, 30}";
type = Stem;
},
{
place = "{141, 10}";
type = Stem;
}
);
layerId = "D68BD575-7350-49C7-85EB-1FC0FDA2B601";
paths = (
{
closed = 1;
nodes = (
"30 538 LINE",
"27 531 OFFCURVE",
"28 529 OFFCURVE",
"28 525 CURVE",
"24 465 OFFCURVE",
"23 402 OFFCURVE",
"23 339 CURVE SMOOTH",
"23 292 OFFCURVE",
"24 237 OFFCURVE",
"25 194 CURVE SMOOTH",
"25 184 LINE SMOOTH",
"28 79 OFFCURVE",
"71 -26 OFFCURVE",
"162 -37 CURVE",
"157 -65 OFFCURVE",
"141 -109 OFFCURVE",
"141 -125 CURVE SMOOTH",
"141 -137 OFFCURVE",
"140 -139 OFFCURVE",
"161 -139 CURVE",
"161 -145 LINE SMOOTH",
"161 -160 OFFCURVE",
"168 -159 OFFCURVE",
"188 -159 CURVE SMOOTH",
"205 -159 OFFCURVE",
"219 -157 OFFCURVE",
"242 -157 CURVE SMOOTH",
"249 -157 OFFCURVE",
"258 -157 OFFCURVE",
"269 -158 CURVE",
"277 -126 OFFCURVE",
"290 -74 OFFCURVE",
"298 -44 CURVE",
"298 -42 OFFCURVE",
"298 -40 OFFCURVE",
"299 -39 CURVE",
"415 -31 OFFCURVE",
"487 72 OFFCURVE",
"487 180 CURVE SMOOTH",
"487 204 OFFCURVE",
"482 231 OFFCURVE",
"474 258 CURVE",
"459 261 OFFCURVE",
"457 261 OFFCURVE",
"454 278 CURVE",
"431 285 OFFCURVE",
"410 286 OFFCURVE",
"387 286 CURVE SMOOTH",
"359 286 OFFCURVE",
"330 284 OFFCURVE",
"307 284 CURVE",
"296 209 OFFCURVE",
"307 155 OFFCURVE",
"245 155 CURVE SMOOTH",
"241 155 OFFCURVE",
"238 155 OFFCURVE",
"236 156 CURVE",
"238 156 LINE",
"202 164 OFFCURVE",
"206 275 OFFCURVE",
"206 329 CURVE SMOOTH",
"206 395 OFFCURVE",
"192 510 OFFCURVE",
"261 510 CURVE SMOOTH",
"304 510 OFFCURVE",
"284 451 OFFCURVE",
"303 400 CURVE",
"320 397 OFFCURVE",
"318 393 OFFCURVE",
"323 380 CURVE",
"358 375 OFFCURVE",
"387 371 OFFCURVE",
"412 371 CURVE SMOOTH",
"430 371 OFFCURVE",
"448 373 OFFCURVE",
"466 377 CURVE",
"484 377 OFFCURVE",
"487 439 OFFCURVE",
"487 452 CURVE SMOOTH",
"487 520 OFFCURVE",
"457 591 OFFCURVE",
"406 635 CURVE",
"357 691 OFFCURVE",
"295 703 OFFCURVE",
"226 703 CURVE SMOOTH",
"182 703 LINE SMOOTH",
"154 703 OFFCURVE",
"122 701 OFFCURVE",
"94 682 CURVE",
"51 646 OFFCURVE",
"34 593 OFFCURVE",
"29 536 CURVE"
);
},
{
closed = 1;
nodes = (
"33 402 OFFCURVE",
"34 464 OFFCURVE",
"38 524 CURVE",
"38 581 OFFCURVE",
"60 641 OFFCURVE",
"103 676 CURVE",
"126 691 OFFCURVE",
"155 693 OFFCURVE",
"182 693 CURVE SMOOTH",
"226 693 LINE SMOOTH",
"262 693 OFFCURVE",
"299 692 OFFCURVE",
"331 679 CURVE SMOOTH",
"409 647 OFFCURVE",
"457 558 OFFCURVE",
"457 472 CURVE SMOOTH",
"457 449 OFFCURVE",
"454 428 OFFCURVE",
"447 408 CURVE",
"444 407 LINE",
"425 402 OFFCURVE",
"409 401 OFFCURVE",
"392 401 CURVE SMOOTH",
"365 401 OFFCURVE",
"340 405 OFFCURVE",
"312 409 CURVE",
"310 409 LINE",
"294 452 OFFCURVE",
"318 540 OFFCURVE",
"240 540 CURVE SMOOTH",
"161 540 OFFCURVE",
"176 419 OFFCURVE",
"176 348 CURVE SMOOTH",
"176 276 OFFCURVE",
"168 145 OFFCURVE",
"244 145 CURVE SMOOTH",
"320 145 OFFCURVE",
"308 218 OFFCURVE",
"316 274 CURVE",
"335 274 OFFCURVE",
"361 276 OFFCURVE",
"388 276 CURVE SMOOTH",
"409 276 OFFCURVE",
"430 275 OFFCURVE",
"446 270 CURVE",
"453 246 OFFCURVE",
"457 223 OFFCURVE",
"457 200 CURVE SMOOTH",
"457 96 OFFCURVE",
"387 -5 OFFCURVE",
"274 -10 CURVE",
"271 -9 LINE",
"263 -38 OFFCURVE",
"252 -90 OFFCURVE",
"241 -125 CURVE",
"241 -127 LINE",
"236 -127 OFFCURVE",
"232 -126 OFFCURVE",
"225 -126 CURVE SMOOTH",
"206 -126 OFFCURVE",
"185 -129 OFFCURVE",
"168 -129 CURVE SMOOTH",
"161 -129 OFFCURVE",
"151 -130 OFFCURVE",
"151 -125 CURVE SMOOTH",
"151 -111 OFFCURVE",
"172 -48 OFFCURVE",
"177 -10 CURVE",
"177 -7 LINE",
"170 -8 OFFCURVE",
"166 -8 OFFCURVE",
"159 -8 CURVE SMOOTH",
"66 -8 OFFCURVE",
"38 92 OFFCURVE",
"35 184 CURVE",
"35 194 LINE",
"34 241 OFFCURVE",
"33 288 OFFCURVE",
"33 339 CURVE SMOOTH"
);
}
);
width = 476;
}
);
leftKerningGroup = C;
note = Ccedilla;
rightKerningGroup = C;
unicode = 00C7;
},
{
glyphname = D;
layers = (
{
hints = (
{
horizontal = 1;
place = "{-25, 27}";
type = Stem;
},
{
horizontal = 1;
place = "{213, 10}";
type = Stem;
},
{
horizontal = 1;
place = "{456, 32}";
type = Stem;
},
{
horizontal = 1;
place = "{702, 10}";
type = Stem;
},
{
place = "{29, 10}";
type = Stem;
},
{
place = "{182, 32}";
type = Stem;
},
{
place = "{319, 10}";
type = Stem;
},
{
place = "{462, 30}";
type = Stem;
}
);
layerId = "D68BD575-7350-49C7-85EB-1FC0FDA2B601";
paths = (
{
closed = 1;
nodes = (
"422 602 LINE",
"397 646 OFFCURVE",
"340 695 OFFCURVE",
"285 711 CURVE",
"272 710 OFFCURVE",
"259 710 OFFCURVE",
"246 710 CURVE SMOOTH",
"215 710 OFFCURVE",
"184 712 OFFCURVE",
"153 712 CURVE SMOOTH",
"114 712 OFFCURVE",
"77 711 OFFCURVE",
"38 700 CURVE",
"34 696 OFFCURVE",
"32 693 OFFCURVE",
"31 690 CURVE",
"30 689 OFFCURVE",
"30 688 OFFCURVE",
"30 687 CURVE SMOOTH",
"31 655 OFFCURVE",
"31 623 OFFCURVE",
"31 590 CURVE SMOOTH",
"31 498 OFFCURVE",
"29 413 OFFCURVE",
"29 326 CURVE SMOOTH",
"29 210 OFFCURVE",
"32 100 OFFCURVE",
"47 -9 CURVE",
"52 -9 OFFCURVE",
"57 -8 OFFCURVE",
"64 -8 CURVE",
"67 -29 LINE",
"152 -28 OFFCURVE",
"257 -28 OFFCURVE",
"345 -25 CURVE",
"397 40 OFFCURVE",
"447 112 OFFCURVE",
"478 200 CURVE",
"490 256 OFFCURVE",
"488 325 OFFCURVE",
"492 386 CURVE",
"491 407 OFFCURVE",
"490 429 OFFCURVE",
"482 453 CURVE",
"483 452 LINE",
"471 505 OFFCURVE",
"452 555 OFFCURVE",
"421 602 CURVE"
);
},
{
closed = 1;
nodes = (
"327 690 OFFCURVE",
"369 656 OFFCURVE",
"393 617 CURVE SMOOTH",
"432 556 OFFCURVE",
"458 479 OFFCURVE",
"462 407 CURVE",
"459 343 OFFCURVE",
"460 280 OFFCURVE",
"448 219 CURVE",
"447 217 LINE",
"420 137 OFFCURVE",
"371 69 OFFCURVE",
"320 5 CURVE",
"232 2 OFFCURVE",
"141 2 OFFCURVE",
"57 2 CURVE",
"56 1 LINE",
"41 102 OFFCURVE",
"39 210 OFFCURVE",
"39 322 CURVE SMOOTH",
"39 411 OFFCURVE",
"41 500 OFFCURVE",
"41 591 CURVE SMOOTH",
"41 623 OFFCURVE",
"41 655 OFFCURVE",
"40 687 CURVE",
"43 691 LINE",
"79 700 OFFCURVE",
"117 702 OFFCURVE",
"156 702 CURVE SMOOTH",
"189 702 OFFCURVE",
"223 700 OFFCURVE",
"255 700 CURVE SMOOTH",
"266 700 OFFCURVE",
"273 701 OFFCURVE",
"284 701 CURVE"
);
},
{
closed = 1;
nodes = (
"254 216 LINE SMOOTH",
"270 216 OFFCURVE",
"290 238 OFFCURVE",
"301 254 CURVE",
"318 281 OFFCURVE",
"329 308 OFFCURVE",
"329 343 CURVE SMOOTH",
"329 403 OFFCURVE",
"312 488 OFFCURVE",
"223 488 CURVE SMOOTH",
"210 488 OFFCURVE",
"197 487 OFFCURVE",
"185 485 CURVE",
"182 485 LINE",
"182 481 LINE",
"183 462 OFFCURVE",
"184 443 OFFCURVE",
"184 420 CURVE SMOOTH",
"184 381 OFFCURVE",
"182 337 OFFCURVE",
"182 293 CURVE SMOOTH",
"182 269 OFFCURVE",
"183 245 OFFCURVE",
"184 222 CURVE",
"192 215 OFFCURVE",
"204 213 OFFCURVE",
"217 213 CURVE SMOOTH",
"229 213 OFFCURVE",
"241 214 OFFCURVE",
"252 216 CURVE"
);
},
{
closed = 1;
nodes = (
"293 260 LINE",
"286 249 OFFCURVE",
"277 238 OFFCURVE",
"265 231 CURVE",
"266 231 LINE",
"262 228 OFFCURVE",
"258 225 OFFCURVE",
"255 225 CURVE SMOOTH",
"254 225 OFFCURVE",
"254 226 OFFCURVE",
"253 226 CURVE",
"242 225 OFFCURVE",
"233 223 OFFCURVE",
"217 223 CURVE SMOOTH",
"212 223 LINE",
"212 228 OFFCURVE",
"211 234 OFFCURVE",
"211 239 CURVE SMOOTH",
"211 290 OFFCURVE",
"214 342 OFFCURVE",
"214 393 CURVE SMOOTH",
"214 413 OFFCURVE",
"213 437 OFFCURVE",
"212 456 CURVE",
"223 457 OFFCURVE",
"232 458 OFFCURVE",
"243 458 CURVE SMOOTH",
"255 458 OFFCURVE",
"267 457 OFFCURVE",
"279 456 CURVE",
"289 451 LINE",
"308 418 OFFCURVE",
"319 370 OFFCURVE",
"319 343 CURVE SMOOTH",
"319 311 OFFCURVE",
"309 283 OFFCURVE",
"293 259 CURVE"
);
}
);
width = 482;
}
);
note = D;
rightKerningGroup = D;
unicode = 0044;
},
{
glyphname = Eth;
layers = (
{
hints = (
{
horizontal = 1;
place = "{-26, 26}";
type = Stem;
},
{
horizontal = 1;
place = "{164, 12}";
type = Stem;
},
{
horizontal = 1;
place = "{262, 10}";
type = Stem;
},
{
horizontal = 1;
place = "{409.5, 10}";
type = Stem;
},
{
horizontal = 1;
place = "{504, 30}";
type = Stem;
},
{
horizontal = 1;
place = "{705, 10}";
type = Stem;
},
{
place = "{-15, 10}";
type = Stem;
},
{
place = "{42, 10}";
type = Stem;
},
{
place = "{169, 29}";
type = Stem;
},
{
place = "{230, 30}";
type = Stem;
},
{
place = "{322, 10}";
type = Stem;
},
{
place = "{461, 30}";
type = Stem;
},
{
horizontal = 1;
place = "{-5.5, 9.5}";
type = Stem;
},
{
horizontal = 1;
place = "{247.5, 30}";
type = Stem;
},
{
horizontal = 1;
place = "{405.5, 9.5}";
type = Stem;
}
);
layerId = "D68BD575-7350-49C7-85EB-1FC0FDA2B601";
paths = (
{
closed = 1;
nodes = (
"-15 420 LINE",
"-15 399 LINE SMOOTH",
"-15 339 OFFCURVE",
"-11 305 OFFCURVE",
"-11 262 CURVE",
"9 262 LINE",
"9 242 LINE",
"42 242 LINE",
"42 163 OFFCURVE",
"43 82 OFFCURVE",
"46 -6 CURVE",
"53 -6 OFFCURVE",
"58 -5 OFFCURVE",
"65 -5 CURVE",
"65 -12 OFFCURVE",
"66 -19 OFFCURVE",
"66 -26 CURVE",
"83 -26 LINE SMOOTH",
"139 -26 OFFCURVE",
"188 -30 OFFCURVE",
"239 -30 CURVE SMOOTH",
"274 -30 OFFCURVE",
"308 -29 OFFCURVE",
"341 -22 CURVE SMOOTH",
"380 -14 OFFCURVE",
"439 33 OFFCURVE",
"476 197 CURVE SMOOTH",
"486 239 OFFCURVE",
"491 282 OFFCURVE",
"491 327 CURVE SMOOTH",
"491 392 OFFCURVE",
"481 452 OFFCURVE",
"464 507 CURVE",
"464 506 LINE",
"419 659 OFFCURVE",
"322 715 OFFCURVE",
"214 715 CURVE SMOOTH",
"154 715 OFFCURVE",
"92 705 OFFCURVE",
"41 696 CURVE",
"42 647 OFFCURVE",
"43 593 OFFCURVE",
"43 546 CURVE SMOOTH",
"43 503 OFFCURVE",
"42 462 OFFCURVE",
"42 419 CURVE"
);
},
{
closed = 1;
nodes = (
"-5 410 LINE",
"52 409 LINE",
"52 456 OFFCURVE",
"53 499 OFFCURVE",
"53 546 CURVE SMOOTH",
"53 593 OFFCURVE",
"52 638 OFFCURVE",
"51 687 CURVE",
"102 694 OFFCURVE",
"158 705 OFFCURVE",
"214 705 CURVE SMOOTH",
"286 705 OFFCURVE",
"351 686 OFFCURVE",
"392 618 CURVE SMOOTH",
"439 539 OFFCURVE",
"461 443 OFFCURVE",
"461 347 CURVE SMOOTH",
"461 303 OFFCURVE",
"455 262 OFFCURVE",
"446 219 CURVE SMOOTH",
"409 54 OFFCURVE",
"355 16 OFFCURVE",
"319 8 CURVE SMOOTH",
"288 1 OFFCURVE",
"255 0 OFFCURVE",
"223 0 CURVE SMOOTH",
"174 0 OFFCURVE",
"127 4 OFFCURVE",
"80 4 CURVE SMOOTH",
"56 4 LINE",
"53 100 OFFCURVE",
"52 187 OFFCURVE",
"52 271 CURVE",
"43 272 OFFCURVE",
"33 272 OFFCURVE",
"24 272 CURVE SMOOTH",
"-1 272 LINE",
"-1 307 OFFCURVE",
"-5 342 OFFCURVE",
"-5 394 CURVE SMOOTH"
);
},
{
closed = 1;
nodes = (
"258 164 OFFCURVE",
"283 170 OFFCURVE",
"306 205 CURVE",
"322 232 OFFCURVE",
"332 285 OFFCURVE",
"332 336 CURVE SMOOTH",
"332 360 OFFCURVE",
"334 534 OFFCURVE",
"226 534 CURVE SMOOTH",
"203 534 OFFCURVE",
"180 529 OFFCURVE",
"167 524 CURVE",
"168 509 OFFCURVE",
"169 493 OFFCURVE",
"169 472 CURVE SMOOTH",
"169 452 OFFCURVE",
"168 429 OFFCURVE",
"168 406 CURVE",
"227 405 LINE",
"227 388 OFFCURVE",
"230 317 OFFCURVE",
"230 277 CURVE",
"167 278 LINE",
"167 221 LINE SMOOTH",
"167 191 OFFCURVE",
"153 164 OFFCURVE",
"201 164 CURVE SMOOTH"
);
},
{
closed = 1;
nodes = (
"298 211 LINE",
"284 190 OFFCURVE",
"264 179 OFFCURVE",
"238 176 CURVE",
"231 176 LINE SMOOTH",
"223 176 OFFCURVE",
"210 175 OFFCURVE",
"198 175 CURVE",
"197 248 LINE",
"260 247 LINE",
"260 294 OFFCURVE",
"257 370 OFFCURVE",
"257 395 CURVE",
"237 395 LINE",
"237 415 LINE",
"226 415 OFFCURVE",
"213 415 OFFCURVE",
"198 416 CURVE",
"198 428 OFFCURVE",
"199 437 OFFCURVE",
"199 452 CURVE SMOOTH",
"199 471 OFFCURVE",
"199 482 OFFCURVE",
"198 497 CURVE",
"210 500 OFFCURVE",
"227 504 OFFCURVE",
"246 504 CURVE SMOOTH",
"260 504 OFFCURVE",
"272 501 OFFCURVE",
"283 496 CURVE",
"285 494 LINE",
"315 454 OFFCURVE",
"322 385 OFFCURVE",
"322 336 CURVE SMOOTH",
"322 288 OFFCURVE",
"312 235 OFFCURVE",
"297 210 CURVE"
);
}
);
width = 482;
}
);
note = Eth;
rightKerningGroup = D;
unicode = 00D0;
},
{
glyphname = E;
layers = (
{
hints = (
{
horizontal = 1;
place = "{-30, 30}";
type = Stem;
},
{
horizontal = 1;
place = "{135, 10}";
type = Stem;
},
{
horizontal = 1;
place = "{418, 11}";
type = Stem;
},
{
horizontal = 1;
place = "{513, 29}";
type = Stem;
},
{
horizontal = 1;
place = "{698, 10}";
type = Stem;
},
{
place = "{29, 11}";
type = Stem;
},
{
place = "{200, 26}";
type = Stem;
},
{
place = "{322, 31}";
type = Stem;
},
{
place = "{465, 8}";
type = Stem;
},
{
horizontal = 1;
place = "{-4.5, 9.5}";
type = Stem;
},
{
place = "{191, 30}";
type = Stem;
},
{
place = "{460, 30}";
type = Stem;
}
);
layerId = "D68BD575-7350-49C7-85EB-1FC0FDA2B601";
paths = (
{
closed = 1;
nodes = (
"493 127 LINE",
"486 126 OFFCURVE",
"481 126 OFFCURVE",
"474 126 CURVE",
"474 129 OFFCURVE",
"473 132 OFFCURVE",
"473 135 CURVE SMOOTH",
"473 147 LINE",
"457 146 OFFCURVE",
"432 145 OFFCURVE",
"417 145 CURVE SMOOTH",
"352 145 OFFCURVE",
"287 148 OFFCURVE",
"227 151 CURVE",
"226 164 OFFCURVE",
"226 179 OFFCURVE",
"226 194 CURVE SMOOTH",
"226 209 OFFCURVE",
"226 225 OFFCURVE",
"229 240 CURVE",
"247 245 OFFCURVE",
"302 236 OFFCURVE",
"351 250 CURVE",
"351 282 OFFCURVE",
"353 314 OFFCURVE",
"353 345 CURVE SMOOTH",
"353 364 OFFCURVE",
"352 385 OFFCURVE",
"348 406 CURVE",
"328 406 OFFCURVE",
"331 411 OFFCURVE",
"328 426 CURVE",
"313 427 OFFCURVE",
"293 429 OFFCURVE",
"278 429 CURVE SMOOTH",
"265 429 OFFCURVE",
"252 428 OFFCURVE",
"239 428 CURVE SMOOTH",
"232 428 OFFCURVE",
"228 429 OFFCURVE",
"221 429 CURVE",
"221 438 LINE SMOOTH",
"221 461 OFFCURVE",
"224 483 OFFCURVE",
"224 510 CURVE",
"245 512 OFFCURVE",
"265 513 OFFCURVE",
"286 513 CURVE SMOOTH",
"299 513 OFFCURVE",
"312 512 OFFCURVE",
"325 512 CURVE SMOOTH",
"361 512 LINE SMOOTH",
"401 512 OFFCURVE",
"443 513 OFFCURVE",
"490 524 CURVE",
"490 559 OFFCURVE",
"494 592 OFFCURVE",
"494 624 CURVE SMOOTH",
"494 643 OFFCURVE",
"493 660 OFFCURVE",
"490 677 CURVE",
"490 676 LINE",
"488 681 OFFCURVE",
"470 679 OFFCURVE",
"470 696 CURVE",
"467 704 OFFCURVE",
"434 708 OFFCURVE",
"387 708 CURVE SMOOTH",
"298 708 OFFCURVE",
"141 704 OFFCURVE",
"37 699 CURVE",
"32 615 OFFCURVE",
"29 523 OFFCURVE",
"29 439 CURVE SMOOTH",
"29 292 OFFCURVE",
"35 149 OFFCURVE",
"35 -4 CURVE",
"42 -4 OFFCURVE",
"48 -5 OFFCURVE",
"55 -5 CURVE",
"55 -24 LINE",
"106 -28 OFFCURVE",
"168 -30 OFFCURVE",
"221 -30 CURVE SMOOTH",
"308 -30 OFFCURVE",
"395 -27 OFFCURVE",
"483 -27 CURVE",
"491 5 OFFCURVE",
"495 38 OFFCURVE",
"495 69 CURVE SMOOTH",
"495 84 OFFCURVE",
"494 100 OFFCURVE",
"493 115 CURVE"
);
},
{
closed = 1;
nodes = (
"463 134 LINE",
"464 119 OFFCURVE",
"465 104 OFFCURVE",
"465 88 CURVE SMOOTH",
"465 59 OFFCURVE",
"462 30 OFFCURVE",
"455 3 CURVE",
"367 3 OFFCURVE",
"278 0 OFFCURVE",
"190 0 CURVE SMOOTH",
"139 0 OFFCURVE",
"92 1 OFFCURVE",
"45 5 CURVE",
"45 156 OFFCURVE",
"40 301 OFFCURVE",
"40 449 CURVE SMOOTH",
"40 529 OFFCURVE",
"41 608 OFFCURVE",
"46 689 CURVE",
"149 694 OFFCURVE",
"299 698 OFFCURVE",
"387 698 CURVE SMOOTH",
"431 698 OFFCURVE",
"460 698 OFFCURVE",
"460 695 CURVE",
"462 679 OFFCURVE",
"463 663 OFFCURVE",
"463 648 CURVE SMOOTH",
"463 616 OFFCURVE",
"460 584 OFFCURVE",
"460 553 CURVE SMOOTH",
"460 552 LINE",
"421 543 OFFCURVE",
"383 542 OFFCURVE",
"344 542 CURVE SMOOTH",
"265 542 LINE SMOOTH",
"242 542 OFFCURVE",
"221 543 OFFCURVE",
"198 540 CURVE",
"194 539 LINE",
"194 512 OFFCURVE",
"191 487 OFFCURVE",
"191 460 CURVE SMOOTH",
"191 445 OFFCURVE",
"192 433 OFFCURVE",
"195 422 CURVE",
"196 421 LINE",
"236 418 OFFCURVE",
"278 419 OFFCURVE",
"319 418 CURVE",
"319 417 LINE",
"322 400 OFFCURVE",
"322 384 OFFCURVE",
"322 365 CURVE SMOOTH",
"322 337 OFFCURVE",
"321 309 OFFCURVE",
"321 278 CURVE",
"281 267 OFFCURVE",
"213 277 OFFCURVE",
"200 267 CURVE",
"197 251 OFFCURVE",
"196 233 OFFCURVE",
"196 214 CURVE SMOOTH",
"196 187 OFFCURVE",
"197 161 OFFCURVE",
"200 142 CURVE",
"201 141 LINE",
"276 141 OFFCURVE",
"345 135 OFFCURVE",
"420 135 CURVE SMOOTH",
"435 135 OFFCURVE",
"448 135 OFFCURVE",
"463 136 CURVE"
);
}
);
width = 481;
}
);
note = E;
rightKerningGroup = AE;
unicode = 0045;
},
{
glyphname = Eacute;
layers = (
{
hints = (
{
horizontal = 1;
place = "{-30, 30}";
type = Stem;
},
{
horizontal = 1;
place = "{135, 10}";
type = Stem;
},
{
horizontal = 1;
place = "{418, 11}";
type = Stem;
},
{
horizontal = 1;
place = "{513, 29}";
type = Stem;
},
{
horizontal = 1;
place = "{698, 10}";
type = Stem;
},
{
place = "{29, 11}";
type = Stem;
},
{
place = "{200, 26}";
type = Stem;
},
{
place = "{322, 31}";
type = Stem;
},
{
place = "{460, 30}";
type = Stem;
},
{
horizontal = 1;
place = "{718, 30}";
type = Stem;
},
{
place = "{465, 8}";
type = Stem;
},
{
horizontal = 1;
place = "{-4.5, 9.5}";
type = Stem;
},
{
place = "{191, 30}";
type = Stem;
}
);
layerId = "D68BD575-7350-49C7-85EB-1FC0FDA2B601";
paths = (
{
closed = 1;
nodes = (
"348 910 LINE",
"347 909 LINE",
"328 930 LINE",
"261 877 OFFCURVE",
"219 821 OFFCURVE",
"139 749 CURVE",
"147 746 OFFCURVE",
"159 745 OFFCURVE",
"174 742 CURVE",
"159 729 LINE",
"182 722 OFFCURVE",
"229 718 OFFCURVE",
"266 718 CURVE SMOOTH",
"282 718 OFFCURVE",
"299 718 OFFCURVE",
"320 721 CURVE",
"328 735 OFFCURVE",
"363 767 OFFCURVE",
"392 791 CURVE",
"391 791 LINE",
"403 802 OFFCURVE",
"418 815 OFFCURVE",
"429 826 CURVE"
);
},
{
closed = 1;
nodes = (
"396 847 LINE",
"395 846 LINE SMOOTH",
"377 828 OFFCURVE",
"305 769 OFFCURVE",
"294 750 CURVE",
"279 747 OFFCURVE",
"264 748 OFFCURVE",
"245 748 CURVE SMOOTH",
"209 748 OFFCURVE",
"172 750 OFFCURVE",
"160 754 CURVE",
"206 798 OFFCURVE",
"280 880 OFFCURVE",
"327 917 CURVE"
);
},
{
closed = 1;
nodes = (
"493 127 LINE",
"486 126 OFFCURVE",
"481 126 OFFCURVE",
"474 126 CURVE",
"474 129 OFFCURVE",
"473 132 OFFCURVE",
"473 135 CURVE SMOOTH",
"473 147 LINE",
"457 146 OFFCURVE",
"432 145 OFFCURVE",
"417 145 CURVE SMOOTH",
"352 145 OFFCURVE",
"287 148 OFFCURVE",
"227 151 CURVE",
"226 164 OFFCURVE",
"226 179 OFFCURVE",
"226 194 CURVE SMOOTH",
"226 209 OFFCURVE",
"226 225 OFFCURVE",
"229 240 CURVE",
"247 245 OFFCURVE",
"302 236 OFFCURVE",
"351 250 CURVE",
"351 282 OFFCURVE",
"353 314 OFFCURVE",
"353 345 CURVE SMOOTH",
"353 364 OFFCURVE",
"352 385 OFFCURVE",
"348 406 CURVE",
"328 406 OFFCURVE",
"331 411 OFFCURVE",
"328 426 CURVE",
"313 427 OFFCURVE",
"293 429 OFFCURVE",
"278 429 CURVE SMOOTH",
"265 429 OFFCURVE",
"252 428 OFFCURVE",
"239 428 CURVE SMOOTH",
"232 428 OFFCURVE",
"228 429 OFFCURVE",
"221 429 CURVE",
"221 438 LINE SMOOTH",
"221 461 OFFCURVE",
"224 483 OFFCURVE",
"224 510 CURVE",
"245 512 OFFCURVE",
"265 513 OFFCURVE",
"286 513 CURVE SMOOTH",
"299 513 OFFCURVE",
"312 512 OFFCURVE",
"325 512 CURVE SMOOTH",
"361 512 LINE SMOOTH",
"401 512 OFFCURVE",
"443 513 OFFCURVE",
"490 524 CURVE",
"490 559 OFFCURVE",
"494 592 OFFCURVE",
"494 624 CURVE SMOOTH",
"494 643 OFFCURVE",
"493 660 OFFCURVE",
"490 677 CURVE",
"490 676 LINE",
"487 682 OFFCURVE",
"470 677 OFFCURVE",
"470 696 CURVE",
"467 704 OFFCURVE",
"434 708 OFFCURVE",
"387 708 CURVE SMOOTH",
"298 708 OFFCURVE",
"141 704 OFFCURVE",
"37 699 CURVE",
"32 615 OFFCURVE",
"29 523 OFFCURVE",
"29 439 CURVE SMOOTH",
"29 292 OFFCURVE",
"35 149 OFFCURVE",
"35 -4 CURVE",
"42 -4 OFFCURVE",
"48 -5 OFFCURVE",
"55 -5 CURVE",
"55 -24 LINE",
"106 -28 OFFCURVE",
"168 -30 OFFCURVE",
"221 -30 CURVE SMOOTH",
"308 -30 OFFCURVE",
"395 -27 OFFCURVE",
"483 -27 CURVE",
"491 5 OFFCURVE",
"495 38 OFFCURVE",
"495 69 CURVE SMOOTH",
"495 84 OFFCURVE",
"494 100 OFFCURVE",
"493 115 CURVE"
);
},
{
closed = 1;
nodes = (
"463 134 LINE",
"464 119 OFFCURVE",
"465 104 OFFCURVE",
"465 88 CURVE SMOOTH",
"465 59 OFFCURVE",
"462 30 OFFCURVE",
"455 3 CURVE",
"367 3 OFFCURVE",
"278 0 OFFCURVE",
"190 0 CURVE SMOOTH",
"139 0 OFFCURVE",
"92 1 OFFCURVE",
"45 5 CURVE",
"45 156 OFFCURVE",
"40 301 OFFCURVE",
"40 449 CURVE SMOOTH",
"40 529 OFFCURVE",
"41 608 OFFCURVE",
"46 689 CURVE",
"149 694 OFFCURVE",
"299 698 OFFCURVE",
"387 698 CURVE SMOOTH",
"431 698 OFFCURVE",
"460 698 OFFCURVE",
"460 695 CURVE",
"462 679 OFFCURVE",
"463 663 OFFCURVE",
"463 648 CURVE SMOOTH",
"463 616 OFFCURVE",
"460 584 OFFCURVE",
"460 553 CURVE SMOOTH",
"460 552 LINE",
"421 543 OFFCURVE",
"383 542 OFFCURVE",
"344 542 CURVE SMOOTH",
"265 542 LINE SMOOTH",
"242 542 OFFCURVE",
"221 543 OFFCURVE",
"198 540 CURVE",
"194 539 LINE",
"194 512 OFFCURVE",
"191 487 OFFCURVE",
"191 460 CURVE SMOOTH",
"191 445 OFFCURVE",
"192 433 OFFCURVE",
"195 422 CURVE",
"196 421 LINE",
"236 418 OFFCURVE",
"278 419 OFFCURVE",
"319 418 CURVE",
"319 417 LINE",
"322 400 OFFCURVE",
"322 384 OFFCURVE",
"322 365 CURVE SMOOTH",
"322 337 OFFCURVE",
"321 309 OFFCURVE",
"321 278 CURVE",
"281 267 OFFCURVE",
"213 277 OFFCURVE",
"200 267 CURVE",
"197 251 OFFCURVE",
"196 233 OFFCURVE",
"196 214 CURVE SMOOTH",
"196 187 OFFCURVE",
"197 161 OFFCURVE",
"200 142 CURVE",
"201 141 LINE",
"276 141 OFFCURVE",
"345 135 OFFCURVE",
"420 135 CURVE SMOOTH",
"435 135 OFFCURVE",
"448 135 OFFCURVE",
"463 136 CURVE"
);
}
);
width = 481;
}
);
note = Eacute;
rightKerningGroup = AE;
unicode = 00C9;
},
{
glyphname = Ecircumflex;
layers = (
{
hints = (
{
horizontal = 1;
place = "{-30, 30}";
type = Stem;
},
{
horizontal = 1;
place = "{135, 10}";
type = Stem;
},
{
horizontal = 1;
place = "{418, 11}";
type = Stem;
},
{
horizontal = 1;
place = "{513, 29}";
type = Stem;
},
{
horizontal = 1;
place = "{698, 10}";
type = Stem;
},
{
place = "{29, 11}";
type = Stem;
},
{
place = "{200, 26}";
type = Stem;
},
{
place = "{322, 31}";
type = Stem;
},
{
place = "{460, 30}";
type = Stem;
},
{
horizontal = 1;
place = "{719, 30}";
type = Stem;
},
{
place = "{465, 8}";
type = Stem;
},
{
horizontal = 1;
place = "{-4.5, 9.5}";
type = Stem;
},
{
place = "{191, 30}";
type = Stem;
}
);
layerId = "D68BD575-7350-49C7-85EB-1FC0FDA2B601";
paths = (
{
closed = 1;
nodes = (
"442 743 LINE",
"252 932 LINE",
"188 874 OFFCURVE",
"133 829 OFFCURVE",
"71 746 CURVE",
"104 743 LINE",
"100 738 OFFCURVE",
"95 733 OFFCURVE",
"91 726 CURVE",
"155 722 OFFCURVE",
"188 719 OFFCURVE",
"199 719 CURVE SMOOTH",
"232 719 OFFCURVE",
"247 754 OFFCURVE",
"266 768 CURVE",
"314 712 OFFCURVE",
"325 719 OFFCURVE",
"356 719 CURVE SMOOTH",
"393 719 OFFCURVE",
"429 726 OFFCURVE",
"429 727 CURVE SMOOTH",
"429 728 OFFCURVE",
"429 728 OFFCURVE",
"428 729 CURVE"
);
},
{
closed = 1;
nodes = (
"415 756 LINE",
"413 756 LINE SMOOTH",
"406 756 OFFCURVE",
"377 749 OFFCURVE",
"337 749 CURVE SMOOTH",
"325 749 OFFCURVE",
"313 748 OFFCURVE",
"300 751 CURVE",
"290 751 OFFCURVE",
"262 792 OFFCURVE",
"249 800 CURVE",
"239 795 OFFCURVE",
"207 754 OFFCURVE",
"197 751 CURVE",
"189 750 OFFCURVE",
"184 749 OFFCURVE",
"179 749 CURVE SMOOTH",
"166 749 OFFCURVE",
"149 750 OFFCURVE",
"90 755 CURVE",
"135 816 OFFCURVE",
"192 862 OFFCURVE",
"252 918 CURVE"
);
},
{
closed = 1;
nodes = (
"493 127 LINE",
"486 126 OFFCURVE",
"481 126 OFFCURVE",
"474 126 CURVE",
"474 129 OFFCURVE",
"473 132 OFFCURVE",
"473 135 CURVE SMOOTH",
"473 147 LINE",
"457 146 OFFCURVE",
"432 145 OFFCURVE",
"417 145 CURVE SMOOTH",
"352 145 OFFCURVE",
"287 148 OFFCURVE",
"227 151 CURVE",
"226 164 OFFCURVE",
"226 179 OFFCURVE",
"226 194 CURVE SMOOTH",
"226 209 OFFCURVE",
"226 225 OFFCURVE",
"229 240 CURVE",
"247 245 OFFCURVE",
"302 236 OFFCURVE",
"351 250 CURVE",
"351 282 OFFCURVE",
"353 314 OFFCURVE",
"353 345 CURVE SMOOTH",
"353 364 OFFCURVE",
"352 385 OFFCURVE",
"348 406 CURVE",
"328 406 OFFCURVE",
"331 411 OFFCURVE",
"328 426 CURVE",
"313 427 OFFCURVE",
"293 429 OFFCURVE",
"278 429 CURVE SMOOTH",
"265 429 OFFCURVE",
"252 428 OFFCURVE",
"239 428 CURVE SMOOTH",
"232 428 OFFCURVE",
"228 429 OFFCURVE",
"221 429 CURVE",
"221 438 LINE SMOOTH",
"221 461 OFFCURVE",
"224 483 OFFCURVE",
"224 510 CURVE",
"245 512 OFFCURVE",
"265 513 OFFCURVE",
"286 513 CURVE SMOOTH",
"299 513 OFFCURVE",
"312 512 OFFCURVE",
"325 512 CURVE SMOOTH",
"361 512 LINE SMOOTH",
"401 512 OFFCURVE",
"443 513 OFFCURVE",
"490 524 CURVE",
"490 559 OFFCURVE",
"494 592 OFFCURVE",
"494 624 CURVE SMOOTH",
"494 643 OFFCURVE",
"493 660 OFFCURVE",
"490 677 CURVE",
"490 676 LINE",
"487 682 OFFCURVE",
"470 677 OFFCURVE",
"470 696 CURVE",
"467 704 OFFCURVE",
"434 708 OFFCURVE",
"387 708 CURVE SMOOTH",
"298 708 OFFCURVE",
"141 704 OFFCURVE",
"37 699 CURVE",
"32 615 OFFCURVE",
"29 523 OFFCURVE",
"29 439 CURVE SMOOTH",
"29 292 OFFCURVE",
"35 149 OFFCURVE",
"35 -4 CURVE",
"42 -4 OFFCURVE",
"48 -5 OFFCURVE",
"55 -5 CURVE",
"55 -24 LINE",
"106 -28 OFFCURVE",
"168 -30 OFFCURVE",
"221 -30 CURVE SMOOTH",
"308 -30 OFFCURVE",
"395 -27 OFFCURVE",
"483 -27 CURVE",
"491 5 OFFCURVE",
"495 38 OFFCURVE",
"495 69 CURVE SMOOTH",
"495 84 OFFCURVE",
"494 100 OFFCURVE",
"493 115 CURVE"
);
},
{
closed = 1;
nodes = (
"463 134 LINE",
"464 119 OFFCURVE",
"465 104 OFFCURVE",
"465 88 CURVE SMOOTH",
"465 59 OFFCURVE",
"462 30 OFFCURVE",
"455 3 CURVE",
"367 3 OFFCURVE",
"278 0 OFFCURVE",
"190 0 CURVE SMOOTH",
"139 0 OFFCURVE",
"92 1 OFFCURVE",
"45 5 CURVE",
"45 156 OFFCURVE",
"40 301 OFFCURVE",
"40 449 CURVE SMOOTH",
"40 529 OFFCURVE",
"41 608 OFFCURVE",
"46 689 CURVE",
"149 694 OFFCURVE",
"299 698 OFFCURVE",
"387 698 CURVE SMOOTH",
"431 698 OFFCURVE",
"460 698 OFFCURVE",
"460 695 CURVE",
"462 679 OFFCURVE",
"463 663 OFFCURVE",
"463 648 CURVE SMOOTH",
"463 616 OFFCURVE",
"460 584 OFFCURVE",
"460 553 CURVE SMOOTH",
"460 552 LINE",
"421 543 OFFCURVE",
"383 542 OFFCURVE",
"344 542 CURVE SMOOTH",
"265 542 LINE SMOOTH",
"242 542 OFFCURVE",
"221 543 OFFCURVE",
"198 540 CURVE",
"194 539 LINE",
"194 512 OFFCURVE",
"191 487 OFFCURVE",
"191 460 CURVE SMOOTH",
"191 445 OFFCURVE",
"192 433 OFFCURVE",
"195 422 CURVE",
"196 421 LINE",
"236 418 OFFCURVE",
"278 419 OFFCURVE",
"319 418 CURVE",
"319 417 LINE",
"322 400 OFFCURVE",
"322 384 OFFCURVE",
"322 365 CURVE SMOOTH",
"322 337 OFFCURVE",
"321 309 OFFCURVE",
"321 278 CURVE",
"281 267 OFFCURVE",
"213 277 OFFCURVE",
"200 267 CURVE",
"197 251 OFFCURVE",
"196 233 OFFCURVE",
"196 214 CURVE SMOOTH",
"196 187 OFFCURVE",
"197 161 OFFCURVE",
"200 142 CURVE",
"201 141 LINE",
"276 141 OFFCURVE",
"345 135 OFFCURVE",
"420 135 CURVE SMOOTH",
"435 135 OFFCURVE",
"448 135 OFFCURVE",
"463 136 CURVE"
);
}
);
width = 481;
}
);
note = Ecircumflex;
rightKerningGroup = AE;
unicode = 00CA;
},
{
glyphname = Edieresis;
layers = (
{
hints = (
{
horizontal = 1;
place = "{728.5, 30.5}";
type = Stem;
},
{
horizontal = 1;
place = "{866, 11}";
type = Stem;
},
{
place = "{210, 36}";
type = Stem;
},
{
place = "{95, 10}";
type = Stem;
},
{
place = "{216, 10}";
type = Stem;
},
{
place = "{384, 36}";
type = Stem;
},
{
place = "{269, 10}";
type = Stem;
},
{
place = "{390, 10}";
type = Stem;
},
{
horizontal = 1;
place = "{135, 10}";
type = Stem;
},
{
horizontal = 1;
place = "{418, 11}";
type = Stem;
},
{
place = "{200, 26}";
type = Stem;
},
{
place = "{322, 31}";
type = Stem;
},
{
place = "{465, 8}";
type = Stem;
},
{
horizontal = 1;
place = "{-4.5, 9.5}";
type = Stem;
},
{
horizontal = 1;
place = "{513, 29}";
type = Stem;
},
{
horizontal = 1;
place = "{698, 10}";
type = Stem;
},
{
place = "{29, 11}";
type = Stem;
},
{
place = "{191, 30}";
type = Stem;
},
{
place = "{460, 30}";
type = Stem;
},
{
horizontal = 1;
place = "{-30, 30}";
type = Stem;
}
);
layerId = "D68BD575-7350-49C7-85EB-1FC0FDA2B601";
paths = (
{
closed = 1;
nodes = (
"237 728 LINE",
"240 752 OFFCURVE",
"246 842 OFFCURVE",
"246 847 CURVE",
"239 850 OFFCURVE",
"233 850 OFFCURVE",
"226 853 CURVE",
"226 867 LINE",
"211 874 OFFCURVE",
"189 877 OFFCURVE",
"168 877 CURVE SMOOTH",
"143 877 OFFCURVE",
"113 873 OFFCURVE",
"97 868 CURVE",
"97 852 OFFCURVE",
"95 828 OFFCURVE",
"95 803 CURVE SMOOTH",
"95 784 OFFCURVE",
"96 764 OFFCURVE",
"99 749 CURVE",
"116 749 LINE",
"116 742 OFFCURVE",
"118 736 OFFCURVE",
"119 729 CURVE"
);
},
{
closed = 1;
nodes = (
"411 728 LINE",
"414 752 OFFCURVE",
"420 842 OFFCURVE",
"420 847 CURVE",
"413 850 OFFCURVE",
"407 850 OFFCURVE",
"400 853 CURVE",
"400 867 LINE",
"385 874 OFFCURVE",
"363 877 OFFCURVE",
"342 877 CURVE SMOOTH",
"317 877 OFFCURVE",
"287 873 OFFCURVE",
"271 868 CURVE",
"271 852 OFFCURVE",
"269 828 OFFCURVE",
"269 803 CURVE SMOOTH",
"269 784 OFFCURVE",
"270 764 OFFCURVE",
"273 749 CURVE",
"290 749 LINE",
"290 742 OFFCURVE",
"292 736 OFFCURVE",
"293 729 CURVE"
);
},
{
closed = 1;
nodes = (
"210 759 LINE",
"108 759 LINE",
"106 769 OFFCURVE",
"105 782 OFFCURVE",
"105 799 CURVE SMOOTH",
"105 823 OFFCURVE",
"107 849 OFFCURVE",
"107 860 CURVE",
"120 864 OFFCURVE",
"145 866 OFFCURVE",
"168 866 CURVE SMOOTH",
"188 866 OFFCURVE",
"207 865 OFFCURVE",
"216 861 CURVE",
"216 859 OFFCURVE",
"210 778 OFFCURVE",
"210 760 CURVE SMOOTH"
);
},
{
closed = 1;
nodes = (
"382 758 LINE",
"285 759 LINE",
"282 759 LINE",
"280 769 OFFCURVE",
"279 782 OFFCURVE",
"279 799 CURVE SMOOTH",
"279 823 OFFCURVE",
"281 849 OFFCURVE",
"281 860 CURVE",
"294 864 OFFCURVE",
"319 866 OFFCURVE",
"342 866 CURVE SMOOTH",
"362 866 OFFCURVE",
"381 865 OFFCURVE",
"390 861 CURVE",
"390 859 OFFCURVE",
"384 778 OFFCURVE",
"384 760 CURVE SMOOTH",
"384 758 LINE"
);
},
{
closed = 1;
nodes = (
"493 127 LINE",
"486 126 OFFCURVE",
"481 126 OFFCURVE",
"474 126 CURVE",
"474 129 OFFCURVE",
"473 132 OFFCURVE",
"473 135 CURVE SMOOTH",
"473 147 LINE",
"457 146 OFFCURVE",
"432 145 OFFCURVE",
"417 145 CURVE SMOOTH",
"352 145 OFFCURVE",
"287 148 OFFCURVE",
"227 151 CURVE",
"226 164 OFFCURVE",
"226 179 OFFCURVE",
"226 194 CURVE SMOOTH",
"226 209 OFFCURVE",
"226 225 OFFCURVE",
"229 240 CURVE",
"247 245 OFFCURVE",
"302 236 OFFCURVE",
"351 250 CURVE",
"351 282 OFFCURVE",
"353 314 OFFCURVE",
"353 345 CURVE SMOOTH",
"353 364 OFFCURVE",
"352 385 OFFCURVE",
"348 406 CURVE",
"328 406 OFFCURVE",
"331 411 OFFCURVE",
"328 426 CURVE",
"313 427 OFFCURVE",
"293 429 OFFCURVE",
"278 429 CURVE SMOOTH",
"265 429 OFFCURVE",
"252 428 OFFCURVE",
"239 428 CURVE SMOOTH",
"232 428 OFFCURVE",
"228 429 OFFCURVE",
"221 429 CURVE",
"221 438 LINE SMOOTH",
"221 461 OFFCURVE",
"224 483 OFFCURVE",
"224 510 CURVE",
"245 512 OFFCURVE",
"265 513 OFFCURVE",
"286 513 CURVE SMOOTH",
"299 513 OFFCURVE",
"312 512 OFFCURVE",
"325 512 CURVE SMOOTH",
"361 512 LINE SMOOTH",
"401 512 OFFCURVE",
"443 513 OFFCURVE",
"490 524 CURVE",
"490 559 OFFCURVE",
"494 592 OFFCURVE",
"494 624 CURVE SMOOTH",
"494 643 OFFCURVE",
"493 660 OFFCURVE",
"490 677 CURVE",
"490 675 LINE",
"490 683 OFFCURVE",
"470 676 OFFCURVE",
"470 697 CURVE",
"470 696 LINE",
"467 704 OFFCURVE",
"434 708 OFFCURVE",
"387 708 CURVE SMOOTH",
"298 708 OFFCURVE",
"141 704 OFFCURVE",
"37 699 CURVE",
"32 615 OFFCURVE",
"29 523 OFFCURVE",
"29 439 CURVE SMOOTH",
"29 292 OFFCURVE",
"35 149 OFFCURVE",
"35 -4 CURVE",
"42 -4 OFFCURVE",
"48 -5 OFFCURVE",
"55 -5 CURVE",
"55 -24 LINE",
"106 -28 OFFCURVE",
"168 -30 OFFCURVE",
"221 -30 CURVE SMOOTH",
"308 -30 OFFCURVE",
"395 -27 OFFCURVE",
"483 -27 CURVE",
"491 5 OFFCURVE",
"495 38 OFFCURVE",
"495 69 CURVE SMOOTH",
"495 84 OFFCURVE",
"494 100 OFFCURVE",
"493 115 CURVE"
);
},
{
closed = 1;
nodes = (
"463 134 LINE",
"464 119 OFFCURVE",
"465 104 OFFCURVE",
"465 88 CURVE SMOOTH",
"465 59 OFFCURVE",
"462 30 OFFCURVE",
"455 3 CURVE",
"367 3 OFFCURVE",
"278 0 OFFCURVE",
"190 0 CURVE SMOOTH",
"139 0 OFFCURVE",
"92 1 OFFCURVE",
"45 5 CURVE",
"45 156 OFFCURVE",
"40 301 OFFCURVE",
"40 449 CURVE SMOOTH",
"40 529 OFFCURVE",
"41 608 OFFCURVE",
"46 689 CURVE",
"149 694 OFFCURVE",
"299 698 OFFCURVE",
"387 698 CURVE SMOOTH",
"431 698 OFFCURVE",
"460 698 OFFCURVE",
"460 695 CURVE",
"462 679 OFFCURVE",
"463 663 OFFCURVE",
"463 648 CURVE SMOOTH",
"463 616 OFFCURVE",
"460 584 OFFCURVE",
"460 553 CURVE SMOOTH",
"460 552 LINE",
"421 543 OFFCURVE",
"383 542 OFFCURVE",
"344 542 CURVE SMOOTH",
"265 542 LINE SMOOTH",
"242 542 OFFCURVE",
"221 543 OFFCURVE",
"198 540 CURVE",
"194 539 LINE",
"194 512 OFFCURVE",
"191 487 OFFCURVE",
"191 460 CURVE SMOOTH",
"191 445 OFFCURVE",
"192 433 OFFCURVE",
"195 422 CURVE",
"196 421 LINE",
"236 418 OFFCURVE",
"278 419 OFFCURVE",
"319 418 CURVE",
"319 417 LINE",
"322 400 OFFCURVE",
"322 384 OFFCURVE",
"322 365 CURVE SMOOTH",
"322 337 OFFCURVE",
"321 309 OFFCURVE",
"321 278 CURVE",
"281 267 OFFCURVE",
"213 277 OFFCURVE",
"200 267 CURVE",
"197 251 OFFCURVE",
"196 233 OFFCURVE",
"196 214 CURVE SMOOTH",
"196 187 OFFCURVE",
"197 161 OFFCURVE",
"200 142 CURVE",
"201 141 LINE",
"276 141 OFFCURVE",
"345 135 OFFCURVE",
"420 135 CURVE SMOOTH",
"435 135 OFFCURVE",
"448 135 OFFCURVE",
"463 136 CURVE"
);
}
);
width = 481;
}
);
note = Edieresis;
rightKerningGroup = AE;
unicode = 00CB;
},
{
glyphname = Egrave;
layers = (
{
hints = (
{
horizontal = 1;
place = "{-30, 30}";
type = Stem;
},
{
horizontal = 1;
place = "{135, 10}";
type = Stem;
},
{
horizontal = 1;
place = "{418, 11}";
type = Stem;
},
{
horizontal = 1;
place = "{513, 29}";
type = Stem;
},
{
horizontal = 1;
place = "{698, 10}";
type = Stem;
},
{
place = "{29, 11}";
type = Stem;
},
{
place = "{200, 26}";
type = Stem;
},
{
place = "{322, 31}";
type = Stem;
},
{
place = "{460, 30}";
type = Stem;
},
{
horizontal = 1;
place = "{718, 30}";
type = Stem;
},
{
place = "{465, 8}";
type = Stem;
},
{
horizontal = 1;
place = "{-4.5, 9.5}";
type = Stem;
},
{
place = "{191, 30}";
type = Stem;
}
);
layerId = "D68BD575-7350-49C7-85EB-1FC0FDA2B601";
paths = (
{
closed = 1;
nodes = (
"97 847 LINE",
"106 838 OFFCURVE",
"122 818 OFFCURVE",
"157 789 CURVE",
"157 790 LINE",
"182 769 OFFCURVE",
"208 744 OFFCURVE",
"227 721 CURVE",
"248 718 OFFCURVE",
"264 718 OFFCURVE",
"281 718 CURVE SMOOTH",
"320 718 OFFCURVE",
"365 723 OFFCURVE",
"388 728 CURVE",
"381 733 OFFCURVE",
"375 739 OFFCURVE",
"367 747 CURVE",
"368 748 LINE",
"361 753 OFFCURVE",
"353 761 OFFCURVE",
"344 770 CURVE SMOOTH",
"291 823 OFFCURVE",
"238 882 OFFCURVE",
"179 930 CURVE"
);
},
{
closed = 1;
nodes = (
"111 847 LINE",
"180 917 LINE",
"227 880 OFFCURVE",
"301 798 OFFCURVE",
"347 754 CURVE",
"334 750 OFFCURVE",
"297 748 OFFCURVE",
"261 748 CURVE SMOOTH",
"242 748 OFFCURVE",
"228 747 OFFCURVE",
"213 750 CURVE",
"199 769 OFFCURVE",
"131 827 OFFCURVE",
"112 846 CURVE SMOOTH"
);
},
{
closed = 1;
nodes = (
"493 127 LINE",
"486 126 OFFCURVE",
"481 126 OFFCURVE",
"474 126 CURVE",
"474 129 OFFCURVE",
"473 132 OFFCURVE",
"473 135 CURVE SMOOTH",
"473 147 LINE",
"457 146 OFFCURVE",
"432 145 OFFCURVE",
"417 145 CURVE SMOOTH",
"352 145 OFFCURVE",
"287 148 OFFCURVE",
"227 151 CURVE",
"226 164 OFFCURVE",
"226 179 OFFCURVE",
"226 194 CURVE SMOOTH",
"226 209 OFFCURVE",
"226 225 OFFCURVE",
"229 240 CURVE",
"247 245 OFFCURVE",
"302 236 OFFCURVE",
"351 250 CURVE",
"351 282 OFFCURVE",
"353 314 OFFCURVE",
"353 345 CURVE SMOOTH",
"353 364 OFFCURVE",
"352 385 OFFCURVE",
"348 406 CURVE",
"328 406 OFFCURVE",
"331 411 OFFCURVE",
"328 426 CURVE",
"313 427 OFFCURVE",
"293 429 OFFCURVE",
"278 429 CURVE SMOOTH",
"265 429 OFFCURVE",
"252 428 OFFCURVE",
"239 428 CURVE SMOOTH",
"232 428 OFFCURVE",
"228 429 OFFCURVE",
"221 429 CURVE",
"221 438 LINE SMOOTH",
"221 461 OFFCURVE",
"224 483 OFFCURVE",
"224 510 CURVE",
"245 512 OFFCURVE",
"265 513 OFFCURVE",
"286 513 CURVE SMOOTH",
"299 513 OFFCURVE",
"312 512 OFFCURVE",
"325 512 CURVE SMOOTH",
"361 512 LINE SMOOTH",
"401 512 OFFCURVE",
"443 513 OFFCURVE",
"490 524 CURVE",
"490 559 OFFCURVE",
"494 592 OFFCURVE",
"494 624 CURVE SMOOTH",
"494 643 OFFCURVE",
"493 660 OFFCURVE",
"490 677 CURVE",
"490 676 LINE",
"489 679 OFFCURVE",
"483 682 OFFCURVE",
"472 684 CURVE",
"467 703 OFFCURVE",
"458 708 OFFCURVE",
"387 708 CURVE SMOOTH",
"298 708 OFFCURVE",
"141 704 OFFCURVE",
"37 699 CURVE",
"32 615 OFFCURVE",
"29 523 OFFCURVE",
"29 439 CURVE SMOOTH",
"29 292 OFFCURVE",
"35 149 OFFCURVE",
"35 -4 CURVE",
"42 -4 OFFCURVE",
"48 -5 OFFCURVE",
"55 -5 CURVE",
"55 -24 LINE",
"106 -28 OFFCURVE",
"168 -30 OFFCURVE",
"221 -30 CURVE SMOOTH",
"308 -30 OFFCURVE",
"395 -27 OFFCURVE",
"483 -27 CURVE",
"491 5 OFFCURVE",
"495 38 OFFCURVE",
"495 69 CURVE SMOOTH",
"495 84 OFFCURVE",
"494 100 OFFCURVE",
"493 115 CURVE"
);
},
{
closed = 1;
nodes = (
"463 134 LINE",
"464 119 OFFCURVE",
"465 104 OFFCURVE",
"465 88 CURVE SMOOTH",
"465 59 OFFCURVE",
"462 30 OFFCURVE",
"455 3 CURVE",
"367 3 OFFCURVE",
"278 0 OFFCURVE",
"190 0 CURVE SMOOTH",
"139 0 OFFCURVE",
"92 1 OFFCURVE",
"45 5 CURVE",
"45 156 OFFCURVE",
"40 301 OFFCURVE",
"40 449 CURVE SMOOTH",
"40 529 OFFCURVE",
"41 608 OFFCURVE",
"46 689 CURVE",
"149 694 OFFCURVE",
"299 698 OFFCURVE",
"387 698 CURVE SMOOTH",
"431 698 OFFCURVE",
"460 698 OFFCURVE",
"460 695 CURVE",
"462 679 OFFCURVE",
"463 663 OFFCURVE",
"463 648 CURVE SMOOTH",
"463 616 OFFCURVE",
"460 584 OFFCURVE",
"460 553 CURVE SMOOTH",
"460 552 LINE",
"421 543 OFFCURVE",
"383 542 OFFCURVE",
"344 542 CURVE SMOOTH",
"265 542 LINE SMOOTH",
"242 542 OFFCURVE",
"221 543 OFFCURVE",
"198 540 CURVE",
"194 539 LINE",
"194 512 OFFCURVE",
"191 487 OFFCURVE",
"191 460 CURVE SMOOTH",
"191 445 OFFCURVE",
"192 433 OFFCURVE",
"195 422 CURVE",
"196 421 LINE",
"236 418 OFFCURVE",
"278 419 OFFCURVE",
"319 418 CURVE",
"319 417 LINE",
"322 400 OFFCURVE",
"322 384 OFFCURVE",
"322 365 CURVE SMOOTH",
"322 337 OFFCURVE",
"321 309 OFFCURVE",
"321 278 CURVE",
"281 267 OFFCURVE",
"213 277 OFFCURVE",
"200 267 CURVE",
"197 251 OFFCURVE",
"196 233 OFFCURVE",
"196 214 CURVE SMOOTH",
"196 187 OFFCURVE",
"197 161 OFFCURVE",
"200 142 CURVE",
"201 141 LINE",
"276 141 OFFCURVE",
"345 135 OFFCURVE",
"420 135 CURVE SMOOTH",
"435 135 OFFCURVE",
"448 135 OFFCURVE",
"463 136 CURVE"
);
}
);
width = 481;
}
);
note = Egrave;
rightKerningGroup = AE;
unicode = 00C8;
},
{
glyphname = F;
layers = (
{
hints = (
{
horizontal = 1;
place = "{-33, 34}";
type = Stem;
},
{
horizontal = 1;
place = "{218, 28}";
type = Stem;
},
{
horizontal = 1;
place = "{424, 9}";
type = Stem;
},
{
horizontal = 1;
place = "{489, 29}";
type = Stem;
},
{
horizontal = 1;
place = "{697, 10}";
type = Stem;
},
{
place = "{33, 8}";
type = Stem;
},
{
place = "{224, 22}";
type = Stem;
},
{
place = "{356, 30}";
type = Stem;
},
{
place = "{491, 31}";
type = Stem;
},
{
place = "{214, 30}";
type = Stem;
},
{
horizontal = 1;
place = "{505, 29}";
type = Stem;
}
);
layerId = "D68BD575-7350-49C7-85EB-1FC0FDA2B601";
paths = (
{
closed = 1;
nodes = (
"363 424 OFFCURVE",
"362 431 OFFCURVE",
"359 438 CURVE",
"328 434 OFFCURVE",
"290 433 OFFCURVE",
"258 433 CURVE SMOOTH",
"239 433 OFFCURVE",
"244 442 OFFCURVE",
"244 454 CURVE SMOOTH",
"244 465 OFFCURVE",
"247 478 OFFCURVE",
"250 489 CURVE",
"333 497 OFFCURVE",
"440 500 OFFCURVE",
"519 505 CURVE",
"520 520 OFFCURVE",
"522 550 OFFCURVE",
"522 573 CURVE SMOOTH",
"522 608 OFFCURVE",
"520 645 OFFCURVE",
"520 670 CURVE",
"513 671 OFFCURVE",
"507 671 OFFCURVE",
"500 674 CURVE",
"500 690 LINE",
"449 702 OFFCURVE",
"381 707 OFFCURVE",
"309 707 CURVE SMOOTH",
"198 707 OFFCURVE",
"75 697 OFFCURVE",
"33 689 CURVE",
"33 372 OFFCURVE",
"31 242 OFFCURVE",
"31 -3 CURVE",
"34 -6 OFFCURVE",
"41 -8 OFFCURVE",
"51 -10 CURVE",
"51 -23 LINE",
"62 -31 OFFCURVE",
"93 -33 OFFCURVE",
"129 -33 CURVE SMOOTH",
"168 -33 OFFCURVE",
"211 -32 OFFCURVE",
"246 -28 CURVE",
"246 12 LINE SMOOTH",
"246 79 OFFCURVE",
"248 146 OFFCURVE",
"253 218 CURVE",
"276 221 OFFCURVE",
"386 223 OFFCURVE",
"386 243 CURVE SMOOTH",
"386 256 OFFCURVE",
"384 271 OFFCURVE",
"384 290 CURVE SMOOTH",
"384 318 OFFCURVE",
"386 349 OFFCURVE",
"386 372 CURVE SMOOTH",
"386 387 OFFCURVE",
"384 403 OFFCURVE",
"379 418 CURVE",
"374 417 OFFCURVE",
"369 417 OFFCURVE",
"364 416 CURVE"
);
},
{
closed = 1;
nodes = (
"356 262 OFFCURVE",
"355 261 OFFCURVE",
"353 261 CURVE",
"312 254 OFFCURVE",
"265 253 OFFCURVE",
"225 246 CURVE",
"224 246 LINE",
"217 162 OFFCURVE",
"217 77 OFFCURVE",
"216 1 CURVE",
"189 -2 OFFCURVE",
"145 -3 OFFCURVE",
"109 -3 CURVE SMOOTH",
"74 -3 OFFCURVE",
"47 -2 OFFCURVE",
"42 1 CURVE",
"41 114 LINE",
"41 256 OFFCURVE",
"43 367 OFFCURVE",
"43 537 CURVE SMOOTH",
"43 680 LINE",
"85 688 OFFCURVE",
"200 697 OFFCURVE",
"309 697 CURVE SMOOTH",
"380 697 OFFCURVE",
"446 693 OFFCURVE",
"490 682 CURVE",
"490 665 OFFCURVE",
"491 636 OFFCURVE",
"491 607 CURVE SMOOTH",
"491 566 LINE SMOOTH",
"491 553 OFFCURVE",
"491 543 OFFCURVE",
"490 534 CURVE",
"418 529 OFFCURVE",
"306 526 OFFCURVE",
"223 518 CURVE",
"216 503 OFFCURVE",
"214 489 OFFCURVE",
"214 474 CURVE SMOOTH",
"214 420 OFFCURVE",
"232 424 OFFCURVE",
"285 424 CURVE SMOOTH",
"312 424 OFFCURVE",
"336 424 OFFCURVE",
"353 427 CURVE",
"355 421 OFFCURVE",
"356 409 OFFCURVE",
"356 390 CURVE SMOOTH",
"356 363 OFFCURVE",
"354 331 OFFCURVE",
"354 300 CURVE SMOOTH",
"354 285 OFFCURVE",
"355 274 OFFCURVE",
"356 263 CURVE"
);
}
);
width = 494;
}
);
note = F;
rightKerningGroup = F;
unicode = 0046;
},
{
glyphname = G;
layers = (
{
hints = (
{
horizontal = 1;
place = "{-46, 30}";
type = Stem;
},
{
horizontal = 1;
place = "{132, 10}";
type = Stem;
},
{
horizontal = 1;
place = "{208, 30}";
type = Stem;
},
{
horizontal = 1;
place = "{347, 10}";
type = Stem;
},
{
horizontal = 1;
place = "{441, 29}";
type = Stem;
},
{
horizontal = 1;
place = "{528, 29}";
type = Stem;
},
{
horizontal = 1;
place = "{702, 10}";
type = Stem;
},
{
place = "{17, 10}";
type = Stem;
},
{
place = "{164, 30}";
type = Stem;
},
{
place = "{230, 12}";
type = Stem;
},
{
place = "{313, 9}";
type = Stem;
},
{
place = "{452, 30}";
type = Stem;
},
{
horizontal = 1;
place = "{358, 10}";
type = Stem;
},
{
place = "{451, 9}";
type = Stem;
}
);
layerId = "D68BD575-7350-49C7-85EB-1FC0FDA2B601";
paths = (
{
closed = 1;
nodes = (
"230 357 LINE",
"233 304 OFFCURVE",
"227 299 OFFCURVE",
"235 233 CURVE",
"246 229 OFFCURVE",
"251 234 OFFCURVE",
"255 213 CURVE",
"266 209 OFFCURVE",
"279 208 OFFCURVE",
"294 208 CURVE SMOOTH",
"313 208 LINE",
"306 169 OFFCURVE",
"301 159 OFFCURVE",
"282 151 CURVE",
"283 151 LINE",
"270 145 OFFCURVE",
"255 142 OFFCURVE",
"238 142 CURVE SMOOTH",
"234 142 OFFCURVE",
"229 142 OFFCURVE",
"225 143 CURVE",
"226 143 LINE",
"214 146 LINE",
"190 188 OFFCURVE",
"194 257 OFFCURVE",
"194 312 CURVE SMOOTH",
"194 384 OFFCURVE",
"200 453 OFFCURVE",
"213 496 CURVE SMOOTH",
"224 531 OFFCURVE",
"231 528 OFFCURVE",
"251 528 CURVE SMOOTH",
"298 528 OFFCURVE",
"304 500 OFFCURVE",
"315 465 CURVE",
"336 461 OFFCURVE",
"331 454 OFFCURVE",
"335 445 CURVE",
"376 439 OFFCURVE",
"388 441 OFFCURVE",
"412 441 CURVE SMOOTH",
"450 441 LINE SMOOTH",
"486 441 OFFCURVE",
"482 466 OFFCURVE",
"482 493 CURVE SMOOTH",
"482 626 OFFCURVE",
"371 712 OFFCURVE",
"239 712 CURVE SMOOTH",
"0 712 OFFCURVE",
"17 501 OFFCURVE",
"17 365 CURVE SMOOTH",
"17 305 OFFCURVE",
"20 259 OFFCURVE",
"27 200 CURVE",
"27 66 OFFCURVE",
"109 -46 OFFCURVE",
"245 -46 CURVE SMOOTH",
"352 -46 OFFCURVE",
"468 -18 OFFCURVE",
"481 104 CURVE",
"481 103 LINE",
"488 135 OFFCURVE",
"489 170 OFFCURVE",
"489 205 CURVE SMOOTH",
"489 248 OFFCURVE",
"484 296 OFFCURVE",
"480 341 CURVE",
"462 342 LINE",
"461 349 OFFCURVE",
"460 354 OFFCURVE",
"460 361 CURVE",
"448 362 LINE",
"427 362 OFFCURVE",
"370 368 OFFCURVE",
"319 368 CURVE SMOOTH",
"284 368 OFFCURVE",
"253 366 OFFCURVE",
"238 357 CURVE",
"236 355 LINE",
"236 356 OFFCURVE",
"235 357 OFFCURVE",
"233 357 CURVE SMOOTH"
);
},
{
closed = 1;
nodes = (
"240 346 LINE",
"243 348 LINE",
"256 356 OFFCURVE",
"285 358 OFFCURVE",
"317 358 CURVE SMOOTH",
"370 358 OFFCURVE",
"431 352 OFFCURVE",
"448 352 CURVE",
"451 351 LINE",
"455 311 OFFCURVE",
"459 268 OFFCURVE",
"459 225 CURVE SMOOTH",
"459 190 OFFCURVE",
"458 157 OFFCURVE",
"451 125 CURVE",
"438 9 OFFCURVE",
"323 -16 OFFCURVE",
"225 -16 CURVE SMOOTH",
"26 -16 OFFCURVE",
"27 202 OFFCURVE",
"27 362 CURVE SMOOTH",
"27 426 OFFCURVE",
"14 603 OFFCURVE",
"97 662 CURVE",
"134 693 OFFCURVE",
"191 702 OFFCURVE",
"239 702 CURVE SMOOTH",
"358 702 OFFCURVE",
"452 638 OFFCURVE",
"452 513 CURVE SMOOTH",
"452 502 OFFCURVE",
"451 492 OFFCURVE",
"450 481 CURVE",
"449 475 LINE",
"447 471 OFFCURVE",
"399 470 OFFCURVE",
"375 470 CURVE SMOOTH",
"360 470 OFFCURVE",
"346 471 OFFCURVE",
"323 474 CURVE",
"315 502 OFFCURVE",
"294 557 OFFCURVE",
"255 557 CURVE SMOOTH",
"246 557 OFFCURVE",
"238 558 OFFCURVE",
"230 558 CURVE SMOOTH",
"215 558 OFFCURVE",
"205 557 OFFCURVE",
"194 546 CURVE SMOOTH",
"175 527 OFFCURVE",
"164 423 OFFCURVE",
"164 332 CURVE SMOOTH",
"164 277 OFFCURVE",
"152 132 OFFCURVE",
"236 132 CURVE SMOOTH",
"279 132 OFFCURVE",
"322 140 OFFCURVE",
"322 221 CURVE SMOOTH",
"322 242 OFFCURVE",
"316 239 OFFCURVE",
"304 239 CURVE SMOOTH",
"292 239 OFFCURVE",
"277 238 OFFCURVE",
"264 238 CURVE SMOOTH",
"256 238 OFFCURVE",
"248 237 OFFCURVE",
"244 240 CURVE",
"241 255 OFFCURVE",
"242 266 OFFCURVE",
"242 277 CURVE SMOOTH",
"242 305 LINE SMOOTH",
"242 316 OFFCURVE",
"243 329 OFFCURVE",
"240 345 CURVE"
);
}
);
width = 481;
}
);
leftKerningGroup = G;
note = G;
rightKerningGroup = G;
unicode = 0047;
},
{
glyphname = H;
layers = (
{
hints = (
{
horizontal = 1;
place = "{-31, 32}";
type = Stem;
},
{
horizontal = 1;
place = "{252, 30}";
type = Stem;
},
{
horizontal = 1;
place = "{429, 10}";
type = Stem;
},
{
horizontal = 1;
place = "{707, 10}";
type = Stem;
},
{
place = "{29, 10}";
type = Stem;
},
{
place = "{195, 29}";
type = Stem;
},
{
place = "{298, 10}";
type = Stem;
},
{
place = "{455.5, 30}";
type = Stem;
},
{
place = "{442, 10}";
type = Stem;
},
{
horizontal = 1;
place = "{-8, 13}";
type = Stem;
},
{
horizontal = 1;
place = "{700, 10}";
type = Stem;
},
{
horizontal = 1;
place = "{-26, 26}";
type = Stem;
},
{
place = "{305, 23}";
type = Stem;
}
);
layerId = "D68BD575-7350-49C7-85EB-1FC0FDA2B601";
paths = (
{
closed = 1;
nodes = (
"472 695 LINE",
"464 696 OFFCURVE",
"459 696 OFFCURVE",
"452 696 CURVE",
"452 715 LINE",
"432 718 OFFCURVE",
"422 717 OFFCURVE",
"410 717 CURVE SMOOTH",
"371 717 OFFCURVE",
"326 712 OFFCURVE",
"295 703 CURVE",
"298 663 OFFCURVE",
"298 620 OFFCURVE",
"298 585 CURVE SMOOTH",
"298 541 OFFCURVE",
"296 491 OFFCURVE",
"292 443 CURVE",
"285 443 LINE",
"266 440 OFFCURVE",
"248 439 OFFCURVE",
"229 439 CURVE SMOOTH",
"218 439 LINE",
"203 520 OFFCURVE",
"208 597 OFFCURVE",
"199 684 CURVE",
"194 685 OFFCURVE",
"188 687 OFFCURVE",
"181 688 CURVE",
"176 714 OFFCURVE",
"154 710 OFFCURVE",
"138 710 CURVE SMOOTH",
"114 710 OFFCURVE",
"91 706 OFFCURVE",
"72 706 CURVE SMOOTH",
"63 706 OFFCURVE",
"54 707 OFFCURVE",
"45 709 CURVE",
"30 708 LINE",
"29 676 OFFCURVE",
"29 630 OFFCURVE",
"29 591 CURVE SMOOTH",
"29 382 OFFCURVE",
"37 79 OFFCURVE",
"45 -16 CURVE",
"52 -11 OFFCURVE",
"58 -9 OFFCURVE",
"63 -8 CURVE",
"64 -19 OFFCURVE",
"64 -28 OFFCURVE",
"65 -36 CURVE",
"80 -28 OFFCURVE",
"91 -26 OFFCURVE",
"102 -26 CURVE SMOOTH",
"122 -26 OFFCURVE",
"147 -30 OFFCURVE",
"170 -30 CURVE SMOOTH",
"189 -30 OFFCURVE",
"204 -28 OFFCURVE",
"219 -19 CURVE",
"226 16 OFFCURVE",
"226 48 OFFCURVE",
"226 79 CURVE SMOOTH",
"226 119 OFFCURVE",
"224 157 OFFCURVE",
"224 198 CURVE SMOOTH",
"224 211 OFFCURVE",
"224 232 OFFCURVE",
"225 247 CURVE",
"244 251 OFFCURVE",
"259 252 OFFCURVE",
"278 252 CURVE SMOOTH",
"286 252 OFFCURVE",
"294 251 OFFCURVE",
"305 250 CURVE",
"313 171 OFFCURVE",
"306 82 OFFCURVE",
"319 -11 CURVE",
"324 -10 OFFCURVE",
"329 -10 OFFCURVE",
"336 -10 CURVE",
"339 -31 LINE",
"384 -28 OFFCURVE",
"442 -34 OFFCURVE",
"499 -23 CURVE"
);
},
{
closed = 1;
nodes = (
"469 6 LINE",
"446 2 OFFCURVE",
"419 1 OFFCURVE",
"394 1 CURVE SMOOTH",
"358 1 LINE SMOOTH",
"347 1 OFFCURVE",
"337 1 OFFCURVE",
"329 0 CURVE",
"328 0 LINE",
"315 89 OFFCURVE",
"324 190 OFFCURVE",
"313 276 CURVE",
"312 277 LINE",
"293 280 OFFCURVE",
"276 282 OFFCURVE",
"257 282 CURVE SMOOTH",
"236 282 OFFCURVE",
"215 280 OFFCURVE",
"196 275 CURVE",
"194 253 OFFCURVE",
"193 231 OFFCURVE",
"193 210 CURVE SMOOTH",
"193 171 OFFCURVE",
"195 132 OFFCURVE",
"195 93 CURVE SMOOTH",
"195 64 OFFCURVE",
"194 35 OFFCURVE",
"190 7 CURVE",
"179 0 OFFCURVE",
"167 0 OFFCURVE",
"152 0 CURVE SMOOTH",
"127 0 OFFCURVE",
"99 5 OFFCURVE",
"76 5 CURVE SMOOTH",
"66 5 OFFCURVE",
"59 4 OFFCURVE",
"54 1 CURVE",
"46 97 OFFCURVE",
"39 381 OFFCURVE",
"39 591 CURVE SMOOTH",
"39 630 OFFCURVE",
"39 666 OFFCURVE",
"40 698 CURVE",
"43 699 LINE",
"50 697 OFFCURVE",
"57 696 OFFCURVE",
"65 696 CURVE SMOOTH",
"68 696 OFFCURVE",
"71 697 OFFCURVE",
"74 697 CURVE",
"107 699 LINE",
"116 699 OFFCURVE",
"125 700 OFFCURVE",
"134 700 CURVE SMOOTH",
"148 700 OFFCURVE",
"160 699 OFFCURVE",
"170 696 CURVE",
"182 604 OFFCURVE",
"175 518 OFFCURVE",
"191 433 CURVE",
"192 433 LINE",
"203 430 OFFCURVE",
"216 429 OFFCURVE",
"231 429 CURVE SMOOTH",
"255 429 OFFCURVE",
"279 431 OFFCURVE",
"300 434 CURVE",
"301 434 LINE",
"306 489 OFFCURVE",
"308 535 OFFCURVE",
"308 584 CURVE SMOOTH",
"308 618 OFFCURVE",
"307 655 OFFCURVE",
"305 695 CURVE",
"332 703 OFFCURVE",
"373 707 OFFCURVE",
"410 707 CURVE SMOOTH",
"421 707 OFFCURVE",
"431 707 OFFCURVE",
"442 706 CURVE"
);
}
);
width = 499;
}
);
note = H;
unicode = 0048;
},
{
glyphname = I;
layers = (
{
hints = (
{
horizontal = 1;
place = "{-18, 16}";
type = Stem;
},
{
horizontal = 1;
place = "{703, 10}";
type = Stem;
},
{
place = "{28, 10}";
type = Stem;
},
{
place = "{222, 10}";
type = Stem;
},
{
horizontal = 1;
place = "{-35, 29}";
type = Stem;
},
{
place = "{215, 30}";
type = Stem;
}
);
layerId = "D68BD575-7350-49C7-85EB-1FC0FDA2B601";
paths = (
{
closed = 1;
nodes = (
"232 713 LINE",
"174 713 LINE SMOOTH",
"115 713 OFFCURVE",
"113 718 OFFCURVE",
"56 718 CURVE SMOOTH",
"49 718 OFFCURVE",
"45 717 OFFCURVE",
"38 716 CURVE",
"31 644 OFFCURVE",
"28 579 OFFCURVE",
"28 515 CURVE SMOOTH",
"28 399 OFFCURVE",
"35 285 OFFCURVE",
"35 170 CURVE SMOOTH",
"35 111 OFFCURVE",
"32 41 OFFCURVE",
"28 -18 CURVE",
"36 -15 OFFCURVE",
"42 -15 OFFCURVE",
"49 -14 CURVE",
"49 -22 OFFCURVE",
"48 -30 OFFCURVE",
"48 -38 CURVE",
"65 -34 OFFCURVE",
"78 -33 OFFCURVE",
"91 -33 CURVE SMOOTH",
"118 -33 OFFCURVE",
"149 -35 OFFCURVE",
"178 -35 CURVE SMOOTH",
"209 -35 OFFCURVE",
"238 -32 OFFCURVE",
"251 -19 CURVE",
"247 50 OFFCURVE",
"245 123 OFFCURVE",
"245 194 CURVE SMOOTH",
"245 359 OFFCURVE",
"252 519 OFFCURVE",
"252 679 CURVE SMOOTH",
"252 693 LINE",
"232 693 LINE"
);
},
{
closed = 1;
nodes = (
"222 703 LINE",
"222 699 LINE SMOOTH",
"222 542 OFFCURVE",
"215 383 OFFCURVE",
"215 223 CURVE SMOOTH",
"215 150 OFFCURVE",
"217 77 OFFCURVE",
"221 5 CURVE",
"213 -3 OFFCURVE",
"189 -6 OFFCURVE",
"162 -6 CURVE SMOOTH",
"127 -6 OFFCURVE",
"89 -2 OFFCURVE",
"62 -2 CURVE SMOOTH",
"53 -2 OFFCURVE",
"46 -3 OFFCURVE",
"39 -4 CURVE",
"43 52 OFFCURVE",
"45 108 OFFCURVE",
"45 164 CURVE SMOOTH",
"45 284 OFFCURVE",
"38 400 OFFCURVE",
"38 516 CURVE SMOOTH",
"38 580 OFFCURVE",
"40 643 OFFCURVE",
"47 706 CURVE",
"47 708 LINE",
"51 708 LINE SMOOTH",
"93 708 OFFCURVE",
"106 703 OFFCURVE",
"175 703 CURVE SMOOTH"
);
}
);
width = 260;
}
);
note = I;
rightKerningGroup = I;
unicode = 0049;
},
{
glyphname = Iacute;
layers = (
{
hints = (
{
horizontal = 1;
place = "{-35, 29}";
type = Stem;
},
{
horizontal = 1;
place = "{703, 10}";
type = Stem;
},
{
place = "{28, 10}";
type = Stem;
},
{
place = "{215, 30}";
type = Stem;
},
{
horizontal = 1;
place = "{718, 30}";
type = Stem;
},
{
horizontal = 1;
place = "{-18, 16}";
type = Stem;
},
{
place = "{222, 10}";
type = Stem;
}
);
layerId = "D68BD575-7350-49C7-85EB-1FC0FDA2B601";
paths = (
{
closed = 1;
nodes = (
"247 910 LINE",
"246 909 LINE",
"227 930 LINE",
"160 877 OFFCURVE",
"118 821 OFFCURVE",
"38 749 CURVE",
"46 746 OFFCURVE",
"58 745 OFFCURVE",
"73 742 CURVE",
"58 729 LINE",
"81 722 OFFCURVE",
"128 718 OFFCURVE",
"165 718 CURVE SMOOTH",
"181 718 OFFCURVE",
"198 718 OFFCURVE",
"219 721 CURVE",
"227 735 OFFCURVE",
"262 767 OFFCURVE",
"291 791 CURVE",
"290 791 LINE",
"302 802 OFFCURVE",
"317 815 OFFCURVE",
"328 826 CURVE"
);
},
{
closed = 1;
nodes = (
"295 847 LINE",
"294 846 LINE SMOOTH",
"276 828 OFFCURVE",
"204 769 OFFCURVE",
"193 750 CURVE",
"178 747 OFFCURVE",
"163 748 OFFCURVE",
"144 748 CURVE SMOOTH",
"108 748 OFFCURVE",
"71 750 OFFCURVE",
"59 754 CURVE",
"105 798 OFFCURVE",
"179 880 OFFCURVE",
"226 917 CURVE"
);
},
{
closed = 1;
nodes = (
"232 713 LINE",
"174 713 LINE SMOOTH",
"115 713 OFFCURVE",
"113 718 OFFCURVE",
"56 718 CURVE SMOOTH",
"49 718 OFFCURVE",
"45 717 OFFCURVE",
"38 716 CURVE",
"31 644 OFFCURVE",
"28 579 OFFCURVE",
"28 515 CURVE SMOOTH",
"28 399 OFFCURVE",
"35 285 OFFCURVE",
"35 170 CURVE SMOOTH",
"35 111 OFFCURVE",
"32 41 OFFCURVE",
"28 -18 CURVE",
"36 -15 OFFCURVE",
"42 -15 OFFCURVE",
"49 -14 CURVE",
"49 -22 OFFCURVE",
"48 -30 OFFCURVE",
"48 -38 CURVE",
"65 -34 OFFCURVE",
"78 -33 OFFCURVE",
"91 -33 CURVE SMOOTH",
"118 -33 OFFCURVE",
"149 -35 OFFCURVE",
"178 -35 CURVE SMOOTH",
"209 -35 OFFCURVE",
"238 -32 OFFCURVE",
"251 -19 CURVE",
"247 50 OFFCURVE",
"245 123 OFFCURVE",
"245 194 CURVE SMOOTH",
"245 359 OFFCURVE",
"252 519 OFFCURVE",
"252 679 CURVE SMOOTH",
"252 693 LINE",
"232 693 LINE"
);
},
{
closed = 1;
nodes = (
"222 703 LINE",
"222 699 LINE SMOOTH",
"222 542 OFFCURVE",
"215 383 OFFCURVE",
"215 223 CURVE SMOOTH",
"215 150 OFFCURVE",
"217 77 OFFCURVE",
"221 5 CURVE",
"213 -3 OFFCURVE",
"189 -6 OFFCURVE",
"162 -6 CURVE SMOOTH",
"127 -6 OFFCURVE",
"89 -2 OFFCURVE",
"62 -2 CURVE SMOOTH",
"53 -2 OFFCURVE",
"46 -3 OFFCURVE",
"39 -4 CURVE",
"43 52 OFFCURVE",
"45 108 OFFCURVE",
"45 164 CURVE SMOOTH",
"45 284 OFFCURVE",
"38 400 OFFCURVE",
"38 516 CURVE SMOOTH",
"38 580 OFFCURVE",
"40 643 OFFCURVE",
"47 706 CURVE",
"47 708 LINE",
"51 708 LINE SMOOTH",
"93 708 OFFCURVE",
"106 703 OFFCURVE",
"175 703 CURVE SMOOTH"
);
}
);
width = 259;
}
);
note = Iacute;
rightKerningGroup = I;
unicode = 00CD;
},
{
glyphname = Icircumflex;
layers = (
{
hints = (
{
horizontal = 1;
place = "{-35, 29}";
type = Stem;
},
{
horizontal = 1;
place = "{703, 10}";
type = Stem;
},
{
place = "{28, 10}";
type = Stem;
},
{
place = "{215, 30}";
type = Stem;
},
{
horizontal = 1;
place = "{719, 30}";
type = Stem;
},
{
horizontal = 1;
place = "{-18, 16}";
type = Stem;
},
{
place = "{222, 10}";
type = Stem;
}
);
layerId = "D68BD575-7350-49C7-85EB-1FC0FDA2B601";
paths = (
{
closed = 1;
nodes = (
"334 743 LINE",
"144 932 LINE",
"80 874 OFFCURVE",
"25 829 OFFCURVE",
"-37 746 CURVE",
"-4 743 LINE",
"-8 738 OFFCURVE",
"-13 733 OFFCURVE",
"-17 726 CURVE",
"47 722 OFFCURVE",
"80 719 OFFCURVE",
"91 719 CURVE SMOOTH",
"124 719 OFFCURVE",
"139 754 OFFCURVE",
"158 768 CURVE",
"201 712 OFFCURVE",
"222 719 OFFCURVE",
"248 719 CURVE SMOOTH",
"285 719 OFFCURVE",
"321 726 OFFCURVE",
"321 727 CURVE SMOOTH",
"321 728 OFFCURVE",
"321 728 OFFCURVE",
"320 729 CURVE"
);
},
{
closed = 1;
nodes = (
"307 756 LINE",
"305 756 LINE SMOOTH",
"298 756 OFFCURVE",
"269 749 OFFCURVE",
"229 749 CURVE SMOOTH",
"217 749 OFFCURVE",
"205 748 OFFCURVE",
"192 751 CURVE",
"182 751 OFFCURVE",
"154 792 OFFCURVE",
"141 800 CURVE",
"131 795 OFFCURVE",
"99 754 OFFCURVE",
"89 751 CURVE",
"81 750 OFFCURVE",
"76 749 OFFCURVE",
"71 749 CURVE SMOOTH",
"58 749 OFFCURVE",
"41 750 OFFCURVE",
"-18 755 CURVE",
"27 816 OFFCURVE",
"84 862 OFFCURVE",
"144 918 CURVE"
);
},
{
closed = 1;
nodes = (
"232 713 LINE",
"174 713 LINE SMOOTH",
"115 713 OFFCURVE",
"113 718 OFFCURVE",
"56 718 CURVE SMOOTH",
"49 718 OFFCURVE",
"45 717 OFFCURVE",
"38 716 CURVE",
"31 644 OFFCURVE",
"28 579 OFFCURVE",
"28 515 CURVE SMOOTH",
"28 399 OFFCURVE",
"35 285 OFFCURVE",
"35 170 CURVE SMOOTH",
"35 111 OFFCURVE",
"32 41 OFFCURVE",
"28 -18 CURVE",
"36 -15 OFFCURVE",
"42 -15 OFFCURVE",
"49 -14 CURVE",
"49 -22 OFFCURVE",
"48 -30 OFFCURVE",
"48 -38 CURVE",
"65 -34 OFFCURVE",
"78 -33 OFFCURVE",
"91 -33 CURVE SMOOTH",
"118 -33 OFFCURVE",
"149 -35 OFFCURVE",
"178 -35 CURVE SMOOTH",
"209 -35 OFFCURVE",
"238 -32 OFFCURVE",
"251 -19 CURVE",
"247 50 OFFCURVE",
"245 123 OFFCURVE",
"245 194 CURVE SMOOTH",
"245 359 OFFCURVE",
"252 519 OFFCURVE",
"252 679 CURVE SMOOTH",
"252 693 LINE",
"232 693 LINE"
);
},
{
closed = 1;
nodes = (
"222 703 LINE",
"222 699 LINE SMOOTH",
"222 542 OFFCURVE",
"215 383 OFFCURVE",
"215 223 CURVE SMOOTH",
"215 150 OFFCURVE",
"217 77 OFFCURVE",
"221 5 CURVE",
"213 -3 OFFCURVE",
"189 -6 OFFCURVE",
"162 -6 CURVE SMOOTH",
"127 -6 OFFCURVE",
"89 -2 OFFCURVE",
"62 -2 CURVE SMOOTH",
"53 -2 OFFCURVE",
"46 -3 OFFCURVE",
"39 -4 CURVE",
"43 52 OFFCURVE",
"45 108 OFFCURVE",
"45 164 CURVE SMOOTH",
"45 284 OFFCURVE",
"38 400 OFFCURVE",
"38 516 CURVE SMOOTH",
"38 580 OFFCURVE",
"40 643 OFFCURVE",
"47 706 CURVE",
"47 708 LINE",
"51 708 LINE SMOOTH",
"93 708 OFFCURVE",
"106 703 OFFCURVE",
"175 703 CURVE SMOOTH"
);
}
);
width = 260;
}
);
note = Icircumflex;
rightKerningGroup = I;
unicode = 00CE;
},
{
glyphname = Idieresis;
layers = (
{
hints = (
{
horizontal = 1;
place = "{728.5, 30.5}";
type = Stem;
},
{
horizontal = 1;
place = "{866, 11}";
type = Stem;
},
{
place = "{104, 36}";
type = Stem;
},
{
place = "{-11, 10}";
type = Stem;
},
{
place = "{110, 10}";
type = Stem;
},
{
place = "{278, 36}";
type = Stem;
},
{
place = "{163, 10}";
type = Stem;
},
{
place = "{284, 10}";
type = Stem;
},
{
horizontal = 1;
place = "{-18, 16}";
type = Stem;
},
{
horizontal = 1;
place = "{703, 10}";
type = Stem;
},
{
place = "{28, 10}";
type = Stem;
},
{
place = "{222, 10}";
type = Stem;
},
{
horizontal = 1;
place = "{-35, 29}";
type = Stem;
},
{
place = "{215, 30}";
type = Stem;
}
);
layerId = "D68BD575-7350-49C7-85EB-1FC0FDA2B601";
paths = (
{
closed = 1;
nodes = (
"131 728 LINE",
"134 752 OFFCURVE",
"140 842 OFFCURVE",
"140 847 CURVE",
"133 850 OFFCURVE",
"127 850 OFFCURVE",
"120 853 CURVE",
"120 867 LINE",
"105 874 OFFCURVE",
"83 877 OFFCURVE",
"62 877 CURVE SMOOTH",
"37 877 OFFCURVE",
"7 873 OFFCURVE",
"-9 868 CURVE",
"-9 852 OFFCURVE",
"-11 828 OFFCURVE",
"-11 803 CURVE SMOOTH",
"-11 784 OFFCURVE",
"-10 764 OFFCURVE",
"-7 749 CURVE",
"10 749 LINE",
"10 742 OFFCURVE",
"12 736 OFFCURVE",
"13 729 CURVE"
);
},
{
closed = 1;
nodes = (
"305 728 LINE",
"308 752 OFFCURVE",
"314 842 OFFCURVE",
"314 847 CURVE",
"307 850 OFFCURVE",
"301 850 OFFCURVE",
"294 853 CURVE",
"294 867 LINE",
"279 874 OFFCURVE",
"257 877 OFFCURVE",
"236 877 CURVE SMOOTH",
"211 877 OFFCURVE",
"181 873 OFFCURVE",
"165 868 CURVE",
"165 852 OFFCURVE",
"163 828 OFFCURVE",
"163 803 CURVE SMOOTH",
"163 784 OFFCURVE",
"164 764 OFFCURVE",
"167 749 CURVE",
"184 749 LINE",
"184 742 OFFCURVE",
"186 736 OFFCURVE",
"187 729 CURVE"
);
},
{
closed = 1;
nodes = (
"104 759 LINE",
"2 759 LINE",
"0 769 OFFCURVE",
"-1 782 OFFCURVE",
"-1 799 CURVE SMOOTH",
"-1 823 OFFCURVE",
"1 849 OFFCURVE",
"1 860 CURVE",
"14 864 OFFCURVE",
"39 866 OFFCURVE",
"62 866 CURVE SMOOTH",
"82 866 OFFCURVE",
"101 865 OFFCURVE",
"110 861 CURVE",
"110 859 OFFCURVE",
"104 778 OFFCURVE",
"104 760 CURVE SMOOTH"
);
},
{
closed = 1;
nodes = (
"276 758 LINE",
"179 759 LINE",
"176 759 LINE",
"174 769 OFFCURVE",
"173 782 OFFCURVE",
"173 799 CURVE SMOOTH",
"173 823 OFFCURVE",
"175 849 OFFCURVE",
"175 860 CURVE",
"188 864 OFFCURVE",
"213 866 OFFCURVE",
"236 866 CURVE SMOOTH",
"256 866 OFFCURVE",
"275 865 OFFCURVE",
"284 861 CURVE",
"284 859 OFFCURVE",
"278 778 OFFCURVE",
"278 760 CURVE SMOOTH",
"278 758 LINE"
);
},
{
closed = 1;
nodes = (
"232 713 LINE",
"174 713 LINE SMOOTH",
"115 713 OFFCURVE",
"113 718 OFFCURVE",
"56 718 CURVE SMOOTH",
"49 718 OFFCURVE",
"45 717 OFFCURVE",
"38 716 CURVE",
"31 644 OFFCURVE",
"28 579 OFFCURVE",
"28 515 CURVE SMOOTH",
"28 399 OFFCURVE",
"35 285 OFFCURVE",
"35 170 CURVE SMOOTH",
"35 111 OFFCURVE",
"32 41 OFFCURVE",
"28 -18 CURVE",
"36 -15 OFFCURVE",
"42 -15 OFFCURVE",
"49 -14 CURVE",
"49 -22 OFFCURVE",
"48 -30 OFFCURVE",
"48 -38 CURVE",
"65 -34 OFFCURVE",
"78 -33 OFFCURVE",
"91 -33 CURVE SMOOTH",
"118 -33 OFFCURVE",
"149 -35 OFFCURVE",
"178 -35 CURVE SMOOTH",
"209 -35 OFFCURVE",
"238 -32 OFFCURVE",
"251 -19 CURVE",
"247 50 OFFCURVE",
"245 123 OFFCURVE",
"245 194 CURVE SMOOTH",
"245 359 OFFCURVE",
"252 519 OFFCURVE",
"252 679 CURVE SMOOTH",
"252 693 LINE",
"232 693 LINE"
);
},
{
closed = 1;
nodes = (
"222 703 LINE",
"222 699 LINE SMOOTH",
"222 542 OFFCURVE",
"215 383 OFFCURVE",
"215 223 CURVE SMOOTH",
"215 150 OFFCURVE",
"217 77 OFFCURVE",
"221 5 CURVE",
"213 -3 OFFCURVE",
"189 -6 OFFCURVE",
"162 -6 CURVE SMOOTH",
"127 -6 OFFCURVE",
"89 -2 OFFCURVE",
"62 -2 CURVE SMOOTH",
"53 -2 OFFCURVE",
"46 -3 OFFCURVE",
"39 -4 CURVE",
"43 52 OFFCURVE",
"45 108 OFFCURVE",
"45 164 CURVE SMOOTH",
"45 284 OFFCURVE",
"38 400 OFFCURVE",
"38 516 CURVE SMOOTH",
"38 580 OFFCURVE",
"40 643 OFFCURVE",
"47 706 CURVE",
"47 708 LINE",
"51 708 LINE SMOOTH",
"93 708 OFFCURVE",
"106 703 OFFCURVE",
"175 703 CURVE SMOOTH"
);
}
);
width = 260;
}
);
note = Idieresis;
rightKerningGroup = I;
unicode = 00CF;
},
{
glyphname = Igrave;
layers = (
{
hints = (
{
horizontal = 1;
place = "{-35, 29}";
type = Stem;
},
{
horizontal = 1;
place = "{703, 10}";
type = Stem;
},
{
place = "{28, 10}";
type = Stem;
},
{
place = "{215, 30}";
type = Stem;
},
{
horizontal = 1;
place = "{718, 30}";
type = Stem;
},
{
horizontal = 1;
place = "{-18, 16}";
type = Stem;
},
{
place = "{222, 10}";
type = Stem;
}
);
layerId = "D68BD575-7350-49C7-85EB-1FC0FDA2B601";
paths = (
{
closed = 1;
nodes = (
"-30 847 LINE",
"-21 838 OFFCURVE",
"-5 818 OFFCURVE",
"30 789 CURVE",
"30 790 LINE",
"55 769 OFFCURVE",
"81 744 OFFCURVE",
"100 721 CURVE",
"121 718 OFFCURVE",
"137 718 OFFCURVE",
"154 718 CURVE SMOOTH",
"193 718 OFFCURVE",
"238 723 OFFCURVE",
"261 728 CURVE",
"254 733 OFFCURVE",
"248 739 OFFCURVE",
"240 747 CURVE",
"241 748 LINE",
"179 799 OFFCURVE",
"119 876 OFFCURVE",
"52 930 CURVE"
);
},
{
closed = 1;
nodes = (
"-16 847 LINE",
"53 917 LINE",
"100 880 OFFCURVE",
"174 798 OFFCURVE",
"220 754 CURVE",
"207 750 OFFCURVE",
"170 748 OFFCURVE",
"134 748 CURVE SMOOTH",
"115 748 OFFCURVE",
"101 747 OFFCURVE",
"86 750 CURVE",
"72 769 OFFCURVE",
"4 827 OFFCURVE",
"-15 846 CURVE SMOOTH"
);
},
{
closed = 1;
nodes = (
"232 713 LINE",
"174 713 LINE SMOOTH",
"115 713 OFFCURVE",
"113 718 OFFCURVE",
"56 718 CURVE SMOOTH",
"49 718 OFFCURVE",
"45 717 OFFCURVE",
"38 716 CURVE",
"31 644 OFFCURVE",
"28 579 OFFCURVE",
"28 515 CURVE SMOOTH",
"28 399 OFFCURVE",
"35 285 OFFCURVE",
"35 170 CURVE SMOOTH",
"35 111 OFFCURVE",
"32 41 OFFCURVE",
"28 -18 CURVE",
"36 -15 OFFCURVE",
"42 -15 OFFCURVE",
"49 -14 CURVE",
"49 -22 OFFCURVE",
"48 -30 OFFCURVE",
"48 -38 CURVE",
"65 -34 OFFCURVE",
"78 -33 OFFCURVE",
"91 -33 CURVE SMOOTH",
"118 -33 OFFCURVE",
"149 -35 OFFCURVE",
"178 -35 CURVE SMOOTH",
"209 -35 OFFCURVE",
"238 -32 OFFCURVE",
"251 -19 CURVE",
"247 50 OFFCURVE",
"245 123 OFFCURVE",
"245 194 CURVE SMOOTH",
"245 359 OFFCURVE",
"252 519 OFFCURVE",
"252 679 CURVE SMOOTH",
"252 693 LINE",
"232 693 LINE"
);
},
{
closed = 1;
nodes = (
"222 703 LINE",
"222 699 LINE SMOOTH",
"222 542 OFFCURVE",
"215 383 OFFCURVE",
"215 223 CURVE SMOOTH",
"215 150 OFFCURVE",
"217 77 OFFCURVE",
"221 5 CURVE",
"213 -3 OFFCURVE",
"189 -6 OFFCURVE",
"162 -6 CURVE SMOOTH",
"127 -6 OFFCURVE",
"89 -2 OFFCURVE",
"62 -2 CURVE SMOOTH",
"53 -2 OFFCURVE",
"46 -3 OFFCURVE",
"39 -4 CURVE",
"43 52 OFFCURVE",
"45 108 OFFCURVE",
"45 164 CURVE SMOOTH",
"45 284 OFFCURVE",
"38 400 OFFCURVE",
"38 516 CURVE SMOOTH",
"38 580 OFFCURVE",
"40 643 OFFCURVE",
"47 706 CURVE",
"47 708 LINE",
"51 708 LINE SMOOTH",
"93 708 OFFCURVE",
"106 703 OFFCURVE",
"175 703 CURVE SMOOTH"
);
}
);
width = 260;
}
);
note = Igrave;
rightKerningGroup = I;
unicode = 00CC;
},
{
glyphname = J;
layers = (
{
hints = (
{
horizontal = 1;
place = "{-38, 30}";
type = Stem;
},
{
horizontal = 1;
place = "{165, 10}";
type = Stem;
},
{
horizontal = 1;
place = "{293, 10}";
type = Stem;
},
{
horizontal = 1;
place = "{711, 11}";
type = Stem;
},
{
place = "{-7, 10}";
type = Stem;
},
{
place = "{159, 10}";
type = Stem;
},
{
place = "{266, 10}";
type = Stem;
},
{
place = "{424, 11}";
type = Stem;
},
{
place = "{429, 31}";
type = Stem;
}
);
layerId = "D68BD575-7350-49C7-85EB-1FC0FDA2B601";
paths = (
{
closed = 1;
nodes = (
"435 722 LINE",
"269 720 LINE",
"269 703 LINE SMOOTH",
"269 640 OFFCURVE",
"263 580 OFFCURVE",
"266 519 CURVE",
"266 427 OFFCURVE",
"267 324 OFFCURVE",
"270 236 CURVE",
"267 205 OFFCURVE",
"256 175 OFFCURVE",
"229 175 CURVE SMOOTH",
"192 175 OFFCURVE",
"192 228 OFFCURVE",
"189 260 CURVE",
"189 274 LINE",
"169 277 LINE",
"169 294 LINE",
"138 301 OFFCURVE",
"102 303 OFFCURVE",
"67 303 CURVE SMOOTH",
"42 303 OFFCURVE",
"17 303 OFFCURVE",
"-6 296 CURVE",
"-7 258 LINE SMOOTH",
"-7 114 OFFCURVE",
"42 -38 OFFCURVE",
"220 -38 CURVE SMOOTH",
"260 -38 OFFCURVE",
"302 -32 OFFCURVE",
"337 -13 CURVE",
"336 -13 LINE",
"452 30 OFFCURVE",
"455 160 OFFCURVE",
"458 268 CURVE SMOOTH",
"458 301 OFFCURVE",
"460 333 OFFCURVE",
"460 366 CURVE SMOOTH",
"460 462 OFFCURVE",
"455 553 OFFCURVE",
"455 642 CURVE SMOOTH",
"455 702 LINE",
"435 702 LINE"
);
},
{
closed = 1;
nodes = (
"279 710 LINE",
"425 712 LINE",
"424 695 OFFCURVE",
"424 679 OFFCURVE",
"424 662 CURVE SMOOTH",
"424 569 OFFCURVE",
"429 476 OFFCURVE",
"429 380 CURVE SMOOTH",
"429 363 OFFCURVE",
"430 346 OFFCURVE",
"429 329 CURVE SMOOTH",
"424 220 OFFCURVE",
"437 62 OFFCURVE",
"313 16 CURVE",
"278 -1 OFFCURVE",
"239 -8 OFFCURVE",
"200 -8 CURVE SMOOTH",
"175 -8 OFFCURVE",
"151 -5 OFFCURVE",
"126 0 CURVE",
"27 29 OFFCURVE",
"3 157 OFFCURVE",
"3 257 CURVE SMOOTH",
"3 268 OFFCURVE",
"3 277 OFFCURVE",
"4 288 CURVE",
"20 291 OFFCURVE",
"42 293 OFFCURVE",
"67 293 CURVE SMOOTH",
"98 293 OFFCURVE",
"132 290 OFFCURVE",
"159 286 CURVE",
"159 280 LINE",
"162 232 OFFCURVE",
"172 165 OFFCURVE",
"229 165 CURVE SMOOTH",
"262 165 OFFCURVE",
"277 200 OFFCURVE",
"280 236 CURVE",
"277 328 OFFCURVE",
"276 422 OFFCURVE",
"276 519 CURVE SMOOTH",
"276 580 OFFCURVE",
"277 641 OFFCURVE",
"279 703 CURVE SMOOTH"
);
}
);
width = 463;
}
);
leftKerningGroup = J;
note = J;
rightKerningGroup = J;
unicode = 004A;
},
{
glyphname = K;
layers = (
{
hints = (
{
horizontal = 1;
place = "{-31, 30}";
type = Stem;
},
{
horizontal = 1;
place = "{516, -20}";
target = down;
type = TopGhost;
},
{
horizontal = 1;
place = "{699, 10}";
type = Stem;
},
{
place = "{35, 10}";
type = Stem;
},
{
place = "{180, 30}";
type = Stem;
},
{
horizontal = 1;
place = "{-23, 28}";
type = Stem;
},
{
place = "{29, 10}";
type = Stem;
},
{
place = "{185, 30}";
type = Stem;
}
);
layerId = "D68BD575-7350-49C7-85EB-1FC0FDA2B601";
paths = (
{
closed = 1;
nodes = (
"323 340 LINE",
"368 444 OFFCURVE",
"455 553 OFFCURVE",
"495 683 CURVE",
"469 686 LINE",
"472 693 OFFCURVE",
"472 696 OFFCURVE",
"475 703 CURVE",
"448 707 OFFCURVE",
"427 708 OFFCURVE",
"406 708 CURVE SMOOTH",
"383 708 OFFCURVE",
"364 707 OFFCURVE",
"340 707 CURVE SMOOTH",
"333 707 OFFCURVE",
"328 708 OFFCURVE",
"321 708 CURVE",
"268 634 OFFCURVE",
"245 578 OFFCURVE",
"210 516 CURVE",
"210 557 LINE SMOOTH",
"210 598 OFFCURVE",
"210 648 OFFCURVE",
"209 687 CURVE",
"189 687 LINE",
"189 707 LINE",
"146 707 OFFCURVE",
"106 709 OFFCURVE",
"59 709 CURVE SMOOTH",
"35 709 LINE",
"35 534 OFFCURVE",
"29 367 OFFCURVE",
"29 200 CURVE SMOOTH",
"29 135 OFFCURVE",
"30 62 OFFCURVE",
"33 -3 CURVE",
"46 -6 OFFCURVE",
"49 0 OFFCURVE",
"53 -23 CURVE",
"76 -28 OFFCURVE",
"109 -32 OFFCURVE",
"140 -32 CURVE SMOOTH",
"168 -32 OFFCURVE",
"196 -30 OFFCURVE",
"219 -23 CURVE",
"219 37 OFFCURVE",
"215 114 OFFCURVE",
"215 182 CURVE",
"239 121 OFFCURVE",
"278 36 OFFCURVE",
"319 -8 CURVE",
"323 -8 LINE",
"328 -15 OFFCURVE",
"332 -21 OFFCURVE",
"339 -28 CURVE",
"370 -28 OFFCURVE",
"397 -31 OFFCURVE",
"428 -31 CURVE SMOOTH",
"448 -31 OFFCURVE",
"469 -30 OFFCURVE",
"497 -23 CURVE"
);
},
{
closed = 1;
nodes = (
"463 4 LINE",
"444 0 OFFCURVE",
"425 -1 OFFCURVE",
"406 -1 CURVE SMOOTH",
"378 -1 OFFCURVE",
"349 1 OFFCURVE",
"324 2 CURVE",
"267 67 OFFCURVE",
"228 189 OFFCURVE",
"186 263 CURVE",
"185 247 OFFCURVE",
"185 231 OFFCURVE",
"185 214 CURVE SMOOTH",
"185 145 OFFCURVE",
"189 65 OFFCURVE",
"189 5 CURVE",
"172 0 OFFCURVE",
"147 -2 OFFCURVE",
"120 -2 CURVE SMOOTH",
"91 -2 OFFCURVE",
"62 1 OFFCURVE",
"43 5 CURVE",
"40 70 OFFCURVE",
"39 136 OFFCURVE",
"39 201 CURVE SMOOTH",
"39 358 OFFCURVE",
"45 515 OFFCURVE",
"45 674 CURVE SMOOTH",
"45 691 OFFCURVE",
"38 699 OFFCURVE",
"64 699 CURVE SMOOTH",
"103 699 OFFCURVE",
"142 697 OFFCURVE",
"179 697 CURVE",
"180 673 OFFCURVE",
"180 648 OFFCURVE",
"180 623 CURVE SMOOTH",
"180 531 LINE SMOOTH",
"180 504 OFFCURVE",
"180 481 OFFCURVE",
"181 457 CURVE",
"182 458 LINE SMOOTH",
"183 459 OFFCURVE",
"184 461 OFFCURVE",
"186 463 CURVE",
"242 535 OFFCURVE",
"271 619 OFFCURVE",
"326 698 CURVE",
"334 697 OFFCURVE",
"343 697 OFFCURVE",
"352 697 CURVE SMOOTH",
"372 697 OFFCURVE",
"392 698 OFFCURVE",
"413 698 CURVE SMOOTH",
"430 698 OFFCURVE",
"446 697 OFFCURVE",
"462 695 CURVE",
"430 583 OFFCURVE",
"340 471 OFFCURVE",
"292 359 CURVE"
);
}
);
width = 459;
}
);
note = K;
rightKerningGroup = K;
unicode = 004B;
},
{
glyphname = L;
layers = (
{
hints = (
{
horizontal = 1;
place = "{-32, 29}";
type = Stem;
},
{
horizontal = 1;
place = "{151, 11}";
type = Stem;
},
{
horizontal = 1;
place = "{712, 10}";
type = Stem;
},
{
place = "{33, 10}";
type = Stem;
},
{
place = "{197, 30}";
type = Stem;
},
{
place = "{459, 27}";
type = Stem;
},
{
horizontal = 1;
place = "{-11, 10}";
type = Stem;
},
{
place = "{457.5, 11.5}";
type = Stem;
}
);
layerId = "D68BD575-7350-49C7-85EB-1FC0FDA2B601";
paths = (
{
closed = 1;
nodes = (
"487 72 LINE SMOOTH",
"487 75 OFFCURVE",
"486 78 OFFCURVE",
"486 82 CURVE SMOOTH",
"486 99 OFFCURVE",
"489 111 OFFCURVE",
"489 144 CURVE",
"469 142 LINE",
"469 164 LINE",
"458 163 OFFCURVE",
"445 162 OFFCURVE",
"428 162 CURVE SMOOTH",
"371 162 OFFCURVE",
"281 167 OFFCURVE",
"230 170 CURVE",
"230 210 LINE SMOOTH",
"230 327 OFFCURVE",
"227 448 OFFCURVE",
"227 567 CURVE SMOOTH",
"227 606 OFFCURVE",
"228 650 OFFCURVE",
"229 686 CURVE",
"222 689 OFFCURVE",
"216 690 OFFCURVE",
"208 693 CURVE",
"208 697 OFFCURVE",
"209 702 OFFCURVE",
"209 706 CURVE",
"184 717 OFFCURVE",
"146 722 OFFCURVE",
"113 722 CURVE SMOOTH",
"81 722 OFFCURVE",
"46 717 OFFCURVE",
"29 710 CURVE",
"33 563 OFFCURVE",
"33 454 OFFCURVE",
"33 349 CURVE SMOOTH",
"33 256 OFFCURVE",
"33 158 OFFCURVE",
"26 17 CURVE",
"26 -11 LINE",
"46 -11 LINE",
"46 -31 LINE",
"114 -32 OFFCURVE",
"177 -32 OFFCURVE",
"224 -32 CURVE SMOOTH",
"358 -32 OFFCURVE",
"408 -29 OFFCURVE",
"433 -29 CURVE SMOOTH",
"440 -29 OFFCURVE",
"445 -30 OFFCURVE",
"450 -30 CURVE SMOOTH",
"479 -30 OFFCURVE",
"489 -35 OFFCURVE",
"489 17 CURVE SMOOTH",
"489 30 OFFCURVE",
"488 47 OFFCURVE",
"487 71 CURVE"
);
},
{
closed = 1;
nodes = (
"457 91 LINE",
"458 67 OFFCURVE",
"459 50 OFFCURVE",
"459 37 CURVE SMOOTH",
"459 2 OFFCURVE",
"454 0 OFFCURVE",
"438 0 CURVE SMOOTH",
"431 0 OFFCURVE",
"425 1 OFFCURVE",
"416 1 CURVE SMOOTH",
"393 1 OFFCURVE",
"345 -3 OFFCURVE",
"215 -3 CURVE SMOOTH",
"167 -3 OFFCURVE",
"109 -2 OFFCURVE",
"36 -1 CURVE",
"36 17 LINE",
"43 158 OFFCURVE",
"43 256 OFFCURVE",
"43 349 CURVE SMOOTH",
"43 454 OFFCURVE",
"42 554 OFFCURVE",
"39 703 CURVE",
"52 708 OFFCURVE",
"82 712 OFFCURVE",
"113 712 CURVE SMOOTH",
"145 712 OFFCURVE",
"180 708 OFFCURVE",
"199 700 CURVE",
"198 661 OFFCURVE",
"197 621 OFFCURVE",
"197 580 CURVE SMOOTH",
"197 467 OFFCURVE",
"201 349 OFFCURVE",
"201 237 CURVE SMOOTH",
"201 210 OFFCURVE",
"200 186 OFFCURVE",
"200 159 CURVE SMOOTH",
"200 158 LINE",
"207 159 OFFCURVE",
"217 160 OFFCURVE",
"230 160 CURVE SMOOTH",
"287 160 OFFCURVE",
"399 151 OFFCURVE",
"444 151 CURVE SMOOTH",
"452 151 OFFCURVE",
"457 151 OFFCURVE",
"459 152 CURVE",
"459 135 OFFCURVE",
"456 118 OFFCURVE",
"456 101 CURVE"
);
}
);
width = 461;
}
);
note = L;
rightKerningGroup = L;
unicode = 004C;
},
{
glyphname = M;
layers = (
{
hints = (
{
horizontal = 1;
place = "{-28, 29}";
type = Stem;
},
{
horizontal = 1;
place = "{692, 10}";
type = Stem;
},
{
place = "{31, 10}";
type = Stem;
},
{
place = "{179, 30}";
type = Stem;
},
{
place = "{314, 10}";
type = Stem;
},
{
place = "{457.5, 30}";
type = Stem;
},
{
horizontal = 1;
place = "{-32, 31}";
type = Stem;
},
{
horizontal = 1;
place = "{213, 30}";
type = Stem;
},
{
place = "{459, 10.5}";
type = Stem;
}
);
layerId = "D68BD575-7350-49C7-85EB-1FC0FDA2B601";
paths = (
{
closed = 1;
nodes = (
"489 298 LINE",
"489 297 LINE",
"492 328 OFFCURVE",
"491 359 OFFCURVE",
"491 390 CURVE SMOOTH",
"491 462 OFFCURVE",
"489 529 OFFCURVE",
"489 601 CURVE SMOOTH",
"489 626 OFFCURVE",
"489 662 OFFCURVE",
"490 687 CURVE",
"469 687 LINE",
"469 694 OFFCURVE",
"470 700 OFFCURVE",
"470 707 CURVE",
"431 707 OFFCURVE",
"368 702 OFFCURVE",
"332 702 CURVE SMOOTH",
"321 702 OFFCURVE",
"315 703 OFFCURVE",
"308 704 CURVE",
"287 675 OFFCURVE",
"264 601 OFFCURVE",
"256 566 CURVE",
"243 600 OFFCURVE",
"227 656 OFFCURVE",
"205 681 CURVE",
"202 681 OFFCURVE",
"202 680 OFFCURVE",
"199 680 CURVE",
"185 701 LINE",
"174 700 OFFCURVE",
"167 700 OFFCURVE",
"156 700 CURVE SMOOTH",
"135 700 OFFCURVE",
"114 702 OFFCURVE",
"95 702 CURVE SMOOTH",
"75 702 OFFCURVE",
"55 700 OFFCURVE",
"34 693 CURVE",
"31 436 OFFCURVE",
"31 268 OFFCURVE",
"31 165 CURVE SMOOTH",
"31 47 OFFCURVE",
"31 10 OFFCURVE",
"34 2 CURVE",
"38 -6 OFFCURVE",
"43 -10 OFFCURVE",
"48 -10 CURVE SMOOTH",
"53 -10 LINE",
"53 -38 OFFCURVE",
"105 -32 OFFCURVE",
"136 -32 CURVE SMOOTH",
"165 -32 OFFCURVE",
"193 -30 OFFCURVE",
"219 -26 CURVE",
"214 50 OFFCURVE",
"209 137 OFFCURVE",
"209 214 CURVE SMOOTH",
"209 237 OFFCURVE",
"209 260 OFFCURVE",
"210 284 CURVE",
"222 256 OFFCURVE",
"235 234 OFFCURVE",
"246 233 CURVE",
"254 220 OFFCURVE",
"261 213 OFFCURVE",
"266 213 CURVE SMOOTH",
"282 213 OFFCURVE",
"294 252 OFFCURVE",
"309 292 CURVE",
"312 212 OFFCURVE",
"309 86 OFFCURVE",
"314 -10 CURVE",
"318 -10 OFFCURVE",
"325 -9 OFFCURVE",
"333 -9 CURVE",
"333 -16 OFFCURVE",
"333 -23 OFFCURVE",
"334 -30 CURVE",
"361 -30 OFFCURVE",
"390 -28 OFFCURVE",
"422 -28 CURVE SMOOTH",
"442 -28 OFFCURVE",
"465 -29 OFFCURVE",
"486 -32 CURVE"
);
},
{
closed = 1;
nodes = (
"456 -1 LINE",
"445 0 OFFCURVE",
"435 1 OFFCURVE",
"423 1 CURVE SMOOTH",
"387 1 LINE SMOOTH",
"363 1 OFFCURVE",
"340 0 OFFCURVE",
"324 0 CURVE",
"319 114 OFFCURVE",
"323 277 OFFCURVE",
"310 389 CURVE",
"294 362 OFFCURVE",
"257 243 OFFCURVE",
"247 243 CURVE SMOOTH",
"231 243 OFFCURVE",
"199 343 OFFCURVE",
"188 372 CURVE",
"185 382 LINE",
"181 333 OFFCURVE",
"179 283 OFFCURVE",
"179 234 CURVE SMOOTH",
"179 155 OFFCURVE",
"183 79 OFFCURVE",
"188 3 CURVE",
"168 0 OFFCURVE",
"146 -1 OFFCURVE",
"123 -1 CURVE SMOOTH",
"96 -1 OFFCURVE",
"71 0 OFFCURVE",
"48 0 CURVE SMOOTH",
"42 0 OFFCURVE",
"41 24 OFFCURVE",
"41 165 CURVE SMOOTH",
"41 266 OFFCURVE",
"41 430 OFFCURVE",
"44 686 CURVE",
"57 690 OFFCURVE",
"74 691 OFFCURVE",
"93 691 CURVE SMOOTH",
"109 691 LINE",
"145 690 LINE SMOOTH",
"157 690 OFFCURVE",
"169 690 OFFCURVE",
"180 691 CURVE",
"181 691 LINE",
"202 667 OFFCURVE",
"236 537 OFFCURVE",
"253 537 CURVE",
"260 535 OFFCURVE",
"289 662 OFFCURVE",
"312 693 CURVE",
"314 692 OFFCURVE",
"319 692 OFFCURVE",
"328 692 CURVE SMOOTH",
"359 692 OFFCURVE",
"425 697 OFFCURVE",
"460 697 CURVE",
"459 672 OFFCURVE",
"459 646 OFFCURVE",
"459 621 CURVE SMOOTH",
"459 552 OFFCURVE",
"461 484 OFFCURVE",
"461 416 CURVE SMOOTH",
"461 383 OFFCURVE",
"462 351 OFFCURVE",
"459 318 CURVE"
);
}
);
width = 501;
}
);
note = M;
rightKerningGroup = I;
unicode = 004D;
},
{
glyphname = N;
layers = (
{
hints = (
{
horizontal = 1;
place = "{-35, 30}";
type = Stem;
},
{
horizontal = 1;
place = "{704, 16}";
type = Stem;
},
{
place = "{29, 10}";
type = Stem;
},
{
place = "{181, 29}";
type = Stem;
},
{
place = "{309, 10}";
type = Stem;
},
{
place = "{456, 30}";
type = Stem;
},
{
horizontal = 1;
place = "{-10, 10}";
type = Stem;
},
{
horizontal = 1;
place = "{704, 10}";
type = Stem;
},
{
horizontal = 1;
place = "{0, 21}";
target = up;
type = BottomGhost;
}
);
layerId = "D68BD575-7350-49C7-85EB-1FC0FDA2B601";
paths = (
{
closed = 1;
nodes = (
"346 -30 LINE",
"375 -30 OFFCURVE",
"413 -35 OFFCURVE",
"444 -35 CURVE SMOOTH",
"467 -35 OFFCURVE",
"479 -29 OFFCURVE",
"486 -28 CURVE",
"487 0 LINE",
"487 13 OFFCURVE",
"486 27 OFFCURVE",
"486 40 CURVE SMOOTH",
"486 134 LINE SMOOTH",
"486 153 OFFCURVE",
"487 171 OFFCURVE",
"487 191 CURVE",
"486 362 LINE",
"486 692 LINE",
"466 695 LINE",
"466 712 LINE",
"441 717 OFFCURVE",
"417 720 OFFCURVE",
"390 720 CURVE SMOOTH",
"361 720 OFFCURVE",
"333 718 OFFCURVE",
"308 713 CURVE",
"308 691 LINE SMOOTH",
"308 664 OFFCURVE",
"305 639 OFFCURVE",
"306 615 CURVE",
"306 564 OFFCURVE",
"309 522 OFFCURVE",
"309 470 CURVE SMOOTH",
"309 449 LINE",
"240 596 OFFCURVE",
"233 611 OFFCURVE",
"206 675 CURVE",
"203 680 OFFCURVE",
"190 679 OFFCURVE",
"186 695 CURVE SMOOTH",
"183 707 OFFCURVE",
"112 714 OFFCURVE",
"93 714 CURVE SMOOTH",
"77 714 OFFCURVE",
"59 713 OFFCURVE",
"39 708 CURVE",
"31 613 OFFCURVE",
"29 523 OFFCURVE",
"29 432 CURVE SMOOTH",
"29 308 OFFCURVE",
"32 198 OFFCURVE",
"32 71 CURVE SMOOTH",
"32 -9 LINE",
"52 -9 LINE",
"52 -29 LINE",
"87 -29 OFFCURVE",
"122 -35 OFFCURVE",
"158 -35 CURVE SMOOTH",
"175 -35 OFFCURVE",
"191 -35 OFFCURVE",
"212 -28 CURVE",
"209 47 OFFCURVE",
"210 171 OFFCURVE",
"210 249 CURVE",
"238 173 OFFCURVE",
"283 86 OFFCURVE",
"326 -10 CURVE",
"337 -10 LINE"
);
},
{
closed = 1;
nodes = (
"457 0 LINE",
"454 -1 OFFCURVE",
"447 -5 OFFCURVE",
"424 -5 CURVE SMOOTH",
"397 -5 OFFCURVE",
"359 0 OFFCURVE",
"332 0 CURVE",
"288 100 OFFCURVE",
"242 192 OFFCURVE",
"211 277 CURVE SMOOTH",
"201 307 LINE SMOOTH",
"196 322 OFFCURVE",
"191 337 OFFCURVE",
"188 337 CURVE SMOOTH",
"184 337 OFFCURVE",
"181 195 OFFCURVE",
"181 83 CURVE SMOOTH",
"181 38 LINE SMOOTH",
"181 23 OFFCURVE",
"181 11 OFFCURVE",
"182 0 CURVE",
"167 -4 OFFCURVE",
"153 -5 OFFCURVE",
"138 -5 CURVE SMOOTH",
"106 -5 OFFCURVE",
"73 1 OFFCURVE",
"42 1 CURVE",
"42 71 LINE SMOOTH",
"42 198 OFFCURVE",
"39 307 OFFCURVE",
"39 432 CURVE SMOOTH",
"39 524 OFFCURVE",
"41 615 OFFCURVE",
"48 700 CURVE",
"61 703 OFFCURVE",
"77 704 OFFCURVE",
"93 704 CURVE SMOOTH",
"110 704 OFFCURVE",
"176 700 OFFCURVE",
"176 694 CURVE",
"181 682 OFFCURVE",
"185 672 OFFCURVE",
"189 664 CURVE SMOOTH",
"200 641 LINE SMOOTH",
"207 626 OFFCURVE",
"216 610 OFFCURVE",
"228 582 CURVE SMOOTH",
"236 563 OFFCURVE",
"309 415 OFFCURVE",
"312 415 CURVE",
"316 418 OFFCURVE",
"319 447 OFFCURVE",
"319 470 CURVE SMOOTH",
"319 523 OFFCURVE",
"316 567 OFFCURVE",
"316 615 CURVE SMOOTH",
"316 643 OFFCURVE",
"317 671 OFFCURVE",
"318 704 CURVE",
"341 708 OFFCURVE",
"365 710 OFFCURVE",
"390 710 CURVE SMOOTH",
"415 710 OFFCURVE",
"437 708 OFFCURVE",
"456 704 CURVE",
"456 382 LINE",
"457 354 OFFCURVE",
"457 326 OFFCURVE",
"457 297 CURVE SMOOTH",
"457 211 LINE SMOOTH",
"457 172 OFFCURVE",
"456 137 OFFCURVE",
"456 100 CURVE SMOOTH",
"456 73 OFFCURVE",
"457 47 OFFCURVE",
"457 20 CURVE SMOOTH"
);
}
);
width = 498;
}
);
note = N;
rightKerningGroup = I;
unicode = 004E;
},
{
glyphname = Ntilde;
layers = (
{
hints = (
{
horizontal = 1;
place = "{-33, 25}";
type = Stem;
},
{
horizontal = 1;
place = "{514, -20}";
target = down;
type = TopGhost;
},
{
horizontal = 1;
place = "{706, 10}";
type = Stem;
},
{
horizontal = 1;
place = "{726, 30}";
type = Stem;
},
{
horizontal = 1;
place = "{791, 30}";
type = Stem;
},
{
horizontal = 1;
place = "{845, 10}";
type = Stem;
},
{
horizontal = 1;
place = "{919, 10}";
type = Stem;
},
{
place = "{28, 10}";
type = Stem;
},
{
place = "{172, 30}";
type = Stem;
},
{
place = "{304, 10}";
type = Stem;
},
{
place = "{473.5, 30}";
type = Stem;
},
{
horizontal = 1;
place = "{718, 30}";
type = Stem;
},
{
horizontal = 1;
place = "{911, 9}";
type = Stem;
},
{
place = "{200, 30}";
type = Stem;
},
{
place = "{371, 7}";
type = Stem;
},
{
place = "{464, 9}";
type = Stem;
},
{
horizontal = 1;
place = "{701, 10}";
type = Stem;
},
{
horizontal = 1;
place = "{-28, 30}";
type = Stem;
},
{
place = "{32, 10}";
type = Stem;
},
{
horizontal = 1;
place = "{-14, 11}";
type = Stem;
},
{
horizontal = 1;
place = "{0, 21}";
target = up;
type = BottomGhost;
}
);
layerId = "D68BD575-7350-49C7-85EB-1FC0FDA2B601";
paths = (
{
closed = 1;
nodes = (
"206 736 LINE",
"203 743 OFFCURVE",
"202 750 OFFCURVE",
"202 755 CURVE SMOOTH",
"202 780 OFFCURVE",
"225 791 OFFCURVE",
"246 791 CURVE SMOOTH",
"249 791 OFFCURVE",
"253 790 OFFCURVE",
"258 789 CURVE",
"274 750 OFFCURVE",
"320 718 OFFCURVE",
"368 718 CURVE SMOOTH",
"441 718 OFFCURVE",
"494 791 OFFCURVE",
"494 872 CURVE SMOOTH",
"494 888 OFFCURVE",
"496 900 OFFCURVE",
"473 900 CURVE",
"473 925 OFFCURVE",
"457 920 OFFCURVE",
"448 920 CURVE SMOOTH",
"424 920 OFFCURVE",
"406 921 OFFCURVE",
"371 917 CURVE",
"366 898 OFFCURVE",
"345 855 OFFCURVE",
"324 855 CURVE SMOOTH",
"317 855 OFFCURVE",
"311 857 OFFCURVE",
"308 864 CURVE",
"308 863 LINE",
"284 895 OFFCURVE",
"244 929 OFFCURVE",
"201 929 CURVE SMOOTH",
"109 929 OFFCURVE",
"66 826 OFFCURVE",
"45 744 CURVE",
"52 744 OFFCURVE",
"60 745 OFFCURVE",
"71 745 CURVE",
"68 737 OFFCURVE",
"66 731 OFFCURVE",
"65 724 CURVE",
"82 725 OFFCURVE",
"113 726 OFFCURVE",
"128 726 CURVE SMOOTH",
"155 726 OFFCURVE",
"181 725 OFFCURVE",
"194 722 CURVE"
);
},
{
closed = 1;
nodes = (
"176 752 LINE",
"163 755 OFFCURVE",
"135 756 OFFCURVE",
"108 756 CURVE SMOOTH",
"93 756 OFFCURVE",
"76 756 OFFCURVE",
"59 755 CURVE",
"78 824 OFFCURVE",
"116 919 OFFCURVE",
"200 919 CURVE SMOOTH",
"272 919 OFFCURVE",
"283 845 OFFCURVE",
"324 845 CURVE SMOOTH",
"351 845 OFFCURVE",
"372 888 OFFCURVE",
"378 908 CURVE",
"405 911 OFFCURVE",
"432 910 OFFCURVE",
"460 911 CURVE",
"462 909 LINE",
"463 902 OFFCURVE",
"464 895 OFFCURVE",
"464 888 CURVE SMOOTH",
"464 817 OFFCURVE",
"416 748 OFFCURVE",
"348 748 CURVE SMOOTH",
"313 748 OFFCURVE",
"280 763 OFFCURVE",
"265 798 CURVE",
"256 813 OFFCURVE",
"246 821 OFFCURVE",
"226 821 CURVE SMOOTH",
"195 821 OFFCURVE",
"172 801 OFFCURVE",
"172 773 CURVE SMOOTH",
"172 767 OFFCURVE",
"173 760 OFFCURVE",
"176 753 CURVE"
);
},
{
closed = 1;
nodes = (
"506 -4 LINE",
"502 116 OFFCURVE",
"506 237 OFFCURVE",
"503 362 CURVE",
"504 690 LINE",
"499 691 OFFCURVE",
"493 692 OFFCURVE",
"484 693 CURVE",
"484 710 LINE",
"469 713 OFFCURVE",
"437 716 OFFCURVE",
"402 716 CURVE SMOOTH",
"373 716 OFFCURVE",
"338 714 OFFCURVE",
"309 707 CURVE",
"305 680 OFFCURVE",
"304 661 OFFCURVE",
"304 641 CURVE SMOOTH",
"304 594 OFFCURVE",
"310 550 OFFCURVE",
"310 514 CURVE",
"309 517 OFFCURVE",
"307 518 OFFCURVE",
"306 521 CURVE",
"269 580 OFFCURVE",
"228 651 OFFCURVE",
"223 675 CURVE",
"204 678 OFFCURVE",
"206 686 OFFCURVE",
"203 695 CURVE",
"172 704 OFFCURVE",
"129 711 OFFCURVE",
"94 711 CURVE SMOOTH",
"75 711 OFFCURVE",
"57 709 OFFCURVE",
"38 701 CURVE",
"31 610 OFFCURVE",
"28 513 OFFCURVE",
"28 417 CURVE SMOOTH",
"28 289 OFFCURVE",
"32 168 OFFCURVE",
"32 47 CURVE SMOOTH",
"32 -11 LINE",
"52 -8 LINE",
"52 -31 LINE",
"65 -29 OFFCURVE",
"77 -28 OFFCURVE",
"88 -28 CURVE SMOOTH",
"127 -28 OFFCURVE",
"155 -36 OFFCURVE",
"188 -36 CURVE SMOOTH",
"203 -36 OFFCURVE",
"216 -33 OFFCURVE",
"231 -29 CURVE",
"231 8 OFFCURVE",
"230 50 OFFCURVE",
"230 83 CURVE SMOOTH",
"230 122 OFFCURVE",
"231 160 OFFCURVE",
"232 199 CURVE",
"260 127 OFFCURVE",
"290 52 OFFCURVE",
"321 -16 CURVE",
"324 -15 OFFCURVE",
"328 -15 OFFCURVE",
"331 -14 CURVE",
"334 -22 OFFCURVE",
"338 -29 OFFCURVE",
"341 -36 CURVE",
"352 -34 OFFCURVE",
"364 -33 OFFCURVE",
"377 -33 CURVE SMOOTH",
"406 -33 OFFCURVE",
"435 -38 OFFCURVE",
"459 -38 CURVE SMOOTH",
"480 -38 OFFCURVE",
"498 -33 OFFCURVE",
"505 -18 CURVE"
);
},
{
closed = 1;
nodes = (
"475 3 LINE",
"471 -4 OFFCURVE",
"459 -8 OFFCURVE",
"438 -8 CURVE SMOOTH",
"411 -8 OFFCURVE",
"378 -3 OFFCURVE",
"351 -3 CURVE SMOOTH",
"342 -3 OFFCURVE",
"335 -4 OFFCURVE",
"328 -5 CURVE",
"327 -5 LINE",
"283 92 OFFCURVE",
"242 202 OFFCURVE",
"207 294 CURVE",
"202 227 OFFCURVE",
"200 167 OFFCURVE",
"200 103 CURVE SMOOTH",
"200 70 OFFCURVE",
"201 36 OFFCURVE",
"202 0 CURVE",
"201 -1 LINE",
"192 -4 OFFCURVE",
"181 -6 OFFCURVE",
"166 -6 CURVE SMOOTH",
"135 -6 OFFCURVE",
"98 2 OFFCURVE",
"66 2 CURVE SMOOTH",
"58 2 OFFCURVE",
"50 1 OFFCURVE",
"43 0 CURVE",
"42 1 LINE",
"42 63 LINE SMOOTH",
"42 183 OFFCURVE",
"38 305 OFFCURVE",
"38 428 CURVE SMOOTH",
"38 520 OFFCURVE",
"41 607 OFFCURVE",
"48 695 CURVE",
"59 699 OFFCURVE",
"74 701 OFFCURVE",
"94 701 CURVE SMOOTH",
"127 701 OFFCURVE",
"167 695 OFFCURVE",
"194 688 CURVE",
"194 687 LINE",
"199 660 OFFCURVE",
"279 538 OFFCURVE",
"316 474 CURVE",
"319 484 OFFCURVE",
"320 497 OFFCURVE",
"320 514 CURVE SMOOTH",
"320 550 OFFCURVE",
"314 597 OFFCURVE",
"314 642 CURVE SMOOTH",
"314 663 OFFCURVE",
"315 681 OFFCURVE",
"318 696 CURVE",
"318 699 LINE",
"341 704 OFFCURVE",
"373 706 OFFCURVE",
"402 706 CURVE SMOOTH",
"435 706 OFFCURVE",
"465 703 OFFCURVE",
"474 702 CURVE",
"473 382 LINE SMOOTH",
"474 342 OFFCURVE",
"474 301 OFFCURVE",
"474 260 CURVE SMOOTH",
"474 162 LINE SMOOTH",
"474 114 OFFCURVE",
"473 65 OFFCURVE",
"476 17 CURVE"
);
}
);
width = 516;
}
);
note = Ntilde;
rightKerningGroup = I;
unicode = 00D1;
},
{
glyphname = O;
layers = (
{
hints = (
{
horizontal = 1;
place = "{-44, 30}";
type = Stem;
},
{
horizontal = 1;
place = "{126, 10}";
type = Stem;
},
{
horizontal = 1;
place = "{533, 30}";
type = Stem;
},
{
horizontal = 1;
place = "{700, 11}";
type = Stem;
},
{
place = "{18, 10}";
type = Stem;
},
{
place = "{136, 31}";
type = Stem;
},
{
place = "{320, 10}";
type = Stem;
},
{
place = "{455, 31}";
type = Stem;
}
);
layerId = "D68BD575-7350-49C7-85EB-1FC0FDA2B601";
paths = (
{
closed = 1;
nodes = (
"466 575 LINE",
"455 602 OFFCURVE",
"440 621 OFFCURVE",
"419 642 CURVE",
"379 690 OFFCURVE",
"304 711 OFFCURVE",
"240 711 CURVE SMOOTH",
"191 711 OFFCURVE",
"145 701 OFFCURVE",
"102 680 CURVE",
"11 627 OFFCURVE",
"18 474 OFFCURVE",
"18 390 CURVE SMOOTH",
"18 339 OFFCURVE",
"20 283 OFFCURVE",
"23 232 CURVE SMOOTH",
"26 174 OFFCURVE",
"21 103 OFFCURVE",
"51 52 CURVE",
"51 53 LINE",
"89 -25 OFFCURVE",
"163 -44 OFFCURVE",
"243 -44 CURVE SMOOTH",
"310 -44 OFFCURVE",
"397 -24 OFFCURVE",
"437 32 CURVE SMOOTH",
"464 72 OFFCURVE",
"473 125 OFFCURVE",
"477 172 CURVE SMOOTH",
"480 205 LINE SMOOTH",
"487 284 OFFCURVE",
"485 363 OFFCURVE",
"486 447 CURVE SMOOTH",
"486 491 OFFCURVE",
"485 535 OFFCURVE",
"466 576 CURVE"
);
},
{
closed = 1;
nodes = (
"322 700 OFFCURVE",
"410 669 OFFCURVE",
"437 592 CURVE",
"456 553 OFFCURVE",
"455 510 OFFCURVE",
"455 467 CURVE SMOOTH",
"455 383 OFFCURVE",
"457 306 OFFCURVE",
"450 226 CURVE SMOOTH",
"447 193 LINE SMOOTH",
"443 146 OFFCURVE",
"434 97 OFFCURVE",
"409 58 CURVE",
"372 6 OFFCURVE",
"287 -14 OFFCURVE",
"223 -14 CURVE SMOOTH",
"113 -14 OFFCURVE",
"39 22 OFFCURVE",
"36 168 CURVE SMOOTH",
"33 243 OFFCURVE",
"28 316 OFFCURVE",
"28 392 CURVE SMOOTH",
"28 471 OFFCURVE",
"23 584 OFFCURVE",
"84 653 CURVE",
"119 688 OFFCURVE",
"185 700 OFFCURVE",
"240 700 CURVE SMOOTH"
);
},
{
closed = 1;
nodes = (
"330 348 LINE",
"328 416 LINE",
"328 444 OFFCURVE",
"327 563 OFFCURVE",
"247 563 CURVE SMOOTH",
"146 563 OFFCURVE",
"136 437 OFFCURVE",
"136 362 CURVE SMOOTH",
"136 345 OFFCURVE",
"137 328 OFFCURVE",
"138 311 CURVE",
"149 235 OFFCURVE",
"134 126 OFFCURVE",
"235 126 CURVE SMOOTH",
"262 126 OFFCURVE",
"291 136 OFFCURVE",
"308 157 CURVE",
"332 184 OFFCURVE",
"330 213 OFFCURVE",
"330 300 CURVE SMOOTH"
);
},
{
closed = 1;
nodes = (
"318 416 LINE",
"320 348 LINE",
"320 300 LINE SMOOTH",
"320 204 OFFCURVE",
"322 191 OFFCURVE",
"300 163 CURVE",
"301 164 LINE",
"284 145 OFFCURVE",
"260 136 OFFCURVE",
"235 136 CURVE SMOOTH",
"217 136 OFFCURVE",
"202 140 OFFCURVE",
"189 148 CURVE",
"186 154 LINE",
"187 153 LINE",
"174 198 OFFCURVE",
"176 246 OFFCURVE",
"168 293 CURVE",
"168 292 LINE",
"167 309 OFFCURVE",
"167 325 OFFCURVE",
"167 342 CURVE SMOOTH",
"167 381 OFFCURVE",
"169 418 OFFCURVE",
"177 453 CURVE",
"177 452 LINE",
"187 494 OFFCURVE",
"225 533 OFFCURVE",
"268 533 CURVE SMOOTH",
"319 533 OFFCURVE",
"315 456 OFFCURVE",
"318 420 CURVE"
);
}
);
width = 483;
}
);
leftKerningGroup = G;
note = O;
rightKerningGroup = O;
unicode = 004F;
},
{
glyphname = Oacute;
layers = (
{
hints = (
{
horizontal = 1;
place = "{-39, 30}";
type = Stem;
},
{
horizontal = 1;
place = "{131, 10}";
type = Stem;
},
{
horizontal = 1;
place = "{538, 30}";
type = Stem;
},
{
horizontal = 1;
place = "{705, 11}";
type = Stem;
},
{
place = "{19, 10}";
type = Stem;
},
{
place = "{137, 31}";
type = Stem;
},
{
place = "{321, 10}";
type = Stem;
},
{
place = "{456, 31}";
type = Stem;
},
{
horizontal = 1;
place = "{718, 30}";
type = Stem;
}
);
layerId = "D68BD575-7350-49C7-85EB-1FC0FDA2B601";
paths = (
{
closed = 1;
nodes = (
"354 910 LINE",
"353 909 LINE",
"334 930 LINE",
"267 877 OFFCURVE",
"225 821 OFFCURVE",
"145 749 CURVE",
"153 746 OFFCURVE",
"165 745 OFFCURVE",
"180 742 CURVE",
"165 729 LINE",
"188 722 OFFCURVE",
"235 718 OFFCURVE",
"272 718 CURVE SMOOTH",
"288 718 OFFCURVE",
"305 718 OFFCURVE",
"326 721 CURVE",
"334 735 OFFCURVE",
"369 767 OFFCURVE",
"398 791 CURVE",
"397 791 LINE",
"409 802 OFFCURVE",
"424 815 OFFCURVE",
"435 826 CURVE"
);
},
{
closed = 1;
nodes = (
"402 847 LINE",
"401 846 LINE SMOOTH",
"383 828 OFFCURVE",
"311 769 OFFCURVE",
"300 750 CURVE",
"285 747 OFFCURVE",
"270 748 OFFCURVE",
"251 748 CURVE SMOOTH",
"215 748 OFFCURVE",
"178 750 OFFCURVE",
"166 754 CURVE",
"212 798 OFFCURVE",
"286 880 OFFCURVE",
"333 917 CURVE"
);
},
{
closed = 1;
nodes = (
"467 580 LINE",
"456 607 OFFCURVE",
"441 626 OFFCURVE",
"420 647 CURVE",
"380 695 OFFCURVE",
"305 716 OFFCURVE",
"241 716 CURVE SMOOTH",
"192 716 OFFCURVE",
"146 706 OFFCURVE",
"103 685 CURVE",
"12 632 OFFCURVE",
"19 479 OFFCURVE",
"19 395 CURVE SMOOTH",
"19 344 OFFCURVE",
"21 288 OFFCURVE",
"24 237 CURVE SMOOTH",
"27 179 OFFCURVE",
"22 108 OFFCURVE",
"52 57 CURVE",
"52 58 LINE",
"90 -20 OFFCURVE",
"164 -39 OFFCURVE",
"244 -39 CURVE SMOOTH",
"311 -39 OFFCURVE",
"398 -19 OFFCURVE",
"438 37 CURVE SMOOTH",
"465 77 OFFCURVE",
"474 130 OFFCURVE",
"478 177 CURVE SMOOTH",
"481 210 LINE SMOOTH",
"488 289 OFFCURVE",
"486 368 OFFCURVE",
"487 452 CURVE SMOOTH",
"487 496 OFFCURVE",
"486 540 OFFCURVE",
"467 581 CURVE"
);
},
{
closed = 1;
nodes = (
"323 705 OFFCURVE",
"411 674 OFFCURVE",
"438 597 CURVE",
"457 558 OFFCURVE",
"456 515 OFFCURVE",
"456 472 CURVE SMOOTH",
"456 388 OFFCURVE",
"458 311 OFFCURVE",
"451 231 CURVE SMOOTH",
"448 198 LINE SMOOTH",
"444 151 OFFCURVE",
"435 102 OFFCURVE",
"410 63 CURVE",
"373 11 OFFCURVE",
"288 -9 OFFCURVE",
"224 -9 CURVE SMOOTH",
"114 -9 OFFCURVE",
"40 27 OFFCURVE",
"37 173 CURVE SMOOTH",
"34 248 OFFCURVE",
"29 321 OFFCURVE",
"29 397 CURVE SMOOTH",
"29 476 OFFCURVE",
"24 589 OFFCURVE",
"85 658 CURVE",
"120 693 OFFCURVE",
"186 705 OFFCURVE",
"241 705 CURVE SMOOTH"
);
},
{
closed = 1;
nodes = (
"331 353 LINE",
"329 421 LINE",
"329 449 OFFCURVE",
"328 568 OFFCURVE",
"248 568 CURVE SMOOTH",
"147 568 OFFCURVE",
"137 442 OFFCURVE",
"137 367 CURVE SMOOTH",
"137 350 OFFCURVE",
"138 333 OFFCURVE",
"139 316 CURVE",
"150 240 OFFCURVE",
"135 131 OFFCURVE",
"236 131 CURVE SMOOTH",
"263 131 OFFCURVE",
"292 141 OFFCURVE",
"309 162 CURVE",
"333 189 OFFCURVE",
"331 218 OFFCURVE",
"331 305 CURVE SMOOTH"
);
},
{
closed = 1;
nodes = (
"319 421 LINE",
"321 353 LINE",
"321 305 LINE SMOOTH",
"321 209 OFFCURVE",
"323 196 OFFCURVE",
"301 168 CURVE",
"302 169 LINE",
"285 150 OFFCURVE",
"261 141 OFFCURVE",
"236 141 CURVE SMOOTH",
"218 141 OFFCURVE",
"203 145 OFFCURVE",
"190 153 CURVE",
"187 159 LINE",
"188 158 LINE",
"175 203 OFFCURVE",
"177 251 OFFCURVE",
"169 298 CURVE",
"169 297 LINE",
"168 314 OFFCURVE",
"168 330 OFFCURVE",
"168 347 CURVE SMOOTH",
"168 386 OFFCURVE",
"170 423 OFFCURVE",
"178 458 CURVE",
"178 457 LINE",
"188 499 OFFCURVE",
"226 538 OFFCURVE",
"269 538 CURVE SMOOTH",
"320 538 OFFCURVE",
"316 461 OFFCURVE",
"319 425 CURVE"
);
}
);
width = 485;
}
);
leftKerningGroup = G;
note = Oacute;
rightKerningGroup = O;
unicode = 00D3;
},
{
glyphname = Ocircumflex;
layers = (
{
hints = (
{
horizontal = 1;
place = "{-39, 30}";
type = Stem;
},
{
horizontal = 1;
place = "{131, 10}";
type = Stem;
},
{
horizontal = 1;
place = "{538, 30}";
type = Stem;
},
{
horizontal = 1;
place = "{705, 11}";
type = Stem;
},
{
place = "{18, 10}";
type = Stem;
},
{
place = "{136, 31}";
type = Stem;
},
{
place = "{320, 10}";
type = Stem;
},
{
place = "{455, 31}";
type = Stem;
},
{
horizontal = 1;
place = "{719, 30}";
type = Stem;
}
);
layerId = "D68BD575-7350-49C7-85EB-1FC0FDA2B601";
paths = (
{
closed = 1;
nodes = (
"437 743 LINE",
"247 932 LINE",
"183 874 OFFCURVE",
"128 829 OFFCURVE",
"66 746 CURVE",
"99 743 LINE",
"95 738 OFFCURVE",
"90 733 OFFCURVE",
"86 726 CURVE",
"150 722 OFFCURVE",
"183 719 OFFCURVE",
"194 719 CURVE SMOOTH",
"227 719 OFFCURVE",
"242 754 OFFCURVE",
"261 768 CURVE",
"309 712 OFFCURVE",
"320 719 OFFCURVE",
"351 719 CURVE SMOOTH",
"388 719 OFFCURVE",
"424 726 OFFCURVE",
"424 727 CURVE SMOOTH",
"424 728 OFFCURVE",
"424 728 OFFCURVE",
"423 729 CURVE"
);
},
{
closed = 1;
nodes = (
"410 756 LINE",
"408 756 LINE SMOOTH",
"401 756 OFFCURVE",
"372 749 OFFCURVE",
"332 749 CURVE SMOOTH",
"320 749 OFFCURVE",
"308 748 OFFCURVE",
"295 751 CURVE",
"285 751 OFFCURVE",
"257 792 OFFCURVE",
"244 800 CURVE",
"234 795 OFFCURVE",
"202 754 OFFCURVE",
"192 751 CURVE",
"184 750 OFFCURVE",
"179 749 OFFCURVE",
"174 749 CURVE SMOOTH",
"161 749 OFFCURVE",
"144 750 OFFCURVE",
"85 755 CURVE",
"130 816 OFFCURVE",
"187 862 OFFCURVE",
"247 918 CURVE"
);
},
{
closed = 1;
nodes = (
"466 580 LINE",
"455 607 OFFCURVE",
"440 626 OFFCURVE",
"419 647 CURVE",
"379 695 OFFCURVE",
"304 716 OFFCURVE",
"240 716 CURVE SMOOTH",
"191 716 OFFCURVE",
"145 706 OFFCURVE",
"102 685 CURVE",
"11 632 OFFCURVE",
"18 479 OFFCURVE",
"18 395 CURVE SMOOTH",
"18 344 OFFCURVE",
"20 288 OFFCURVE",
"23 237 CURVE SMOOTH",
"26 179 OFFCURVE",
"21 108 OFFCURVE",
"51 57 CURVE",
"51 58 LINE",
"89 -20 OFFCURVE",
"163 -39 OFFCURVE",
"243 -39 CURVE SMOOTH",
"310 -39 OFFCURVE",
"397 -19 OFFCURVE",
"437 37 CURVE SMOOTH",
"464 77 OFFCURVE",
"473 130 OFFCURVE",
"477 177 CURVE SMOOTH",
"480 210 LINE SMOOTH",
"487 289 OFFCURVE",
"485 368 OFFCURVE",
"486 452 CURVE SMOOTH",
"486 496 OFFCURVE",
"485 540 OFFCURVE",
"466 581 CURVE"
);
},
{
closed = 1;
nodes = (
"322 705 OFFCURVE",
"410 674 OFFCURVE",
"437 597 CURVE",
"456 558 OFFCURVE",
"455 515 OFFCURVE",
"455 472 CURVE SMOOTH",
"455 388 OFFCURVE",
"457 311 OFFCURVE",
"450 231 CURVE SMOOTH",
"447 198 LINE SMOOTH",
"443 151 OFFCURVE",
"434 102 OFFCURVE",
"409 63 CURVE",
"372 11 OFFCURVE",
"287 -9 OFFCURVE",
"223 -9 CURVE SMOOTH",
"113 -9 OFFCURVE",
"39 27 OFFCURVE",
"36 173 CURVE SMOOTH",
"33 248 OFFCURVE",
"28 321 OFFCURVE",
"28 397 CURVE SMOOTH",
"28 476 OFFCURVE",
"23 589 OFFCURVE",
"84 658 CURVE",
"119 693 OFFCURVE",
"185 705 OFFCURVE",
"240 705 CURVE SMOOTH"
);
},
{
closed = 1;
nodes = (
"330 353 LINE",
"328 421 LINE",
"328 449 OFFCURVE",
"327 568 OFFCURVE",
"247 568 CURVE SMOOTH",
"146 568 OFFCURVE",
"136 442 OFFCURVE",
"136 367 CURVE SMOOTH",
"136 350 OFFCURVE",
"137 333 OFFCURVE",
"138 316 CURVE",
"149 240 OFFCURVE",
"134 131 OFFCURVE",
"235 131 CURVE SMOOTH",
"262 131 OFFCURVE",
"291 141 OFFCURVE",
"308 162 CURVE",
"332 189 OFFCURVE",
"330 218 OFFCURVE",
"330 305 CURVE SMOOTH"
);
},
{
closed = 1;
nodes = (
"318 421 LINE",
"320 353 LINE",
"320 305 LINE SMOOTH",
"320 209 OFFCURVE",
"322 196 OFFCURVE",
"300 168 CURVE",
"301 169 LINE",
"284 150 OFFCURVE",
"260 141 OFFCURVE",
"235 141 CURVE SMOOTH",
"217 141 OFFCURVE",
"202 145 OFFCURVE",
"189 153 CURVE",
"186 159 LINE",
"187 158 LINE",
"174 203 OFFCURVE",
"176 251 OFFCURVE",
"168 298 CURVE",
"168 297 LINE",
"167 314 OFFCURVE",
"167 330 OFFCURVE",
"167 347 CURVE SMOOTH",
"167 386 OFFCURVE",
"169 423 OFFCURVE",
"177 458 CURVE",
"177 457 LINE",
"187 499 OFFCURVE",
"225 538 OFFCURVE",
"268 538 CURVE SMOOTH",
"319 538 OFFCURVE",
"315 461 OFFCURVE",
"318 425 CURVE"
);
}
);
width = 484;
}
);
leftKerningGroup = G;
note = Ocircumflex;
rightKerningGroup = O;
unicode = 00D4;
},
{
glyphname = Odieresis;
layers = (
{
hints = (
{
horizontal = 1;
place = "{-39, 30}";
type = Stem;
},
{
horizontal = 1;
place = "{131, 10}";
type = Stem;
},
{
horizontal = 1;
place = "{538, 30}";
type = Stem;
},
{
horizontal = 1;
place = "{728.5, 30.5}";
type = Stem;
},
{
horizontal = 1;
place = "{866, 11}";
type = Stem;
},
{
place = "{18, 10}";
type = Stem;
},
{
place = "{93, 10}";
type = Stem;
},
{
place = "{136, 31}";
type = Stem;
},
{
place = "{214, 10}";
type = Stem;
},
{
place = "{267, 10}";
type = Stem;
},
{
place = "{320, 10}";
type = Stem;
},
{
place = "{388, 10}";
type = Stem;
},
{
place = "{455, 31}";
type = Stem;
},
{
place = "{208, 36}";
type = Stem;
},
{
place = "{382, 36}";
type = Stem;
},
{
horizontal = 1;
place = "{705, 11}";
type = Stem;
}
);
layerId = "D68BD575-7350-49C7-85EB-1FC0FDA2B601";
paths = (
{
closed = 1;
nodes = (
"235 728 LINE",
"238 752 OFFCURVE",
"244 842 OFFCURVE",
"244 847 CURVE",
"237 850 OFFCURVE",
"231 850 OFFCURVE",
"224 853 CURVE",
"224 867 LINE",
"209 874 OFFCURVE",
"187 877 OFFCURVE",
"166 877 CURVE SMOOTH",
"141 877 OFFCURVE",
"111 873 OFFCURVE",
"95 868 CURVE",
"95 852 OFFCURVE",
"93 828 OFFCURVE",
"93 803 CURVE SMOOTH",
"93 784 OFFCURVE",
"94 764 OFFCURVE",
"97 749 CURVE",
"114 749 LINE",
"114 742 OFFCURVE",
"116 736 OFFCURVE",
"117 729 CURVE"
);
},
{
closed = 1;
nodes = (
"409 728 LINE",
"412 752 OFFCURVE",
"418 842 OFFCURVE",
"418 847 CURVE",
"411 850 OFFCURVE",
"405 850 OFFCURVE",
"398 853 CURVE",
"398 867 LINE",
"383 874 OFFCURVE",
"361 877 OFFCURVE",
"340 877 CURVE SMOOTH",
"315 877 OFFCURVE",
"285 873 OFFCURVE",
"269 868 CURVE",
"269 852 OFFCURVE",
"267 828 OFFCURVE",
"267 803 CURVE SMOOTH",
"267 784 OFFCURVE",
"268 764 OFFCURVE",
"271 749 CURVE",
"288 749 LINE",
"288 742 OFFCURVE",
"290 736 OFFCURVE",
"291 729 CURVE"
);
},
{
closed = 1;
nodes = (
"206 758 LINE",
"109 759 LINE",
"106 759 LINE",
"104 769 OFFCURVE",
"103 782 OFFCURVE",
"103 799 CURVE SMOOTH",
"103 823 OFFCURVE",
"105 849 OFFCURVE",
"105 860 CURVE",
"118 864 OFFCURVE",
"143 866 OFFCURVE",
"166 866 CURVE SMOOTH",
"186 866 OFFCURVE",
"205 865 OFFCURVE",
"214 861 CURVE",
"214 859 OFFCURVE",
"208 778 OFFCURVE",
"208 760 CURVE SMOOTH",
"208 758 LINE"
);
},
{
closed = 1;
nodes = (
"382 759 LINE",
"280 759 LINE",
"278 769 OFFCURVE",
"277 782 OFFCURVE",
"277 799 CURVE SMOOTH",
"277 823 OFFCURVE",
"279 849 OFFCURVE",
"279 860 CURVE",
"292 864 OFFCURVE",
"317 866 OFFCURVE",
"340 866 CURVE SMOOTH",
"360 866 OFFCURVE",
"379 865 OFFCURVE",
"388 861 CURVE",
"388 859 OFFCURVE",
"382 778 OFFCURVE",
"382 760 CURVE SMOOTH"
);
},
{
closed = 1;
nodes = (
"466 580 LINE",
"455 607 OFFCURVE",
"440 626 OFFCURVE",
"419 647 CURVE",
"379 695 OFFCURVE",
"304 716 OFFCURVE",
"240 716 CURVE SMOOTH",
"191 716 OFFCURVE",
"145 706 OFFCURVE",
"102 685 CURVE",
"11 632 OFFCURVE",
"18 479 OFFCURVE",
"18 395 CURVE SMOOTH",
"18 344 OFFCURVE",
"20 288 OFFCURVE",
"23 237 CURVE SMOOTH",
"26 179 OFFCURVE",
"21 108 OFFCURVE",
"51 57 CURVE",
"51 58 LINE",
"89 -20 OFFCURVE",
"163 -39 OFFCURVE",
"243 -39 CURVE SMOOTH",
"310 -39 OFFCURVE",
"397 -19 OFFCURVE",
"437 37 CURVE SMOOTH",
"464 77 OFFCURVE",
"473 130 OFFCURVE",
"477 177 CURVE SMOOTH",
"480 210 LINE SMOOTH",
"487 289 OFFCURVE",
"485 368 OFFCURVE",
"486 452 CURVE SMOOTH",
"486 496 OFFCURVE",
"485 540 OFFCURVE",
"466 581 CURVE"
);
},
{
closed = 1;
nodes = (
"322 705 OFFCURVE",
"410 674 OFFCURVE",
"437 597 CURVE",
"456 558 OFFCURVE",
"455 515 OFFCURVE",
"455 472 CURVE SMOOTH",
"455 388 OFFCURVE",
"457 311 OFFCURVE",
"450 231 CURVE SMOOTH",
"447 198 LINE SMOOTH",
"443 151 OFFCURVE",
"434 102 OFFCURVE",
"409 63 CURVE",
"372 11 OFFCURVE",
"287 -9 OFFCURVE",
"223 -9 CURVE SMOOTH",
"113 -9 OFFCURVE",
"39 27 OFFCURVE",
"36 173 CURVE SMOOTH",
"33 248 OFFCURVE",
"28 321 OFFCURVE",
"28 397 CURVE SMOOTH",
"28 476 OFFCURVE",
"23 589 OFFCURVE",
"84 658 CURVE",
"119 693 OFFCURVE",
"185 705 OFFCURVE",
"240 705 CURVE SMOOTH"
);
},
{
closed = 1;
nodes = (
"330 353 LINE",
"328 421 LINE",
"328 449 OFFCURVE",
"327 568 OFFCURVE",
"247 568 CURVE SMOOTH",
"146 568 OFFCURVE",
"136 442 OFFCURVE",
"136 367 CURVE SMOOTH",
"136 350 OFFCURVE",
"137 333 OFFCURVE",
"138 316 CURVE",
"149 240 OFFCURVE",
"134 131 OFFCURVE",
"235 131 CURVE SMOOTH",
"262 131 OFFCURVE",
"291 141 OFFCURVE",
"308 162 CURVE",
"332 189 OFFCURVE",
"330 218 OFFCURVE",
"330 305 CURVE SMOOTH"
);
},
{
closed = 1;
nodes = (
"318 421 LINE",
"320 353 LINE",
"320 305 LINE SMOOTH",
"320 209 OFFCURVE",
"322 196 OFFCURVE",
"300 168 CURVE",
"301 169 LINE",
"284 150 OFFCURVE",
"260 141 OFFCURVE",
"235 141 CURVE SMOOTH",
"217 141 OFFCURVE",
"202 145 OFFCURVE",
"189 153 CURVE",
"186 159 LINE",
"187 158 LINE",
"174 203 OFFCURVE",
"176 251 OFFCURVE",
"168 298 CURVE",
"168 297 LINE",
"167 314 OFFCURVE",
"167 330 OFFCURVE",
"167 347 CURVE SMOOTH",
"167 386 OFFCURVE",
"169 423 OFFCURVE",
"177 458 CURVE",
"177 457 LINE",
"187 499 OFFCURVE",
"225 538 OFFCURVE",
"268 538 CURVE SMOOTH",
"319 538 OFFCURVE",
"315 461 OFFCURVE",
"318 425 CURVE"
);
}
);
width = 484;
}
);
leftKerningGroup = G;
note = Odieresis;
rightKerningGroup = O;
unicode = 00D6;
},
{
glyphname = Ograve;
layers = (
{
hints = (
{
horizontal = 1;
place = "{-39, 30}";
type = Stem;
},
{
horizontal = 1;
place = "{131, 10}";
type = Stem;
},
{
horizontal = 1;
place = "{538, 30}";
type = Stem;
},
{
horizontal = 1;
place = "{705, 11}";
type = Stem;
},
{
place = "{19, 10}";
type = Stem;
},
{
place = "{137, 31}";
type = Stem;
},
{
place = "{321, 10}";
type = Stem;
},
{
place = "{456, 31}";
type = Stem;
},
{
horizontal = 1;
place = "{718, 30}";
type = Stem;
}
);
layerId = "D68BD575-7350-49C7-85EB-1FC0FDA2B601";
paths = (
{
closed = 1;
nodes = (
"52 847 LINE",
"61 838 OFFCURVE",
"77 818 OFFCURVE",
"112 789 CURVE",
"112 790 LINE",
"137 769 OFFCURVE",
"163 744 OFFCURVE",
"182 721 CURVE",
"203 718 OFFCURVE",
"219 718 OFFCURVE",
"236 718 CURVE SMOOTH",
"275 718 OFFCURVE",
"320 723 OFFCURVE",
"343 728 CURVE",
"333 736 OFFCURVE",
"321 746 OFFCURVE",
"323 748 CURVE",
"262 796 OFFCURVE",
"201 876 OFFCURVE",
"134 930 CURVE"
);
},
{
closed = 1;
nodes = (
"66 847 LINE",
"135 917 LINE",
"182 880 OFFCURVE",
"256 798 OFFCURVE",
"302 754 CURVE",
"289 750 OFFCURVE",
"252 748 OFFCURVE",
"216 748 CURVE SMOOTH",
"197 748 OFFCURVE",
"183 747 OFFCURVE",
"168 750 CURVE",
"154 769 OFFCURVE",
"86 827 OFFCURVE",
"67 846 CURVE SMOOTH"
);
},
{
closed = 1;
nodes = (
"467 580 LINE",
"456 607 OFFCURVE",
"441 626 OFFCURVE",
"420 647 CURVE",
"380 695 OFFCURVE",
"305 716 OFFCURVE",
"241 716 CURVE SMOOTH",
"192 716 OFFCURVE",
"146 706 OFFCURVE",
"103 685 CURVE",
"12 632 OFFCURVE",
"19 479 OFFCURVE",
"19 395 CURVE SMOOTH",
"19 344 OFFCURVE",
"21 288 OFFCURVE",
"24 237 CURVE SMOOTH",
"27 179 OFFCURVE",
"22 108 OFFCURVE",
"52 57 CURVE",
"52 58 LINE",
"90 -20 OFFCURVE",
"164 -39 OFFCURVE",
"244 -39 CURVE SMOOTH",
"311 -39 OFFCURVE",
"398 -19 OFFCURVE",
"438 37 CURVE SMOOTH",
"465 77 OFFCURVE",
"474 130 OFFCURVE",
"478 177 CURVE SMOOTH",
"481 210 LINE SMOOTH",
"488 289 OFFCURVE",
"486 368 OFFCURVE",
"487 452 CURVE SMOOTH",
"487 496 OFFCURVE",
"486 540 OFFCURVE",
"467 581 CURVE"
);
},
{
closed = 1;
nodes = (
"323 705 OFFCURVE",
"411 674 OFFCURVE",
"438 597 CURVE",
"457 558 OFFCURVE",
"456 515 OFFCURVE",
"456 472 CURVE SMOOTH",
"456 388 OFFCURVE",
"458 311 OFFCURVE",
"451 231 CURVE SMOOTH",
"448 198 LINE SMOOTH",
"444 151 OFFCURVE",
"435 102 OFFCURVE",
"410 63 CURVE",
"373 11 OFFCURVE",
"288 -9 OFFCURVE",
"224 -9 CURVE SMOOTH",
"114 -9 OFFCURVE",
"40 27 OFFCURVE",
"37 173 CURVE SMOOTH",
"34 248 OFFCURVE",
"29 321 OFFCURVE",
"29 397 CURVE SMOOTH",
"29 476 OFFCURVE",
"24 589 OFFCURVE",
"85 658 CURVE",
"120 693 OFFCURVE",
"186 705 OFFCURVE",
"241 705 CURVE SMOOTH"
);
},
{
closed = 1;
nodes = (
"331 353 LINE",
"329 421 LINE",
"329 449 OFFCURVE",
"328 568 OFFCURVE",
"248 568 CURVE SMOOTH",
"147 568 OFFCURVE",
"137 442 OFFCURVE",
"137 367 CURVE SMOOTH",
"137 350 OFFCURVE",
"138 333 OFFCURVE",
"139 316 CURVE",
"150 240 OFFCURVE",
"135 131 OFFCURVE",
"236 131 CURVE SMOOTH",
"263 131 OFFCURVE",
"292 141 OFFCURVE",
"309 162 CURVE",
"333 189 OFFCURVE",
"331 218 OFFCURVE",
"331 305 CURVE SMOOTH"
);
},
{
closed = 1;
nodes = (
"319 421 LINE",
"321 353 LINE",
"321 305 LINE SMOOTH",
"321 209 OFFCURVE",
"323 196 OFFCURVE",
"301 168 CURVE",
"302 169 LINE",
"285 150 OFFCURVE",
"261 141 OFFCURVE",
"236 141 CURVE SMOOTH",
"218 141 OFFCURVE",
"203 145 OFFCURVE",
"190 153 CURVE",
"187 159 LINE",
"188 158 LINE",
"175 203 OFFCURVE",
"177 251 OFFCURVE",
"169 298 CURVE",
"169 297 LINE",
"168 314 OFFCURVE",
"168 330 OFFCURVE",
"168 347 CURVE SMOOTH",
"168 386 OFFCURVE",
"170 423 OFFCURVE",
"178 458 CURVE",
"178 457 LINE",
"188 499 OFFCURVE",
"226 538 OFFCURVE",
"269 538 CURVE SMOOTH",
"320 538 OFFCURVE",
"316 461 OFFCURVE",
"319 425 CURVE"
);
}
);
width = 485;
}
);
leftKerningGroup = G;
note = Ograve;
rightKerningGroup = O;
unicode = 00D2;
},
{
glyphname = Oslash;
layers = (
{
hints = (
{
horizontal = 1;
place = "{-50, 30}";
type = Stem;
},
{
horizontal = 1;
place = "{723, 11}";
type = Stem;
},
{
place = "{19, 10}";
type = Stem;
},
{
place = "{319, 9}";
type = Stem;
},
{
place = "{451, 30}";
type = Stem;
},
{
horizontal = 1;
place = "{722, -20}";
target = down;
type = TopGhost;
},
{
place = "{424, 10}";
type = Stem;
},
{
place = "{271, 7}";
type = Stem;
},
{
horizontal = 1;
place = "{704, 10}";
type = Stem;
},
{
place = "{25, 7}";
type = Stem;
},
{
horizontal = 1;
place = "{-29, 32}";
type = Stem;
},
{
place = "{406, 29}";
type = Stem;
}
);
layerId = "D68BD575-7350-49C7-85EB-1FC0FDA2B601";
paths = (
{
closed = 1;
nodes = (
"481 413 LINE",
"482 432 OFFCURVE",
"483 448 OFFCURVE",
"483 467 CURVE SMOOTH",
"483 526 OFFCURVE",
"474 584 OFFCURVE",
"435 631 CURVE",
"435 633 LINE SMOOTH",
"435 649 OFFCURVE",
"454 665 OFFCURVE",
"454 702 CURVE",
"447 705 OFFCURVE",
"440 708 OFFCURVE",
"433 710 CURVE",
"434 713 OFFCURVE",
"434 717 OFFCURVE",
"434 722 CURVE",
"419 731 OFFCURVE",
"400 734 OFFCURVE",
"377 734 CURVE SMOOTH",
"356 734 OFFCURVE",
"332 732 OFFCURVE",
"312 732 CURVE SMOOTH",
"304 732 OFFCURVE",
"297 732 OFFCURVE",
"290 733 CURVE",
"271 733 OFFCURVE",
"272 723 OFFCURVE",
"271 712 CURVE",
"255 713 OFFCURVE",
"239 714 OFFCURVE",
"220 714 CURVE SMOOTH",
"173 714 OFFCURVE",
"128 707 OFFCURVE",
"92 679 CURVE",
"88 675 LINE SMOOTH",
"71 658 OFFCURVE",
"58 637 OFFCURVE",
"46 613 CURVE",
"46 614 LINE",
"27 582 OFFCURVE",
"28 542 OFFCURVE",
"25 506 CURVE SMOOTH",
"22 450 OFFCURVE",
"19 396 OFFCURVE",
"19 340 CURVE SMOOTH",
"19 249 OFFCURVE",
"26 158 OFFCURVE",
"49 69 CURVE",
"48 68 OFFCURVE",
"48 68 OFFCURVE",
"48 67 CURVE",
"47 62 LINE",
"47 63 LINE",
"39 42 OFFCURVE",
"25 4 OFFCURVE",
"25 -19 CURVE SMOOTH",
"25 -25 OFFCURVE",
"26 -29 OFFCURVE",
"27 -31 CURVE",
"30 -30 OFFCURVE",
"36 -30 OFFCURVE",
"45 -30 CURVE",
"45 -33 OFFCURVE",
"44 -36 OFFCURVE",
"44 -39 CURVE SMOOTH",
"44 -44 OFFCURVE",
"45 -48 OFFCURVE",
"47 -51 CURVE",
"66 -50 OFFCURVE",
"94 -50 OFFCURVE",
"117 -50 CURVE SMOOTH",
"149 -50 LINE SMOOTH",
"174 -50 OFFCURVE",
"189 -51 OFFCURVE",
"204 -31 CURVE",
"220 -28 OFFCURVE",
"237 -29 OFFCURVE",
"253 -29 CURVE SMOOTH",
"357 -29 OFFCURVE",
"440 9 OFFCURVE",
"464 109 CURVE",
"480 194 OFFCURVE",
"481 279 OFFCURVE",
"481 367 CURVE SMOOTH"
);
},
{
closed = 1;
nodes = (
"453 468 OFFCURVE",
"452 451 OFFCURVE",
"451 434 CURVE",
"451 272 OFFCURVE",
"476 19 OFFCURVE",
"290 3 CURVE SMOOTH",
"253 -1 OFFCURVE",
"212 2 OFFCURVE",
"180 -2 CURVE",
"178 -2 LINE",
"178 -3 OFFCURVE",
"176 -9 OFFCURVE",
"165 -17 CURVE",
"164 -18 LINE",
"165 -18 LINE",
"154 -21 OFFCURVE",
"141 -20 OFFCURVE",
"122 -20 CURVE SMOOTH",
"70 -20 LINE SMOOTH",
"57 -20 OFFCURVE",
"44 -20 OFFCURVE",
"33 -21 CURVE",
"32 -20 OFFCURVE",
"32 -19 OFFCURVE",
"32 -18 CURVE SMOOTH",
"32 -3 OFFCURVE",
"54 51 OFFCURVE",
"59 67 CURVE",
"59 71 LINE",
"36 160 OFFCURVE",
"29 248 OFFCURVE",
"29 339 CURVE SMOOTH",
"29 382 OFFCURVE",
"30 422 OFFCURVE",
"33 465 CURVE",
"41 537 OFFCURVE",
"31 604 OFFCURVE",
"95 668 CURVE SMOOTH",
"98 671 LINE",
"133 698 OFFCURVE",
"176 704 OFFCURVE",
"220 704 CURVE SMOOTH",
"240 704 OFFCURVE",
"259 702 OFFCURVE",
"278 701 CURVE",
"283 704 OFFCURVE",
"278 723 OFFCURVE",
"288 723 CURVE SMOOTH",
"289 723 LINE",
"296 722 OFFCURVE",
"305 722 OFFCURVE",
"314 722 CURVE SMOOTH",
"335 722 OFFCURVE",
"358 723 OFFCURVE",
"379 723 CURVE SMOOTH",
"398 723 OFFCURVE",
"415 723 OFFCURVE",
"424 716 CURVE",
"423 691 OFFCURVE",
"406 671 OFFCURVE",
"406 650 CURVE SMOOTH",
"406 645 LINE",
"445 601 OFFCURVE",
"453 544 OFFCURVE",
"453 487 CURVE SMOOTH"
);
},
{
closed = 1;
nodes = (
"138 291 OFFCURVE",
"139 284 OFFCURVE",
"141 279 CURVE",
"168 364 OFFCURVE",
"205 466 OFFCURVE",
"234 562 CURVE",
"226 563 LINE",
"134 552 OFFCURVE",
"152 424 OFFCURVE",
"141 339 CURVE",
"139 316 LINE",
"139 309 OFFCURVE",
"138 305 OFFCURVE",
"138 300 CURVE SMOOTH"
);
},
{
closed = 1;
nodes = (
"200 487 OFFCURVE",
"191 458 OFFCURVE",
"182 430 CURVE",
"183 457 OFFCURVE",
"180 490 OFFCURVE",
"208 515 CURVE"
);
},
{
closed = 1;
nodes = (
"322 395 LINE",
"295 323 OFFCURVE",
"258 214 OFFCURVE",
"229 131 CURVE",
"231 130 LINE",
"257 135 OFFCURVE",
"310 153 OFFCURVE",
"318 187 CURVE",
"327 220 OFFCURVE",
"328 252 OFFCURVE",
"328 280 CURVE SMOOTH",
"328 327 OFFCURVE",
"322 364 OFFCURVE",
"322 391 CURVE SMOOTH"
);
},
{
closed = 1;
nodes = (
"308 190 LINE",
"303 175 OFFCURVE",
"290 163 OFFCURVE",
"274 155 CURVE",
"286 196 OFFCURVE",
"304 242 OFFCURVE",
"319 283 CURVE",
"319 255 OFFCURVE",
"316 224 OFFCURVE",
"308 189 CURVE"
);
}
);
width = 479;
}
);
leftKerningGroup = G;
note = Oslash;
rightKerningGroup = O;
unicode = 00D8;
},
{
glyphname = Otilde;
layers = (
{
hints = (
{
horizontal = 1;
place = "{717, 30}";
type = Stem;
},
{
horizontal = 1;
place = "{782, 30}";
type = Stem;
},
{
place = "{152, 30}";
type = Stem;
},
{
horizontal = 1;
place = "{709, 30}";
type = Stem;
},
{
horizontal = 1;
place = "{836, 10}";
type = Stem;
},
{
horizontal = 1;
place = "{902, 9}";
type = Stem;
},
{
place = "{351, 7}";
type = Stem;
},
{
place = "{444, 9}";
type = Stem;
},
{
horizontal = 1;
place = "{910, 10}";
type = Stem;
},
{
place = "{320, 10}";
type = Stem;
},
{
horizontal = 1;
place = "{-39, 30}";
type = Stem;
},
{
horizontal = 1;
place = "{131, 10}";
type = Stem;
},
{
horizontal = 1;
place = "{538, 30}";
type = Stem;
},
{
horizontal = 1;
place = "{705, 11}";
type = Stem;
},
{
place = "{18, 10}";
type = Stem;
},
{
place = "{136, 31}";
type = Stem;
},
{
place = "{455, 31}";
type = Stem;
}
);
layerId = "D68BD575-7350-49C7-85EB-1FC0FDA2B601";
paths = (
{
closed = 1;
nodes = (
"186 727 LINE",
"183 734 OFFCURVE",
"182 741 OFFCURVE",
"182 746 CURVE SMOOTH",
"182 771 OFFCURVE",
"205 782 OFFCURVE",
"226 782 CURVE SMOOTH",
"229 782 OFFCURVE",
"233 781 OFFCURVE",
"238 780 CURVE",
"254 741 OFFCURVE",
"300 709 OFFCURVE",
"348 709 CURVE SMOOTH",
"421 709 OFFCURVE",
"474 782 OFFCURVE",
"474 863 CURVE SMOOTH",
"474 879 OFFCURVE",
"476 891 OFFCURVE",
"453 891 CURVE",
"453 916 OFFCURVE",
"437 911 OFFCURVE",
"428 911 CURVE SMOOTH",
"404 911 OFFCURVE",
"386 912 OFFCURVE",
"351 908 CURVE",
"346 889 OFFCURVE",
"325 846 OFFCURVE",
"304 846 CURVE SMOOTH",
"297 846 OFFCURVE",
"291 848 OFFCURVE",
"288 855 CURVE",
"288 854 LINE",
"264 886 OFFCURVE",
"224 920 OFFCURVE",
"181 920 CURVE SMOOTH",
"89 920 OFFCURVE",
"46 817 OFFCURVE",
"25 735 CURVE",
"32 735 OFFCURVE",
"40 736 OFFCURVE",
"51 736 CURVE",
"48 728 OFFCURVE",
"46 722 OFFCURVE",
"45 715 CURVE",
"62 716 OFFCURVE",
"93 717 OFFCURVE",
"108 717 CURVE SMOOTH",
"135 717 OFFCURVE",
"161 716 OFFCURVE",
"174 713 CURVE"
);
},
{
closed = 1;
nodes = (
"156 743 LINE",
"143 746 OFFCURVE",
"115 747 OFFCURVE",
"88 747 CURVE SMOOTH",
"73 747 OFFCURVE",
"56 747 OFFCURVE",
"39 746 CURVE",
"58 815 OFFCURVE",
"96 910 OFFCURVE",
"180 910 CURVE SMOOTH",
"252 910 OFFCURVE",
"263 836 OFFCURVE",
"304 836 CURVE SMOOTH",
"331 836 OFFCURVE",
"352 879 OFFCURVE",
"358 899 CURVE",
"385 902 OFFCURVE",
"412 901 OFFCURVE",
"440 902 CURVE",
"442 900 LINE",
"443 893 OFFCURVE",
"444 886 OFFCURVE",
"444 879 CURVE SMOOTH",
"444 808 OFFCURVE",
"396 739 OFFCURVE",
"328 739 CURVE SMOOTH",
"293 739 OFFCURVE",
"260 754 OFFCURVE",
"245 789 CURVE",
"236 804 OFFCURVE",
"226 812 OFFCURVE",
"206 812 CURVE SMOOTH",
"175 812 OFFCURVE",
"152 792 OFFCURVE",
"152 764 CURVE SMOOTH",
"152 758 OFFCURVE",
"153 751 OFFCURVE",
"156 744 CURVE"
);
},
{
closed = 1;
nodes = (
"466 580 LINE",
"455 607 OFFCURVE",
"440 626 OFFCURVE",
"419 647 CURVE",
"379 695 OFFCURVE",
"304 716 OFFCURVE",
"240 716 CURVE SMOOTH",
"191 716 OFFCURVE",
"145 706 OFFCURVE",
"102 685 CURVE",
"11 632 OFFCURVE",
"18 479 OFFCURVE",
"18 395 CURVE SMOOTH",
"18 344 OFFCURVE",
"20 288 OFFCURVE",
"23 237 CURVE SMOOTH",
"26 179 OFFCURVE",
"21 108 OFFCURVE",
"51 57 CURVE",
"51 58 LINE",
"89 -20 OFFCURVE",
"163 -39 OFFCURVE",
"243 -39 CURVE SMOOTH",
"310 -39 OFFCURVE",
"397 -19 OFFCURVE",
"437 37 CURVE SMOOTH",
"464 77 OFFCURVE",
"473 130 OFFCURVE",
"477 177 CURVE SMOOTH",
"480 210 LINE SMOOTH",
"487 289 OFFCURVE",
"485 368 OFFCURVE",
"486 452 CURVE SMOOTH",
"486 496 OFFCURVE",
"485 540 OFFCURVE",
"466 581 CURVE"
);
},
{
closed = 1;
nodes = (
"322 705 OFFCURVE",
"410 674 OFFCURVE",
"437 597 CURVE",
"456 558 OFFCURVE",
"455 515 OFFCURVE",
"455 472 CURVE SMOOTH",
"455 388 OFFCURVE",
"457 311 OFFCURVE",
"450 231 CURVE SMOOTH",
"447 198 LINE SMOOTH",
"443 151 OFFCURVE",
"434 102 OFFCURVE",
"409 63 CURVE",
"372 11 OFFCURVE",
"287 -9 OFFCURVE",
"223 -9 CURVE SMOOTH",
"113 -9 OFFCURVE",
"39 27 OFFCURVE",
"36 173 CURVE SMOOTH",
"33 248 OFFCURVE",
"28 321 OFFCURVE",
"28 397 CURVE SMOOTH",
"28 476 OFFCURVE",
"23 589 OFFCURVE",
"84 658 CURVE",
"119 693 OFFCURVE",
"185 705 OFFCURVE",
"240 705 CURVE SMOOTH"
);
},
{
closed = 1;
nodes = (
"330 353 LINE",
"328 421 LINE",
"328 449 OFFCURVE",
"327 568 OFFCURVE",
"247 568 CURVE SMOOTH",
"146 568 OFFCURVE",
"136 442 OFFCURVE",
"136 367 CURVE SMOOTH",
"136 350 OFFCURVE",
"137 333 OFFCURVE",
"138 316 CURVE",
"149 240 OFFCURVE",
"134 131 OFFCURVE",
"235 131 CURVE SMOOTH",
"262 131 OFFCURVE",
"291 141 OFFCURVE",
"308 162 CURVE",
"332 189 OFFCURVE",
"330 218 OFFCURVE",
"330 305 CURVE SMOOTH"
);
},
{
closed = 1;
nodes = (
"318 421 LINE",
"320 353 LINE",
"320 305 LINE SMOOTH",
"320 209 OFFCURVE",
"322 196 OFFCURVE",
"300 168 CURVE",
"301 169 LINE",
"284 150 OFFCURVE",
"260 141 OFFCURVE",
"235 141 CURVE SMOOTH",
"217 141 OFFCURVE",
"202 145 OFFCURVE",
"189 153 CURVE",
"186 159 LINE",
"187 158 LINE",
"174 203 OFFCURVE",
"176 251 OFFCURVE",
"168 298 CURVE",
"168 297 LINE",
"167 314 OFFCURVE",
"167 330 OFFCURVE",
"167 347 CURVE SMOOTH",
"167 386 OFFCURVE",
"169 423 OFFCURVE",
"177 458 CURVE",
"177 457 LINE",
"187 499 OFFCURVE",
"225 538 OFFCURVE",
"268 538 CURVE SMOOTH",
"319 538 OFFCURVE",
"315 461 OFFCURVE",
"318 425 CURVE"
);
}
);
width = 484;
}
);
leftKerningGroup = G;
note = Otilde;
rightKerningGroup = O;
unicode = 00D5;
},
{
glyphname = OE;
layers = (
{
hints = (
{
horizontal = 1;
place = "{-28, 30}";
type = Stem;
},
{
horizontal = 1;
place = "{142, 7}";
type = Stem;
},
{
horizontal = 1;
place = "{244, 29}";
type = Stem;
},
{
horizontal = 1;
place = "{419.5, 10.5}";
type = Stem;
},
{
horizontal = 1;
place = "{514, 29}";
type = Stem;
},
{
horizontal = 1;
place = "{696, 12}";
type = Stem;
},
{
place = "{16, 10}";
type = Stem;
},
{
place = "{157, 30}";
type = Stem;
},
{
place = "{333, 10}";
type = Stem;
},
{
place = "{544, 30}";
type = Stem;
},
{
place = "{670, 32}";
type = Stem;
},
{
place = "{814, 8}";
type = Stem;
},
{
place = "{539, 30}";
type = Stem;
},
{
place = "{811, 10}";
type = Stem;
},
{
horizontal = 1;
place = "{696, 9}";
type = Stem;
},
{
horizontal = 1;
place = "{-44, 30}";
type = Stem;
},
{
horizontal = 1;
place = "{122, 11}";
type = Stem;
},
{
horizontal = 1;
place = "{534, 30}";
type = Stem;
}
);
layerId = "D68BD575-7350-49C7-85EB-1FC0FDA2B601";
paths = (
{
closed = 1;
nodes = (
"842 127 LINE",
"835 127 OFFCURVE",
"829 128 OFFCURVE",
"822 128 CURVE",
"822 147 LINE",
"742 150 OFFCURVE",
"656 148 OFFCURVE",
"576 151 CURVE",
"573 162 OFFCURVE",
"574 173 OFFCURVE",
"574 186 CURVE SMOOTH",
"574 210 OFFCURVE",
"574 235 OFFCURVE",
"577 243 CURVE",
"600 243 OFFCURVE",
"609 244 OFFCURVE",
"630 244 CURVE SMOOTH",
"645 244 OFFCURVE",
"665 243 OFFCURVE",
"698 242 CURVE",
"701 281 OFFCURVE",
"702 313 OFFCURVE",
"702 348 CURVE SMOOTH",
"702 361 OFFCURVE",
"701 380 OFFCURVE",
"700 395 CURVE SMOOTH",
"699 406 LINE",
"692 407 OFFCURVE",
"687 408 OFFCURVE",
"680 408 CURVE",
"679 426 LINE",
"651 430 OFFCURVE",
"627 430 OFFCURVE",
"604 430 CURVE SMOOTH",
"595 430 OFFCURVE",
"588 429 OFFCURVE",
"580 429 CURVE SMOOTH",
"577 429 OFFCURVE",
"573 430 OFFCURVE",
"569 430 CURVE",
"569 443 LINE SMOOTH",
"569 462 OFFCURVE",
"572 488 OFFCURVE",
"572 509 CURVE",
"603 514 OFFCURVE",
"633 514 OFFCURVE",
"661 514 CURVE SMOOTH",
"726 514 LINE SMOOTH",
"762 514 OFFCURVE",
"800 515 OFFCURVE",
"837 522 CURVE",
"841 561 OFFCURVE",
"842 597 OFFCURVE",
"842 629 CURVE",
"841 688 LINE",
"838 688 OFFCURVE",
"830 687 OFFCURVE",
"821 687 CURVE",
"821 708 LINE",
"789 708 OFFCURVE",
"664 705 OFFCURVE",
"512 705 CURVE SMOOTH",
"445 705 OFFCURVE",
"377 706 OFFCURVE",
"313 707 CURVE SMOOTH",
"308 707 OFFCURVE",
"303 706 OFFCURVE",
"298 706 CURVE SMOOTH",
"270 706 OFFCURVE",
"247 710 OFFCURVE",
"220 710 CURVE SMOOTH",
"112 710 OFFCURVE",
"30 614 OFFCURVE",
"27 504 CURVE SMOOTH",
"24 424 OFFCURVE",
"16 341 OFFCURVE",
"16 260 CURVE SMOOTH",
"16 208 OFFCURVE",
"19 157 OFFCURVE",
"30 112 CURVE",
"69 9 OFFCURVE",
"148 -44 OFFCURVE",
"268 -44 CURVE SMOOTH",
"301 -44 OFFCURVE",
"332 -41 OFFCURVE",
"365 -38 CURVE SMOOTH",
"442 -30 OFFCURVE",
"539 -28 OFFCURVE",
"616 -28 CURVE SMOOTH",
"678 -28 LINE SMOOTH",
"725 -28 OFFCURVE",
"778 -28 OFFCURVE",
"829 -27 CURVE",
"840 5 OFFCURVE",
"844 35 OFFCURVE",
"844 66 CURVE SMOOTH",
"844 82 OFFCURVE",
"843 100 OFFCURVE",
"842 116 CURVE"
);
},
{
closed = 1;
nodes = (
"812 135 LINE",
"813 119 OFFCURVE",
"814 103 OFFCURVE",
"814 86 CURVE SMOOTH",
"814 57 OFFCURVE",
"811 28 OFFCURVE",
"803 3 CURVE",
"802 3 LINE SMOOTH",
"771 2 OFFCURVE",
"741 2 OFFCURVE",
"712 2 CURVE SMOOTH",
"605 2 LINE SMOOTH",
"549 2 OFFCURVE",
"495 1 OFFCURVE",
"435 -2 CURVE SMOOTH",
"363 -5 OFFCURVE",
"308 -14 OFFCURVE",
"248 -14 CURVE SMOOTH",
"227 -14 OFFCURVE",
"208 -13 OFFCURVE",
"185 -10 CURVE SMOOTH",
"45 6 OFFCURVE",
"26 136 OFFCURVE",
"26 260 CURVE SMOOTH",
"26 341 OFFCURVE",
"36 424 OFFCURVE",
"37 504 CURVE SMOOTH",
"40 608 OFFCURVE",
"112 700 OFFCURVE",
"220 700 CURVE SMOOTH",
"247 700 OFFCURVE",
"272 697 OFFCURVE",
"299 697 CURVE SMOOTH",
"314 697 LINE SMOOTH",
"361 696 OFFCURVE",
"409 696 OFFCURVE",
"458 696 CURVE SMOOTH",
"587 696 OFFCURVE",
"715 698 OFFCURVE",
"776 698 CURVE SMOOTH",
"811 698 LINE",
"811 649 LINE SMOOTH",
"811 616 OFFCURVE",
"811 582 OFFCURVE",
"808 551 CURVE",
"773 544 OFFCURVE",
"739 543 OFFCURVE",
"704 543 CURVE SMOOTH",
"681 543 OFFCURVE",
"659 544 OFFCURVE",
"636 544 CURVE SMOOTH",
"604 544 OFFCURVE",
"574 543 OFFCURVE",
"543 538 CURVE",
"542 537 LINE",
"542 525 LINE SMOOTH",
"542 505 OFFCURVE",
"539 484 OFFCURVE",
"539 463 CURVE SMOOTH",
"539 446 OFFCURVE",
"542 433 OFFCURVE",
"547 422 CURVE",
"586 418 OFFCURVE",
"630 422 OFFCURVE",
"669 417 CURVE",
"670 414 LINE",
"671 398 OFFCURVE",
"672 383 OFFCURVE",
"672 368 CURVE SMOOTH",
"672 337 OFFCURVE",
"670 307 OFFCURVE",
"670 274 CURVE",
"669 273 LINE",
"650 274 OFFCURVE",
"637 274 OFFCURVE",
"625 274 CURVE SMOOTH",
"601 274 OFFCURVE",
"584 273 OFFCURVE",
"553 273 CURVE SMOOTH",
"552 273 LINE",
"548 270 OFFCURVE",
"544 238 OFFCURVE",
"544 205 CURVE SMOOTH",
"544 178 OFFCURVE",
"547 153 OFFCURVE",
"554 142 CURVE",
"556 142 LINE SMOOTH",
"644 139 OFFCURVE",
"731 141 OFFCURVE",
"812 137 CURVE"
);
},
{
closed = 1;
nodes = (
"343 444 OFFCURVE",
"343 471 OFFCURVE",
"334 498 CURVE",
"305 543 OFFCURVE",
"293 564 OFFCURVE",
"241 564 CURVE SMOOTH",
"172 564 OFFCURVE",
"157 506 OFFCURVE",
"157 446 CURVE SMOOTH",
"157 412 LINE",
"159 395 OFFCURVE",
"160 378 OFFCURVE",
"160 363 CURVE SMOOTH",
"160 332 OFFCURVE",
"157 303 OFFCURVE",
"157 274 CURVE SMOOTH",
"157 266 OFFCURVE",
"156 122 OFFCURVE",
"233 122 CURVE SMOOTH",
"302 122 OFFCURVE",
"324 204 OFFCURVE",
"332 258 CURVE SMOOTH",
"339 314 OFFCURVE",
"343 364 OFFCURVE",
"343 417 CURVE SMOOTH"
);
},
{
closed = 1;
nodes = (
"321 502 LINE",
"325 485 OFFCURVE",
"329 474 OFFCURVE",
"332 451 CURVE",
"333 439 OFFCURVE",
"333 428 OFFCURVE",
"333 417 CURVE SMOOTH",
"333 365 OFFCURVE",
"329 315 OFFCURVE",
"322 259 CURVE",
"322 260 LINE",
"315 216 OFFCURVE",
"307 176 OFFCURVE",
"275 148 CURVE",
"276 149 LINE",
"262 138 OFFCURVE",
"248 133 OFFCURVE",
"233 133 CURVE SMOOTH",
"186 133 OFFCURVE",
"187 233 OFFCURVE",
"187 257 CURVE SMOOTH",
"187 289 OFFCURVE",
"189 318 OFFCURVE",
"189 349 CURVE SMOOTH",
"189 362 OFFCURVE",
"190 380 OFFCURVE",
"187 393 CURVE",
"187 405 LINE SMOOTH",
"187 477 OFFCURVE",
"193 534 OFFCURVE",
"261 534 CURVE SMOOTH",
"285 534 OFFCURVE",
"307 529 OFFCURVE",
"318 509 CURVE",
"318 510 LINE",
"318 509 OFFCURVE",
"319 507 OFFCURVE",
"320 504 CURVE",
"321 503 OFFCURVE",
"321 502 OFFCURVE",
"321 501 CURVE"
);
}
);
width = 830;
}
);
leftKerningGroup = G;
note = OE;
rightKerningGroup = AE;
unicode = 0152;
},
{
glyphname = P;
layers = (
{
hints = (
{
horizontal = 1;
place = "{-28, 30}";
type = Stem;
},
{
horizontal = 1;
place = "{230, 30}";
type = Stem;
},
{
horizontal = 1;
place = "{405, 11}";
type = Stem;
},
{
horizontal = 1;
place = "{531, 30}";
type = Stem;
},
{
horizontal = 1;
place = "{714, 10}";
type = Stem;
},
{
place = "{30, 11}";
type = Stem;
},
{
place = "{211, 30}";
type = Stem;
},
{
place = "{330, 10}";
type = Stem;
},
{
place = "{484, 30}";
type = Stem;
},
{
horizontal = 1;
place = "{-3, 9}";
type = Stem;
},
{
place = "{183, 31}";
type = Stem;
}
);
layerId = "D68BD575-7350-49C7-85EB-1FC0FDA2B601";
paths = (
{
closed = 1;
nodes = (
"514 471 LINE",
"503 647 OFFCURVE",
"341 724 OFFCURVE",
"183 724 CURVE SMOOTH",
"130 724 OFFCURVE",
"74 716 OFFCURVE",
"27 703 CURVE",
"30 628 OFFCURVE",
"30 541 OFFCURVE",
"30 460 CURVE SMOOTH",
"30 339 LINE SMOOTH",
"30 218 OFFCURVE",
"30 94 OFFCURVE",
"34 -3 CURVE",
"47 -3 OFFCURVE",
"54 -2 OFFCURVE",
"54 -23 CURVE",
"79 -26 OFFCURVE",
"113 -28 OFFCURVE",
"141 -28 CURVE SMOOTH",
"185 -28 OFFCURVE",
"228 -19 OFFCURVE",
"244 -19 CURVE",
"241 93 OFFCURVE",
"241 156 OFFCURVE",
"241 189 CURVE SMOOTH",
"241 231 LINE",
"249 230 OFFCURVE",
"257 230 OFFCURVE",
"266 230 CURVE SMOOTH",
"393 230 OFFCURVE",
"514 338 OFFCURVE",
"514 470 CURVE SMOOTH"
);
},
{
closed = 1;
nodes = (
"484 476 LINE SMOOTH",
"484 355 OFFCURVE",
"358 260 OFFCURVE",
"246 260 CURVE SMOOTH",
"234 260 OFFCURVE",
"222 261 OFFCURVE",
"210 263 CURVE",
"211 254 OFFCURVE",
"211 244 OFFCURVE",
"211 235 CURVE SMOOTH",
"211 196 LINE SMOOTH",
"211 163 OFFCURVE",
"211 109 OFFCURVE",
"214 12 CURVE",
"211 10 LINE",
"190 3 OFFCURVE",
"156 2 OFFCURVE",
"121 2 CURVE SMOOTH",
"92 2 OFFCURVE",
"64 3 OFFCURVE",
"44 6 CURVE",
"42 55 OFFCURVE",
"41 107 OFFCURVE",
"41 164 CURVE SMOOTH",
"41 340 LINE SMOOTH",
"41 461 OFFCURVE",
"41 583 OFFCURVE",
"37 695 CURVE",
"80 706 OFFCURVE",
"131 714 OFFCURVE",
"182 714 CURVE SMOOTH",
"325 714 OFFCURVE",
"476 658 OFFCURVE",
"484 491 CURVE"
);
},
{
closed = 1;
nodes = (
"340 498 OFFCURVE",
"330 520 OFFCURVE",
"309 533 CURVE",
"286 552 OFFCURVE",
"256 561 OFFCURVE",
"225 561 CURVE SMOOTH",
"214 561 OFFCURVE",
"188 560 OFFCURVE",
"183 555 CURVE",
"186 508 OFFCURVE",
"179 444 OFFCURVE",
"192 405 CURVE",
"195 405 LINE",
"246 408 OFFCURVE",
"340 399 OFFCURVE",
"340 475 CURVE SMOOTH"
);
},
{
closed = 1;
nodes = (
"281 531 OFFCURVE",
"330 519 OFFCURVE",
"330 476 CURVE SMOOTH",
"330 420 OFFCURVE",
"268 416 OFFCURVE",
"221 416 CURVE SMOOTH",
"216 416 LINE",
"213 428 OFFCURVE",
"214 440 OFFCURVE",
"214 455 CURVE SMOOTH",
"214 484 LINE SMOOTH",
"214 499 OFFCURVE",
"214 512 OFFCURVE",
"213 527 CURVE",
"223 530 OFFCURVE",
"234 531 OFFCURVE",
"245 531 CURVE SMOOTH"
);
}
);
width = 497;
}
);
note = P;
rightKerningGroup = P;
unicode = 0050;
},
{
glyphname = Thorn;
layers = (
{
hints = (
{
horizontal = 1;
place = "{-33, 29}";
type = Stem;
},
{
horizontal = 1;
place = "{103, 30}";
type = Stem;
},
{
horizontal = 1;
place = "{273, 10}";
type = Stem;
},
{
horizontal = 1;
place = "{468, 30}";
type = Stem;
},
{
horizontal = 1;
place = "{632, 10}";
type = Stem;
},
{
horizontal = 1;
place = "{728.5, 10}";
type = Stem;
},
{
place = "{34, 10}";
type = Stem;
},
{
place = "{179, 30}";
type = Stem;
},
{
place = "{325, 10}";
type = Stem;
},
{
place = "{458, 30}";
type = Stem;
},
{
place = "{182, 28}";
type = Stem;
},
{
place = "{184, 30}";
type = Stem;
}
);
layerId = "D68BD575-7350-49C7-85EB-1FC0FDA2B601";
paths = (
{
closed = 1;
nodes = (
"488 534 OFFCURVE",
"386 637 OFFCURVE",
"290 642 CURVE",
"259 642 OFFCURVE",
"233 642 OFFCURVE",
"212 633 CURVE",
"212 669 OFFCURVE",
"210 674 OFFCURVE",
"210 717 CURVE",
"190 717 LINE",
"190 737 LINE",
"34 740 LINE",
"31 680 OFFCURVE",
"30 616 OFFCURVE",
"30 561 CURVE SMOOTH",
"30 446 OFFCURVE",
"34 343 OFFCURVE",
"34 228 CURVE SMOOTH",
"34 156 OFFCURVE",
"31 67 OFFCURVE",
"26 -18 CURVE",
"33 -15 OFFCURVE",
"40 -14 OFFCURVE",
"47 -13 CURVE",
"47 -21 OFFCURVE",
"46 -30 OFFCURVE",
"46 -38 CURVE",
"58 -34 OFFCURVE",
"75 -33 OFFCURVE",
"92 -33 CURVE SMOOTH",
"108 -33 OFFCURVE",
"126 -34 OFFCURVE",
"145 -34 CURVE SMOOTH",
"176 -34 OFFCURVE",
"201 -30 OFFCURVE",
"212 -18 CURVE",
"210 -12 OFFCURVE",
"209 -6 OFFCURVE",
"209 1 CURVE SMOOTH",
"209 18 OFFCURVE",
"213 53 OFFCURVE",
"213 145 CURVE",
"246 120 OFFCURVE",
"290 103 OFFCURVE",
"331 103 CURVE SMOOTH",
"441 103 OFFCURVE",
"488 270 OFFCURVE",
"488 381 CURVE SMOOTH"
);
},
{
closed = 1;
nodes = (
"266 133 OFFCURVE",
"215 156 OFFCURVE",
"183 187 CURVE",
"183 70 OFFCURVE",
"179 35 OFFCURVE",
"179 18 CURVE SMOOTH",
"179 11 OFFCURVE",
"180 8 OFFCURVE",
"181 4 CURVE",
"174 -3 OFFCURVE",
"152 -4 OFFCURVE",
"125 -4 CURVE SMOOTH",
"101 -4 OFFCURVE",
"76 -3 OFFCURVE",
"57 -3 CURVE SMOOTH",
"48 -3 OFFCURVE",
"40 -3 OFFCURVE",
"37 -4 CURVE",
"44 83 OFFCURVE",
"44 160 OFFCURVE",
"44 233 CURVE SMOOTH",
"44 350 OFFCURVE",
"40 452 OFFCURVE",
"40 564 CURVE SMOOTH",
"40 617 OFFCURVE",
"41 671 OFFCURVE",
"44 730 CURVE",
"180 727 LINE",
"180 685 OFFCURVE",
"182 692 OFFCURVE",
"182 649 CURVE SMOOTH",
"182 586 LINE",
"201 632 OFFCURVE",
"242 632 OFFCURVE",
"290 632 CURVE SMOOTH",
"384 629 OFFCURVE",
"458 534 OFFCURVE",
"458 401 CURVE SMOOTH",
"458 294 OFFCURVE",
"414 133 OFFCURVE",
"311 133 CURVE SMOOTH"
);
},
{
closed = 1;
nodes = (
"335 398 OFFCURVE",
"334 417 OFFCURVE",
"329 434 CURVE",
"322 467 OFFCURVE",
"292 498 OFFCURVE",
"236 498 CURVE SMOOTH",
"185 498 OFFCURVE",
"184 488 OFFCURVE",
"184 419 CURVE SMOOTH",
"184 331 OFFCURVE",
"174 273 OFFCURVE",
"246 273 CURVE SMOOTH",
"302 273 OFFCURVE",
"335 321 OFFCURVE",
"335 381 CURVE SMOOTH"
);
},
{
closed = 1;
nodes = (
"319 431 LINE",
"324 414 OFFCURVE",
"325 396 OFFCURVE",
"325 381 CURVE SMOOTH",
"325 326 OFFCURVE",
"297 283 OFFCURVE",
"246 283 CURVE SMOOTH",
"235 283 OFFCURVE",
"227 284 OFFCURVE",
"221 287 CURVE",
"214 304 OFFCURVE",
"214 329 OFFCURVE",
"214 362 CURVE SMOOTH",
"214 388 LINE SMOOTH",
"214 459 OFFCURVE",
"213 468 OFFCURVE",
"256 468 CURVE SMOOTH",
"289 468 OFFCURVE",
"311 459 OFFCURVE",
"319 432 CURVE"
);
}
);
width = 478;
}
);
note = Thorn;
rightKerningGroup = Thorn;
unicode = 00DE;
},
{
glyphname = Q;
layers = (
{
hints = (
{
horizontal = 1;
place = "{-37, 30}";
type = Stem;
},
{
horizontal = 1;
place = "{115, 10}";
type = Stem;
},
{
horizontal = 1;
place = "{232, 10}";
type = Stem;
},
{
horizontal = 1;
place = "{535, 30}";
type = Stem;
},
{
horizontal = 1;
place = "{714, 10}";
type = Stem;
},
{
place = "{20, 10}";
type = Stem;
},
{
place = "{152, 31}";
type = Stem;
},
{
place = "{216, 10}";
type = Stem;
},
{
place = "{333, 11}";
type = Stem;
},
{
place = "{468, 25}";
type = Stem;
},
{
place = "{447, 30}";
type = Stem;
}
);
layerId = "D68BD575-7350-49C7-85EB-1FC0FDA2B601";
paths = (
{
closed = 1;
nodes = (
"369 721 OFFCURVE",
"322 724 OFFCURVE",
"253 724 CURVE SMOOTH",
"147 724 OFFCURVE",
"61 681 OFFCURVE",
"42 621 CURVE",
"23 552 OFFCURVE",
"20 470 OFFCURVE",
"20 391 CURVE SMOOTH",
"20 252 LINE SMOOTH",
"20 172 OFFCURVE",
"27 101 OFFCURVE",
"83 47 CURVE SMOOTH",
"134 -4 OFFCURVE",
"174 -37 OFFCURVE",
"262 -37 CURVE SMOOTH",
"297 -37 OFFCURVE",
"336 -26 OFFCURVE",
"359 -11 CURVE",
"370 -24 OFFCURVE",
"388 -38 OFFCURVE",
"397 -38 CURVE SMOOTH",
"432 -38 OFFCURVE",
"477 -3 OFFCURVE",
"477 28 CURVE SMOOTH",
"477 39 OFFCURVE",
"471 49 OFFCURVE",
"460 60 CURVE",
"471 83 OFFCURVE",
"477 102 OFFCURVE",
"481 117 CURVE",
"480 115 LINE",
"489 143 OFFCURVE",
"493 175 OFFCURVE",
"493 211 CURVE SMOOTH",
"493 270 OFFCURVE",
"498 297 OFFCURVE",
"498 348 CURVE SMOOTH",
"498 483 OFFCURVE",
"477 620 OFFCURVE",
"408 673 CURVE"
);
},
{
closed = 1;
nodes = (
"462 231 OFFCURVE",
"464 197 OFFCURVE",
"456 165 CURVE",
"453 141 OFFCURVE",
"445 118 OFFCURVE",
"428 78 CURVE",
"437 67 OFFCURVE",
"447 57 OFFCURVE",
"447 48 CURVE SMOOTH",
"447 23 OFFCURVE",
"405 -8 OFFCURVE",
"377 -8 CURVE SMOOTH",
"369 -8 OFFCURVE",
"348 13 OFFCURVE",
"340 24 CURVE",
"325 7 OFFCURVE",
"281 -7 OFFCURVE",
"242 -7 CURVE SMOOTH",
"82 -7 OFFCURVE",
"30 117 OFFCURVE",
"30 235 CURVE SMOOTH",
"30 381 LINE SMOOTH",
"30 461 OFFCURVE",
"32 546 OFFCURVE",
"52 618 CURVE",
"71 674 OFFCURVE",
"152 714 OFFCURVE",
"253 714 CURVE SMOOTH",
"346 714 OFFCURVE",
"394 709 OFFCURVE",
"439 602 CURVE",
"462 530 OFFCURVE",
"468 448 OFFCURVE",
"468 368 CURVE SMOOTH",
"468 327 OFFCURVE",
"468 304 OFFCURVE",
"465 264 CURVE SMOOTH"
);
},
{
closed = 1;
nodes = (
"270 218 OFFCURVE",
"279 232 OFFCURVE",
"294 232 CURVE SMOOTH",
"311 232 OFFCURVE",
"317 199 OFFCURVE",
"334 182 CURVE",
"343 219 OFFCURVE",
"344 254 OFFCURVE",
"344 293 CURVE SMOOTH",
"344 388 OFFCURVE",
"341 418 OFFCURVE",
"336 484 CURVE SMOOTH",
"331 532 OFFCURVE",
"313 565 OFFCURVE",
"250 565 CURVE SMOOTH",
"173 565 OFFCURVE",
"165 556 OFFCURVE",
"160 488 CURVE SMOOTH",
"152 410 OFFCURVE",
"152 382 OFFCURVE",
"152 271 CURVE SMOOTH",
"152 151 OFFCURVE",
"178 115 OFFCURVE",
"251 115 CURVE SMOOTH",
"260 115 LINE SMOOTH",
"264 115 OFFCURVE",
"267 115 OFFCURVE",
"269 116 CURVE",
"250 135 OFFCURVE",
"226 159 OFFCURVE",
"226 179 CURVE SMOOTH",
"226 198 OFFCURVE",
"244 200 OFFCURVE",
"259 211 CURVE"
);
},
{
closed = 1;
nodes = (
"313 224 OFFCURVE",
"311 242 OFFCURVE",
"294 242 CURVE SMOOTH",
"281 242 OFFCURVE",
"271 233 OFFCURVE",
"262 226 CURVE",
"241 205 OFFCURVE",
"216 209 OFFCURVE",
"216 179 CURVE SMOOTH",
"216 160 OFFCURVE",
"232 140 OFFCURVE",
"247 125 CURVE",
"223 125 OFFCURVE",
"198 128 OFFCURVE",
"190 155 CURVE",
"191 154 LINE",
"184 177 OFFCURVE",
"182 212 OFFCURVE",
"182 245 CURVE SMOOTH",
"182 264 OFFCURVE",
"183 282 OFFCURVE",
"183 297 CURVE SMOOTH",
"183 323 LINE SMOOTH",
"183 378 OFFCURVE",
"185 410 OFFCURVE",
"190 467 CURVE SMOOTH",
"195 527 OFFCURVE",
"201 535 OFFCURVE",
"270 535 CURVE SMOOTH",
"287 535 OFFCURVE",
"302 532 OFFCURVE",
"314 525 CURVE",
"335 490 OFFCURVE",
"333 409 OFFCURVE",
"333 361 CURVE SMOOTH",
"333 286 LINE SMOOTH",
"333 271 OFFCURVE",
"333 257 OFFCURVE",
"332 246 CURVE",
"332 248 LINE",
"329 241 OFFCURVE",
"329 229 OFFCURVE",
"328 217 CURVE"
);
}
);
width = 495;
}
);
leftKerningGroup = Q;
note = Q;
rightKerningGroup = Q;
unicode = 0051;
},
{
glyphname = R;
layers = (
{
hints = (
{
horizontal = 1;
place = "{-31, 30}";
type = Stem;
},
{
horizontal = 1;
place = "{433, 10}";
type = Stem;
},
{
horizontal = 1;
place = "{545, 30}";
type = Stem;
},
{
horizontal = 1;
place = "{717, 10}";
type = Stem;
},
{
place = "{33, 11}";
type = Stem;
},
{
place = "{206, 30}";
type = Stem;
},
{
place = "{319, 9}";
type = Stem;
},
{
place = "{502, 31}";
type = Stem;
},
{
place = "{179, 32}";
type = Stem;
}
);
layerId = "D68BD575-7350-49C7-85EB-1FC0FDA2B601";
paths = (
{
closed = 1;
nodes = (
"29 646 OFFCURVE",
"35 291 OFFCURVE",
"33 104 CURVE SMOOTH",
"34 52 OFFCURVE",
"34 22 OFFCURVE",
"34 13 CURVE SMOOTH",
"34 4 OFFCURVE",
"34 -10 OFFCURVE",
"35 -30 CURVE",
"93 -30 LINE SMOOTH",
"106 -30 OFFCURVE",
"121 -31 OFFCURVE",
"137 -31 CURVE SMOOTH",
"174 -31 OFFCURVE",
"213 -30 OFFCURVE",
"244 -15 CURVE",
"244 25 OFFCURVE",
"236 104 OFFCURVE",
"236 173 CURVE SMOOTH",
"236 199 LINE",
"281 130 OFFCURVE",
"322 41 OFFCURVE",
"343 -9 CURVE",
"358 -9 OFFCURVE",
"358 -20 OFFCURVE",
"363 -29 CURVE",
"379 -30 OFFCURVE",
"401 -31 OFFCURVE",
"416 -31 CURVE SMOOTH",
"460 -31 OFFCURVE",
"501 -27 OFFCURVE",
"537 -27 CURVE SMOOTH",
"551 -27 LINE",
"545 -14 LINE",
"505 96 OFFCURVE",
"433 176 OFFCURVE",
"374 277 CURVE",
"478 288 OFFCURVE",
"533 396 OFFCURVE",
"533 478 CURVE SMOOTH",
"533 538 OFFCURVE",
"500 595 OFFCURVE",
"461 643 CURVE SMOOTH",
"405 708 OFFCURVE",
"323 727 OFFCURVE",
"223 727 CURVE SMOOTH",
"155 727 OFFCURVE",
"84 716 OFFCURVE",
"21 707 CURVE"
);
},
{
closed = 1;
nodes = (
"338 305 LINE",
"394 206 OFFCURVE",
"476 113 OFFCURVE",
"516 3 CURVE",
"483 3 OFFCURVE",
"443 -1 OFFCURVE",
"403 -1 CURVE SMOOTH",
"386 -1 OFFCURVE",
"368 0 OFFCURVE",
"351 1 CURVE",
"350 1 LINE",
"324 62 OFFCURVE",
"268 182 OFFCURVE",
"211 252 CURVE",
"209 255 LINE",
"207 238 OFFCURVE",
"206 217 OFFCURVE",
"206 192 CURVE SMOOTH",
"206 128 OFFCURVE",
"211 48 OFFCURVE",
"214 11 CURVE",
"191 0 OFFCURVE",
"150 -1 OFFCURVE",
"111 -1 CURVE SMOOTH",
"86 -1 OFFCURVE",
"63 1 OFFCURVE",
"50 1 CURVE SMOOTH",
"48 1 OFFCURVE",
"46 1 OFFCURVE",
"43 2 CURVE",
"43 33 LINE",
"44 52 OFFCURVE",
"44 74 OFFCURVE",
"44 100 CURVE SMOOTH",
"44 203 LINE SMOOTH",
"44 395 OFFCURVE",
"41 657 OFFCURVE",
"33 699 CURVE",
"89 707 OFFCURVE",
"153 717 OFFCURVE",
"222 717 CURVE SMOOTH",
"246 717 OFFCURVE",
"271 716 OFFCURVE",
"296 713 CURVE",
"416 708 OFFCURVE",
"502 605 OFFCURVE",
"502 498 CURVE SMOOTH",
"502 417 OFFCURVE",
"450 314 OFFCURVE",
"343 306 CURVE"
);
},
{
closed = 1;
nodes = (
"228 575 OFFCURVE",
"204 570 OFFCURVE",
"179 559 CURVE",
"182 525 OFFCURVE",
"179 466 OFFCURVE",
"184 436 CURVE",
"185 436 LINE",
"202 434 OFFCURVE",
"220 433 OFFCURVE",
"241 433 CURVE SMOOTH",
"301 433 OFFCURVE",
"328 450 OFFCURVE",
"328 499 CURVE SMOOTH",
"328 546 OFFCURVE",
"295 575 OFFCURVE",
"250 575 CURVE SMOOTH"
);
},
{
closed = 1;
nodes = (
"303 545 OFFCURVE",
"319 530 OFFCURVE",
"319 499 CURVE SMOOTH",
"319 474 OFFCURVE",
"308 451 OFFCURVE",
"284 446 CURVE",
"285 446 LINE",
"271 444 OFFCURVE",
"256 443 OFFCURVE",
"241 443 CURVE SMOOTH",
"211 443 LINE",
"211 448 OFFCURVE",
"210 452 OFFCURVE",
"210 457 CURVE SMOOTH",
"210 468 OFFCURVE",
"211 477 OFFCURVE",
"211 486 CURVE SMOOTH",
"211 503 OFFCURVE",
"210 519 OFFCURVE",
"209 532 CURVE",
"232 541 OFFCURVE",
"252 545 OFFCURVE",
"270 545 CURVE SMOOTH"
);
}
);
width = 518;
}
);
note = R;
rightKerningGroup = R;
unicode = 0052;
},
{
glyphname = S;
layers = (
{
hints = (
{
horizontal = 1;
place = "{-35, 30}";
type = Stem;
},
{
horizontal = 1;
place = "{143, 10}";
type = Stem;
},
{
horizontal = 1;
place = "{209, 10}";
type = Stem;
},
{
horizontal = 1;
place = "{437, 29}";
type = Stem;
},
{
horizontal = 1;
place = "{515, 30}";
type = Stem;
},
{
horizontal = 1;
place = "{699, 10}";
type = Stem;
},
{
place = "{12, 10}";
type = Stem;
},
{
place = "{165, 10}";
type = Stem;
},
{
place = "{185, 30}";
type = Stem;
},
{
place = "{291, 10}";
type = Stem;
},
{
place = "{468, 30}";
type = Stem;
},
{
place = "{1, 11}";
type = Stem;
},
{
place = "{301, 12}";
type = Stem;
},
{
place = "{463, 30}";
type = Stem;
}
);
layerId = "D68BD575-7350-49C7-85EB-1FC0FDA2B601";
paths = (
{
closed = 1;
nodes = (
"492 444 LINE",
"496 465 OFFCURVE",
"498 484 OFFCURVE",
"498 501 CURVE SMOOTH",
"498 633 OFFCURVE",
"377 709 OFFCURVE",
"246 709 CURVE SMOOTH",
"114 709 OFFCURVE",
"12 607 OFFCURVE",
"12 482 CURVE SMOOTH",
"12 425 OFFCURVE",
"33 370 OFFCURVE",
"82 323 CURVE SMOOTH",
"106 299 OFFCURVE",
"131 276 OFFCURVE",
"175 267 CURVE SMOOTH",
"190 264 LINE SMOOTH",
"231 256 OFFCURVE",
"291 252 OFFCURVE",
"291 199 CURVE SMOOTH",
"291 168 OFFCURVE",
"266 153 OFFCURVE",
"239 153 CURVE SMOOTH",
"212 153 OFFCURVE",
"195 162 OFFCURVE",
"195 197 CURVE",
"178 197 LINE",
"176 203 OFFCURVE",
"175 210 OFFCURVE",
"175 217 CURVE",
"139 217 OFFCURVE",
"97 219 OFFCURVE",
"60 219 CURVE SMOOTH",
"41 219 OFFCURVE",
"22 218 OFFCURVE",
"2 215 CURVE",
"2 201 LINE SMOOTH",
"2 197 OFFCURVE",
"1 192 OFFCURVE",
"1 188 CURVE SMOOTH",
"1 61 OFFCURVE",
"144 -35 OFFCURVE",
"276 -35 CURVE SMOOTH",
"390 -35 OFFCURVE",
"493 50 OFFCURVE",
"493 189 CURVE SMOOTH",
"493 304 OFFCURVE",
"378 421 OFFCURVE",
"253 440 CURVE SMOOTH",
"235 443 OFFCURVE",
"215 440 OFFCURVE",
"215 468 CURVE SMOOTH",
"215 500 OFFCURVE",
"238 515 OFFCURVE",
"263 515 CURVE SMOOTH",
"282 515 OFFCURVE",
"301 511 OFFCURVE",
"301 480 CURVE SMOOTH",
"301 475 OFFCURVE",
"301 470 OFFCURVE",
"300 467 CURVE",
"307 464 OFFCURVE",
"314 463 OFFCURVE",
"321 462 CURVE",
"321 455 OFFCURVE",
"321 450 OFFCURVE",
"320 447 CURVE",
"348 439 OFFCURVE",
"375 437 OFFCURVE",
"402 437 CURVE SMOOTH",
"433 437 OFFCURVE",
"459 440 OFFCURVE",
"484 444 CURVE"
);
},
{
closed = 1;
nodes = (
"462 474 LINE",
"437 470 OFFCURVE",
"409 466 OFFCURVE",
"381 466 CURVE SMOOTH",
"357 466 OFFCURVE",
"334 469 OFFCURVE",
"312 475 CURVE",
"313 478 OFFCURVE",
"313 482 OFFCURVE",
"313 487 CURVE SMOOTH",
"313 523 OFFCURVE",
"278 545 OFFCURVE",
"243 545 CURVE SMOOTH",
"214 545 OFFCURVE",
"185 528 OFFCURVE",
"185 489 CURVE SMOOTH",
"185 444 OFFCURVE",
"222 433 OFFCURVE",
"252 430 CURVE SMOOTH",
"364 417 OFFCURVE",
"463 320 OFFCURVE",
"463 208 CURVE SMOOTH",
"463 68 OFFCURVE",
"365 -5 OFFCURVE",
"257 -5 CURVE SMOOTH",
"141 -5 OFFCURVE",
"12 65 OFFCURVE",
"12 189 CURVE SMOOTH",
"12 206 LINE",
"28 208 OFFCURVE",
"45 209 OFFCURVE",
"64 209 CURVE SMOOTH",
"99 209 OFFCURVE",
"134 207 OFFCURVE",
"165 207 CURVE",
"168 164 OFFCURVE",
"203 143 OFFCURVE",
"239 143 CURVE SMOOTH",
"271 143 OFFCURVE",
"301 160 OFFCURVE",
"301 199 CURVE SMOOTH",
"301 276 OFFCURVE",
"218 284 OFFCURVE",
"157 297 CURVE",
"64 313 OFFCURVE",
"22 417 OFFCURVE",
"22 482 CURVE SMOOTH",
"22 602 OFFCURVE",
"118 699 OFFCURVE",
"246 699 CURVE SMOOTH",
"361 699 OFFCURVE",
"468 648 OFFCURVE",
"468 521 CURVE SMOOTH",
"468 506 OFFCURVE",
"466 491 OFFCURVE",
"463 474 CURVE"
);
}
);
width = 485;
}
);
leftKerningGroup = S;
note = S;
rightKerningGroup = S;
unicode = 0053;
},
{
glyphname = Scaron;
layers = (
{
hints = (
{
horizontal = 1;
place = "{-35, 30}";
type = Stem;
},
{
horizontal = 1;
place = "{143, 10}";
type = Stem;
},
{
horizontal = 1;
place = "{209, 10}";
type = Stem;
},
{
horizontal = 1;
place = "{437, 29}";
type = Stem;
},
{
horizontal = 1;
place = "{515, 30}";
type = Stem;
},
{
horizontal = 1;
place = "{699, 10}";
type = Stem;
},
{
horizontal = 1;
place = "{916, 10}";
type = Stem;
},
{
place = "{12, 10}";
type = Stem;
},
{
place = "{185, 30}";
type = Stem;
},
{
place = "{291, 10}";
type = Stem;
},
{
place = "{463, 30}";
type = Stem;
},
{
place = "{301, 12}";
type = Stem;
},
{
place = "{468, 30}";
type = Stem;
},
{
place = "{1, 11}";
type = Stem;
},
{
place = "{165, 10}";
type = Stem;
}
);
layerId = "D68BD575-7350-49C7-85EB-1FC0FDA2B601";
paths = (
{
closed = 1;
nodes = (
"439 883 LINE",
"425 897 LINE",
"426 898 OFFCURVE",
"426 898 OFFCURVE",
"426 899 CURVE",
"426 899 OFFCURVE",
"424 900 OFFCURVE",
"419 901 CURVE",
"417 901 LINE",
"419 903 LINE",
"405 917 LINE",
"406 918 OFFCURVE",
"406 918 OFFCURVE",
"406 919 CURVE SMOOTH",
"406 920 OFFCURVE",
"370 927 OFFCURVE",
"333 927 CURVE SMOOTH",
"306 927 OFFCURVE",
"294 933 OFFCURVE",
"261 895 CURVE",
"254 888 OFFCURVE",
"251 882 OFFCURVE",
"247 878 CURVE",
"216 913 OFFCURVE",
"200 926 OFFCURVE",
"175 926 CURVE SMOOTH",
"166 926 OFFCURVE",
"130 924 OFFCURVE",
"68 920 CURVE",
"140 817 OFFCURVE",
"206 772 OFFCURVE",
"269 714 CURVE"
);
},
{
closed = 1;
nodes = (
"146 914 OFFCURVE",
"163 916 OFFCURVE",
"176 916 CURVE SMOOTH",
"181 916 OFFCURVE",
"186 916 OFFCURVE",
"194 915 CURVE",
"204 912 OFFCURVE",
"236 871 OFFCURVE",
"246 866 CURVE",
"259 874 OFFCURVE",
"287 915 OFFCURVE",
"297 915 CURVE",
"310 918 OFFCURVE",
"323 917 OFFCURVE",
"334 917 CURVE SMOOTH",
"377 917 OFFCURVE",
"406 909 OFFCURVE",
"411 909 CURVE",
"249 748 LINE",
"189 804 OFFCURVE",
"132 850 OFFCURVE",
"87 911 CURVE"
);
},
{
closed = 1;
nodes = (
"235 443 OFFCURVE",
"215 440 OFFCURVE",
"215 468 CURVE SMOOTH",
"215 500 OFFCURVE",
"238 515 OFFCURVE",
"263 515 CURVE SMOOTH",
"282 515 OFFCURVE",
"301 511 OFFCURVE",
"301 480 CURVE SMOOTH",
"301 475 OFFCURVE",
"301 470 OFFCURVE",
"300 467 CURVE",
"307 464 OFFCURVE",
"314 463 OFFCURVE",
"321 462 CURVE",
"321 455 OFFCURVE",
"321 450 OFFCURVE",
"320 447 CURVE",
"348 439 OFFCURVE",
"375 437 OFFCURVE",
"402 437 CURVE SMOOTH",
"433 437 OFFCURVE",
"459 440 OFFCURVE",
"484 444 CURVE",
"492 444 LINE",
"496 465 OFFCURVE",
"498 484 OFFCURVE",
"498 501 CURVE SMOOTH",
"498 633 OFFCURVE",
"377 709 OFFCURVE",
"246 709 CURVE SMOOTH",
"114 709 OFFCURVE",
"12 607 OFFCURVE",
"12 482 CURVE SMOOTH",
"12 425 OFFCURVE",
"33 370 OFFCURVE",
"82 323 CURVE SMOOTH",
"106 299 OFFCURVE",
"131 276 OFFCURVE",
"175 267 CURVE SMOOTH",
"190 264 LINE SMOOTH",
"231 256 OFFCURVE",
"291 252 OFFCURVE",
"291 199 CURVE SMOOTH",
"291 168 OFFCURVE",
"266 153 OFFCURVE",
"239 153 CURVE SMOOTH",
"212 153 OFFCURVE",
"195 162 OFFCURVE",
"195 197 CURVE",
"178 197 LINE",
"176 203 OFFCURVE",
"175 210 OFFCURVE",
"175 217 CURVE",
"139 217 OFFCURVE",
"97 219 OFFCURVE",
"60 219 CURVE SMOOTH",
"41 219 OFFCURVE",
"22 218 OFFCURVE",
"2 215 CURVE",
"2 201 LINE SMOOTH",
"2 197 OFFCURVE",
"1 192 OFFCURVE",
"1 188 CURVE SMOOTH",
"1 61 OFFCURVE",
"144 -35 OFFCURVE",
"276 -35 CURVE SMOOTH",
"390 -35 OFFCURVE",
"493 50 OFFCURVE",
"493 189 CURVE SMOOTH",
"493 304 OFFCURVE",
"378 421 OFFCURVE",
"253 440 CURVE SMOOTH"
);
},
{
closed = 1;
nodes = (
"141 -5 OFFCURVE",
"12 65 OFFCURVE",
"12 189 CURVE SMOOTH",
"12 206 LINE",
"28 208 OFFCURVE",
"45 209 OFFCURVE",
"64 209 CURVE SMOOTH",
"99 209 OFFCURVE",
"134 207 OFFCURVE",
"165 207 CURVE",
"168 164 OFFCURVE",
"203 143 OFFCURVE",
"239 143 CURVE SMOOTH",
"271 143 OFFCURVE",
"301 160 OFFCURVE",
"301 199 CURVE SMOOTH",
"301 276 OFFCURVE",
"218 284 OFFCURVE",
"157 297 CURVE",
"64 313 OFFCURVE",
"22 417 OFFCURVE",
"22 482 CURVE SMOOTH",
"22 602 OFFCURVE",
"118 699 OFFCURVE",
"246 699 CURVE SMOOTH",
"361 699 OFFCURVE",
"468 648 OFFCURVE",
"468 521 CURVE SMOOTH",
"468 506 OFFCURVE",
"466 491 OFFCURVE",
"463 474 CURVE",
"462 474 LINE",
"437 470 OFFCURVE",
"409 466 OFFCURVE",
"381 466 CURVE SMOOTH",
"357 466 OFFCURVE",
"334 469 OFFCURVE",
"312 475 CURVE",
"313 478 OFFCURVE",
"313 482 OFFCURVE",
"313 487 CURVE SMOOTH",
"313 523 OFFCURVE",
"278 545 OFFCURVE",
"243 545 CURVE SMOOTH",
"214 545 OFFCURVE",
"185 528 OFFCURVE",
"185 489 CURVE SMOOTH",
"185 444 OFFCURVE",
"222 433 OFFCURVE",
"252 430 CURVE SMOOTH",
"364 417 OFFCURVE",
"463 320 OFFCURVE",
"463 208 CURVE SMOOTH",
"463 68 OFFCURVE",
"365 -5 OFFCURVE",
"257 -5 CURVE SMOOTH"
);
}
);
width = 485;
}
);
leftKerningGroup = S;
note = Scaron;
rightKerningGroup = S;
unicode = 0160;
},
{
glyphname = T;
layers = (
{
hints = (
{
horizontal = 1;
place = "{-27, 29}";
type = Stem;
},
{
horizontal = 1;
place = "{513, 27}";
type = Stem;
},
{
horizontal = 1;
place = "{705, 11}";
type = Stem;
},
{
place = "{-1, 10}";
type = Stem;
},
{
place = "{134, 10}";
type = Stem;
},
{
place = "{300, 30}";
type = Stem;
},
{
place = "{434, 8}";
type = Stem;
}
);
layerId = "D68BD575-7350-49C7-85EB-1FC0FDA2B601";
paths = (
{
closed = 1;
nodes = (
"453 685 LINE",
"449 685 OFFCURVE",
"446 686 OFFCURVE",
"442 686 CURVE",
"442 696 LINE",
"433 705 LINE",
"354 714 OFFCURVE",
"274 716 OFFCURVE",
"191 716 CURVE SMOOTH",
"126 716 OFFCURVE",
"64 714 OFFCURVE",
"0 714 CURVE",
"-1 691 OFFCURVE",
"-1 660 OFFCURVE",
"-1 637 CURVE SMOOTH",
"-1 590 OFFCURVE",
"3 547 OFFCURVE",
"7 538 CURVE",
"30 530 OFFCURVE",
"24 525 OFFCURVE",
"27 518 CURVE",
"58 507 OFFCURVE",
"90 515 OFFCURVE",
"125 511 CURVE",
"132 364 OFFCURVE",
"134 259 OFFCURVE",
"134 179 CURVE SMOOTH",
"134 114 OFFCURVE",
"133 49 OFFCURVE",
"133 26 CURVE SMOOTH",
"133 10 OFFCURVE",
"134 -5 OFFCURVE",
"138 -12 CURVE",
"145 -11 OFFCURVE",
"150 -10 OFFCURVE",
"153 -10 CURVE",
"154 -19 OFFCURVE",
"155 -27 OFFCURVE",
"158 -32 CURVE",
"189 -27 OFFCURVE",
"216 -27 OFFCURVE",
"245 -27 CURVE SMOOTH",
"274 -27 LINE SMOOTH",
"295 -27 OFFCURVE",
"314 -27 OFFCURVE",
"337 -23 CURVE",
"332 252 OFFCURVE",
"330 394 OFFCURVE",
"330 457 CURVE SMOOTH",
"330 486 OFFCURVE",
"330 501 OFFCURVE",
"331 510 CURVE",
"336 510 LINE",
"367 512 OFFCURVE",
"391 513 OFFCURVE",
"410 513 CURVE SMOOTH",
"423 513 OFFCURVE",
"437 511 OFFCURVE",
"456 508 CURVE",
"461 547 OFFCURVE",
"464 585 OFFCURVE",
"464 616 CURVE SMOOTH",
"464 637 OFFCURVE",
"463 659 OFFCURVE",
"462 676 CURVE"
);
},
{
closed = 1;
nodes = (
"272 705 OFFCURVE",
"353 703 OFFCURVE",
"432 695 CURVE",
"433 676 OFFCURVE",
"434 657 OFFCURVE",
"434 636 CURVE SMOOTH",
"434 603 OFFCURVE",
"432 569 OFFCURVE",
"428 540 CURVE",
"417 542 OFFCURVE",
"403 543 OFFCURVE",
"388 543 CURVE SMOOTH",
"368 543 OFFCURVE",
"341 542 OFFCURVE",
"306 540 CURVE",
"303 540 LINE",
"302 537 LINE",
"299 530 OFFCURVE",
"300 516 OFFCURVE",
"300 477 CURVE SMOOTH",
"300 412 OFFCURVE",
"302 282 OFFCURVE",
"307 8 CURVE SMOOTH",
"307 6 LINE",
"283 2 OFFCURVE",
"253 2 OFFCURVE",
"224 2 CURVE SMOOTH",
"182 2 LINE SMOOTH",
"168 2 OFFCURVE",
"155 1 OFFCURVE",
"143 -1 CURVE",
"143 0 OFFCURVE",
"142 4 OFFCURVE",
"142 9 CURVE SMOOTH",
"142 30 OFFCURVE",
"144 81 OFFCURVE",
"144 172 CURVE SMOOTH",
"144 256 OFFCURVE",
"143 373 OFFCURVE",
"136 532 CURVE",
"135 533 LINE",
"103 549 OFFCURVE",
"31 540 OFFCURVE",
"15 545 CURVE",
"11 552 OFFCURVE",
"9 592 OFFCURVE",
"9 637 CURVE SMOOTH",
"9 660 OFFCURVE",
"8 681 OFFCURVE",
"11 702 CURVE",
"10 704 LINE",
"69 704 OFFCURVE",
"128 705 OFFCURVE",
"191 705 CURVE SMOOTH"
);
}
);
width = 443;
}
);
leftKerningGroup = T;
note = T;
rightKerningGroup = T;
unicode = 0054;
},
{
glyphname = U;
layers = (
{
hints = (
{
horizontal = 1;
place = "{-46, 30}";
type = Stem;
},
{
horizontal = 1;
place = "{138, 10}";
type = Stem;
},
{
horizontal = 1;
place = "{679, 10}";
type = Stem;
},
{
place = "{32, 10}";
type = Stem;
},
{
place = "{178, 30}";
type = Stem;
},
{
place = "{304, 10}";
type = Stem;
},
{
place = "{474, 30}";
type = Stem;
},
{
horizontal = 1;
place = "{682, 10}";
type = Stem;
},
{
place = "{27, 10}";
type = Stem;
}
);
layerId = "D68BD575-7350-49C7-85EB-1FC0FDA2B601";
paths = (
{
closed = 1;
nodes = (
"495 657 LINE",
"491 660 OFFCURVE",
"486 662 OFFCURVE",
"479 664 CURVE",
"479 669 LINE",
"475 677 LINE",
"460 688 OFFCURVE",
"439 689 OFFCURVE",
"416 689 CURVE SMOOTH",
"377 689 OFFCURVE",
"340 685 OFFCURVE",
"313 681 CURVE",
"308 521 OFFCURVE",
"311 352 OFFCURVE",
"304 188 CURVE",
"304 190 LINE",
"297 163 OFFCURVE",
"274 148 OFFCURVE",
"250 148 CURVE SMOOTH",
"237 148 OFFCURVE",
"224 150 OFFCURVE",
"221 166 CURVE",
"221 164 LINE",
"213 272 OFFCURVE",
"208 377 OFFCURVE",
"208 484 CURVE SMOOTH",
"208 541 OFFCURVE",
"209 606 OFFCURVE",
"212 662 CURVE",
"205 665 OFFCURVE",
"198 664 OFFCURVE",
"191 667 CURVE",
"191 672 OFFCURVE",
"192 677 OFFCURVE",
"192 682 CURVE",
"168 689 OFFCURVE",
"138 692 OFFCURVE",
"111 692 CURVE SMOOTH",
"84 692 OFFCURVE",
"56 690 OFFCURVE",
"31 690 CURVE",
"32 659 OFFCURVE",
"32 619 OFFCURVE",
"32 588 CURVE SMOOTH",
"32 437 OFFCURVE",
"27 292 OFFCURVE",
"27 147 CURVE",
"32 27 OFFCURVE",
"158 -46 OFFCURVE",
"282 -46 CURVE SMOOTH",
"394 -46 OFFCURVE",
"474 28 OFFCURVE",
"487 130 CURVE SMOOTH",
"499 238 OFFCURVE",
"504 347 OFFCURVE",
"504 456 CURVE SMOOTH",
"504 521 OFFCURVE",
"502 585 OFFCURVE",
"499 649 CURVE"
);
},
{
closed = 1;
nodes = (
"437 679 OFFCURVE",
"456 677 OFFCURVE",
"469 669 CURVE",
"472 605 OFFCURVE",
"474 540 OFFCURVE",
"474 476 CURVE SMOOTH",
"474 367 OFFCURVE",
"470 259 OFFCURVE",
"457 151 CURVE SMOOTH",
"445 51 OFFCURVE",
"377 -16 OFFCURVE",
"262 -16 CURVE SMOOTH",
"156 -16 OFFCURVE",
"40 35 OFFCURVE",
"37 147 CURVE",
"37 292 OFFCURVE",
"42 438 OFFCURVE",
"42 585 CURVE SMOOTH",
"42 617 OFFCURVE",
"41 648 OFFCURVE",
"41 679 CURVE",
"40 680 LINE",
"41 680 LINE SMOOTH",
"62 680 OFFCURVE",
"88 682 OFFCURVE",
"115 682 CURVE SMOOTH",
"139 682 OFFCURVE",
"163 680 OFFCURVE",
"182 675 CURVE",
"182 674 LINE",
"179 618 OFFCURVE",
"178 561 OFFCURVE",
"178 504 CURVE SMOOTH",
"178 397 OFFCURVE",
"182 291 OFFCURVE",
"191 183 CURVE",
"200 152 OFFCURVE",
"225 138 OFFCURVE",
"250 138 CURVE SMOOTH",
"278 138 OFFCURVE",
"307 156 OFFCURVE",
"314 188 CURVE",
"321 349 OFFCURVE",
"319 516 OFFCURVE",
"323 672 CURVE",
"346 675 OFFCURVE",
"381 679 OFFCURVE",
"414 679 CURVE SMOOTH"
);
}
);
width = 505;
}
);
leftKerningGroup = U;
note = U;
rightKerningGroup = U;
unicode = 0055;
},
{
glyphname = Uacute;
layers = (
{
hints = (
{
horizontal = 1;
place = "{-46, 30}";
type = Stem;
},
{
horizontal = 1;
place = "{138, 10}";
type = Stem;
},
{
horizontal = 1;
place = "{682, 10}";
type = Stem;
},
{
place = "{32, 10}";
type = Stem;
},
{
place = "{178, 30}";
type = Stem;
},
{
place = "{304, 10}";
type = Stem;
},
{
place = "{474, 30}";
type = Stem;
},
{
horizontal = 1;
place = "{718, 30}";
type = Stem;
},
{
horizontal = 1;
place = "{679, 10}";
type = Stem;
},
{
place = "{27, 10}";
type = Stem;
}
);
layerId = "D68BD575-7350-49C7-85EB-1FC0FDA2B601";
paths = (
{
closed = 1;
nodes = (
"371 910 LINE",
"370 909 LINE",
"351 930 LINE",
"284 877 OFFCURVE",
"242 821 OFFCURVE",
"162 749 CURVE",
"170 746 OFFCURVE",
"182 745 OFFCURVE",
"197 742 CURVE",
"182 729 LINE",
"205 722 OFFCURVE",
"252 718 OFFCURVE",
"289 718 CURVE SMOOTH",
"305 718 OFFCURVE",
"322 718 OFFCURVE",
"343 721 CURVE",
"351 735 OFFCURVE",
"386 767 OFFCURVE",
"415 791 CURVE",
"414 791 LINE",
"426 802 OFFCURVE",
"441 815 OFFCURVE",
"452 826 CURVE"
);
},
{
closed = 1;
nodes = (
"419 847 LINE",
"418 846 LINE SMOOTH",
"400 828 OFFCURVE",
"328 769 OFFCURVE",
"317 750 CURVE",
"302 747 OFFCURVE",
"287 748 OFFCURVE",
"268 748 CURVE SMOOTH",
"232 748 OFFCURVE",
"195 750 OFFCURVE",
"183 754 CURVE",
"229 798 OFFCURVE",
"303 880 OFFCURVE",
"350 917 CURVE"
);
},
{
closed = 1;
nodes = (
"499 656 LINE",
"492 659 OFFCURVE",
"485 662 OFFCURVE",
"479 664 CURVE",
"479 676 LINE",
"462 687 OFFCURVE",
"440 689 OFFCURVE",
"416 689 CURVE SMOOTH",
"376 689 OFFCURVE",
"349 682 OFFCURVE",
"313 682 CURVE",
"308 521 OFFCURVE",
"311 352 OFFCURVE",
"304 188 CURVE",
"304 190 LINE",
"297 163 OFFCURVE",
"274 148 OFFCURVE",
"250 148 CURVE SMOOTH",
"237 148 OFFCURVE",
"224 150 OFFCURVE",
"221 166 CURVE",
"221 164 LINE",
"213 272 OFFCURVE",
"208 377 OFFCURVE",
"208 484 CURVE SMOOTH",
"208 541 OFFCURVE",
"209 606 OFFCURVE",
"212 662 CURVE",
"205 665 OFFCURVE",
"198 664 OFFCURVE",
"191 667 CURVE",
"191 672 OFFCURVE",
"192 677 OFFCURVE",
"192 682 CURVE",
"168 689 OFFCURVE",
"138 692 OFFCURVE",
"111 692 CURVE SMOOTH",
"84 692 OFFCURVE",
"56 690 OFFCURVE",
"31 690 CURVE",
"32 659 OFFCURVE",
"32 619 OFFCURVE",
"32 588 CURVE SMOOTH",
"32 437 OFFCURVE",
"27 292 OFFCURVE",
"27 147 CURVE",
"32 27 OFFCURVE",
"158 -46 OFFCURVE",
"282 -46 CURVE SMOOTH",
"394 -46 OFFCURVE",
"474 28 OFFCURVE",
"487 130 CURVE SMOOTH",
"499 238 OFFCURVE",
"504 347 OFFCURVE",
"504 456 CURVE SMOOTH",
"504 521 OFFCURVE",
"502 585 OFFCURVE",
"499 649 CURVE"
);
},
{
closed = 1;
nodes = (
"469 669 LINE",
"472 605 OFFCURVE",
"474 540 OFFCURVE",
"474 476 CURVE SMOOTH",
"474 367 OFFCURVE",
"470 259 OFFCURVE",
"457 151 CURVE SMOOTH",
"445 51 OFFCURVE",
"377 -16 OFFCURVE",
"262 -16 CURVE SMOOTH",
"156 -16 OFFCURVE",
"40 35 OFFCURVE",
"37 147 CURVE",
"37 292 OFFCURVE",
"42 438 OFFCURVE",
"42 585 CURVE SMOOTH",
"42 617 OFFCURVE",
"41 648 OFFCURVE",
"41 679 CURVE",
"40 680 LINE",
"41 680 LINE SMOOTH",
"62 680 OFFCURVE",
"88 682 OFFCURVE",
"115 682 CURVE SMOOTH",
"139 682 OFFCURVE",
"163 680 OFFCURVE",
"182 675 CURVE",
"182 674 LINE",
"179 618 OFFCURVE",
"178 561 OFFCURVE",
"178 504 CURVE SMOOTH",
"178 397 OFFCURVE",
"182 291 OFFCURVE",
"191 183 CURVE",
"200 152 OFFCURVE",
"225 138 OFFCURVE",
"250 138 CURVE SMOOTH",
"278 138 OFFCURVE",
"307 156 OFFCURVE",
"314 188 CURVE",
"321 349 OFFCURVE",
"319 516 OFFCURVE",
"323 672 CURVE",
"344 675 OFFCURVE",
"382 679 OFFCURVE",
"415 679 CURVE SMOOTH",
"438 679 OFFCURVE",
"457 677 OFFCURVE",
"469 670 CURVE"
);
}
);
width = 505;
}
);
leftKerningGroup = U;
note = Uacute;
rightKerningGroup = U;
unicode = 00DA;
},
{
glyphname = Ucircumflex;
layers = (
{
hints = (
{
horizontal = 1;
place = "{-46, 30}";
type = Stem;
},
{
horizontal = 1;
place = "{138, 10}";
type = Stem;
},
{
horizontal = 1;
place = "{682, 10}";
type = Stem;
},
{
place = "{32, 10}";
type = Stem;
},
{
place = "{178, 30}";
type = Stem;
},
{
place = "{304, 10}";
type = Stem;
},
{
place = "{474, 30}";
type = Stem;
},
{
horizontal = 1;
place = "{719, 30}";
type = Stem;
},
{
horizontal = 1;
place = "{679, 10}";
type = Stem;
},
{
place = "{27, 10}";
type = Stem;
}
);
layerId = "D68BD575-7350-49C7-85EB-1FC0FDA2B601";
paths = (
{
closed = 1;
nodes = (
"438 743 LINE",
"248 932 LINE",
"184 874 OFFCURVE",
"129 829 OFFCURVE",
"67 746 CURVE",
"100 743 LINE",
"96 738 OFFCURVE",
"91 733 OFFCURVE",
"87 726 CURVE",
"151 722 OFFCURVE",
"184 719 OFFCURVE",
"195 719 CURVE SMOOTH",
"228 719 OFFCURVE",
"243 754 OFFCURVE",
"262 768 CURVE",
"305 712 OFFCURVE",
"326 719 OFFCURVE",
"352 719 CURVE SMOOTH",
"389 719 OFFCURVE",
"425 726 OFFCURVE",
"425 727 CURVE SMOOTH",
"425 728 OFFCURVE",
"425 728 OFFCURVE",
"424 729 CURVE"
);
},
{
closed = 1;
nodes = (
"411 756 LINE",
"409 756 LINE SMOOTH",
"402 756 OFFCURVE",
"373 749 OFFCURVE",
"333 749 CURVE SMOOTH",
"321 749 OFFCURVE",
"309 748 OFFCURVE",
"296 751 CURVE",
"286 751 OFFCURVE",
"258 792 OFFCURVE",
"245 800 CURVE",
"235 795 OFFCURVE",
"203 754 OFFCURVE",
"193 751 CURVE",
"185 750 OFFCURVE",
"180 749 OFFCURVE",
"175 749 CURVE SMOOTH",
"162 749 OFFCURVE",
"145 750 OFFCURVE",
"86 755 CURVE",
"131 816 OFFCURVE",
"188 862 OFFCURVE",
"248 918 CURVE"
);
},
{
closed = 1;
nodes = (
"499 656 LINE",
"492 659 OFFCURVE",
"485 662 OFFCURVE",
"479 664 CURVE",
"479 676 LINE",
"462 687 OFFCURVE",
"440 689 OFFCURVE",
"416 689 CURVE SMOOTH",
"376 689 OFFCURVE",
"349 682 OFFCURVE",
"313 682 CURVE",
"308 521 OFFCURVE",
"311 352 OFFCURVE",
"304 188 CURVE",
"304 190 LINE",
"297 163 OFFCURVE",
"274 148 OFFCURVE",
"250 148 CURVE SMOOTH",
"237 148 OFFCURVE",
"224 150 OFFCURVE",
"221 166 CURVE",
"221 164 LINE",
"213 272 OFFCURVE",
"208 377 OFFCURVE",
"208 484 CURVE SMOOTH",
"208 541 OFFCURVE",
"209 606 OFFCURVE",
"212 662 CURVE",
"205 665 OFFCURVE",
"198 664 OFFCURVE",
"191 667 CURVE",
"191 672 OFFCURVE",
"192 677 OFFCURVE",
"192 682 CURVE",
"168 689 OFFCURVE",
"138 692 OFFCURVE",
"111 692 CURVE SMOOTH",
"84 692 OFFCURVE",
"56 690 OFFCURVE",
"31 690 CURVE",
"32 659 OFFCURVE",
"32 619 OFFCURVE",
"32 588 CURVE SMOOTH",
"32 437 OFFCURVE",
"27 292 OFFCURVE",
"27 147 CURVE",
"32 27 OFFCURVE",
"158 -46 OFFCURVE",
"282 -46 CURVE SMOOTH",
"394 -46 OFFCURVE",
"474 28 OFFCURVE",
"487 130 CURVE SMOOTH",
"499 238 OFFCURVE",
"504 347 OFFCURVE",
"504 456 CURVE SMOOTH",
"504 521 OFFCURVE",
"502 585 OFFCURVE",
"499 649 CURVE"
);
},
{
closed = 1;
nodes = (
"469 669 LINE",
"472 605 OFFCURVE",
"474 540 OFFCURVE",
"474 476 CURVE SMOOTH",
"474 367 OFFCURVE",
"470 259 OFFCURVE",
"457 151 CURVE SMOOTH",
"445 51 OFFCURVE",
"377 -16 OFFCURVE",
"262 -16 CURVE SMOOTH",
"156 -16 OFFCURVE",
"40 35 OFFCURVE",
"37 147 CURVE",
"37 292 OFFCURVE",
"42 438 OFFCURVE",
"42 585 CURVE SMOOTH",
"42 617 OFFCURVE",
"41 648 OFFCURVE",
"41 679 CURVE",
"40 680 LINE",
"41 680 LINE SMOOTH",
"62 680 OFFCURVE",
"88 682 OFFCURVE",
"115 682 CURVE SMOOTH",
"139 682 OFFCURVE",
"163 680 OFFCURVE",
"182 675 CURVE",
"182 674 LINE",
"179 618 OFFCURVE",
"178 561 OFFCURVE",
"178 504 CURVE SMOOTH",
"178 397 OFFCURVE",
"182 291 OFFCURVE",
"191 183 CURVE",
"200 152 OFFCURVE",
"225 138 OFFCURVE",
"250 138 CURVE SMOOTH",
"278 138 OFFCURVE",
"307 156 OFFCURVE",
"314 188 CURVE",
"321 349 OFFCURVE",
"319 516 OFFCURVE",
"323 672 CURVE",
"344 675 OFFCURVE",
"382 679 OFFCURVE",
"415 679 CURVE SMOOTH",
"438 679 OFFCURVE",
"457 677 OFFCURVE",
"469 670 CURVE"
);
}
);
width = 505;
}
);
leftKerningGroup = U;
note = Ucircumflex;
rightKerningGroup = U;
unicode = 00DB;
},
